{
classes = (
{
code = "k-deva k_ss-deva kh-deva g-deva gh-deva ng-deva ng_k-deva c-deva ch-deva j-deva j_j-deva j_ny-deva jh-deva ny-deva tt-deva tt_tt-deva tth-deva dd-deva ddh-deva nn-deva t-deva t_t-deva t_r-deva th-deva d-deva d_y-deva dh-deva n-deva nnn-deva p-deva ph-deva b-deva b_r-deva bh-deva m-deva y-deva rr-deva l-deva ll-deva lll-deva v-deva v_r-deva sh-deva sh_r-deva ss-deva s-deva h-deva q-deva khh-deva ghh-deva z-deva f-deva sh-deva.loclMAR jh-deva.loclNEP sh-deva.ss02";
name = DevaHalfforms;
},
{
code = "ka-deva kha-deva ga-deva gha-deva nga-deva ca-deva cha-deva ja-deva jha-deva nya-deva tta-deva ttha-deva dda-deva ddha-deva nna-deva ta-deva tha-deva da-deva dha-deva na-deva nnna-deva pa-deva pha-deva ba-deva bha-deva ma-deva ya-deva ra-deva rra-deva la-deva lla-deva llla-deva va-deva sha-deva ssa-deva sa-deva ha-deva qa-deva khha-deva ghha-deva za-deva dddha-deva rha-deva fa-deva yya-deva zha-deva jjya-deva gga-deva jja-deva ddda-deva bba-deva ka-deva.001 dda-deva.001 ha-deva.alt ka-deva.comb na-deva.comb pa-deva.comb ra-deva.comb ya-deva.conecta la-deva.loclMAR sha-deva.loclMAR jha-deva.loclNEP zha-deva.loclNEP";
name = DevaFullforms;
},
{

glyphs = (
{
glyphname = A;
lastChange = "2015-07-04 08:47:36 +0000";
layers = (
{
layerId = "A04BFA18-C442-4494-B826-EAC83DBBD8AC";
name = Regular;
paths = (
{
closed = 1;
nodes = (
"658 54 LINE",
"596 64 LINE",
"583 91 OFFCURVE",
"567 120 OFFCURVE",
"557 149 CURVE SMOOTH",
"351 715 LINE",
"293 705 LINE",
"114 160 LINE SMOOTH",
"103 126 OFFCURVE",
"85 89 OFFCURVE",
"71 61 CURVE",
"8 44 LINE",
"12 -5 LINE",
"12 -5 OFFCURVE",
"122 0 OFFCURVE",
"147 0 CURVE SMOOTH",
"233 0 LINE",
"238 54 LINE",
"168 64 LINE",
"170 85 OFFCURVE",
"172 107 OFFCURVE",
"178 127 CURVE SMOOTH",
"212 232 LINE",
"430 232 LINE",
"451 172 LINE SMOOTH",
"463 137 OFFCURVE",
"470 100 OFFCURVE",
"478 64 CURVE",
"405 44 LINE",
"409 -5 LINE",
"409 -5 OFFCURVE",
"521 0 OFFCURVE",
"552 0 CURVE SMOOTH",
"653 0 LINE"
);
},
{
closed = 1;
nodes = (
"412 285 LINE",
"229 285 LINE",
"316 557 LINE"
);
}
);
width = 667;
},
{
layerId = "6AAAC2AB-C0B6-4874-B22A-447CC2571A39";
name = Bold;
paths = (
{
closed = 1;
nodes = (
"680 71 LINE",
"621 80 LINE",
"613 96 OFFCURVE",
"607 111 OFFCURVE",
"601 128 CURVE SMOOTH",
"401 716 LINE",
"289 705 LINE",
"100 161 LINE SMOOTH",
"90 131 OFFCURVE",
"73 102 OFFCURVE",
"57 73 CURVE",
"13 65 LINE",
"18 -5 LINE",
"18 -5 OFFCURVE",
"128 0 OFFCURVE",
"158 0 CURVE SMOOTH",
"263 0 LINE",
"268 71 LINE",
"210 77 LINE",
"211 90 OFFCURVE",
"212 102 OFFCURVE",
"216 115 CURVE SMOOTH",
"235 179 LINE",
"422 179 LINE",
"436 129 LINE SMOOTH",
"441 112 OFFCURVE",
"440 94 OFFCURVE",
"441 76 CURVE",
"382 65 LINE",
"387 -5 LINE",
"387 -5 OFFCURVE",
"541 0 OFFCURVE",
"591 0 CURVE SMOOTH",
"675 0 LINE"
);
},
{
closed = 1;
nodes = (
"398 263 LINE",
"261 263 LINE",
"332 498 LINE"
);
}
);
width = 692;
}
);
leftKerningGroup = A;
rightKerningGroup = A;
unicode = 0041;
},
{
glyphname = AE;
lastChange = "2015-07-04 08:47:36 +0000";
layers = (
{
layerId = "A04BFA18-C442-4494-B826-EAC83DBBD8AC";
name = Regular;
paths = (
{
closed = 1;
nodes = (
"882 165 LINE",
"827 170 LINE",
"825 154 OFFCURVE",
"816 118 OFFCURVE",
"812 103 CURVE SMOOTH",
"810 96 OFFCURVE",
"801 80 OFFCURVE",
"791 66 CURVE",
"769 62 OFFCURVE",
"734 57 OFFCURVE",
"704 57 CURVE SMOOTH",
"582 57 LINE",
"557 167 LINE",
"533 326 LINE",
"628 326 LINE SMOOTH",
"648 326 OFFCURVE",
"699 321 OFFCURVE",
"708 320 CURVE",
"717 253 LINE",
"765 259 LINE",
"765 259 OFFCURVE",
"762 318 OFFCURVE",
"762 368 CURVE SMOOTH",
"763 452 LINE",
"717 457 LINE",
"708 388 LINE",
"703 387 OFFCURVE",
"668 382 OFFCURVE",
"648 382 CURVE SMOOTH",
"524 382 LINE",
"500 541 LINE SMOOTH",
"494 578 OFFCURVE",
"491 627 OFFCURVE",
"489 649 CURVE",
"670 649 LINE SMOOTH",
"698 649 OFFCURVE",
"729 646 OFFCURVE",
"751 644 CURVE",
"761 631 OFFCURVE",
"770 617 OFFCURVE",
"771 610 CURVE",
"775 595 OFFCURVE",
"780 572 OFFCURVE",
"782 556 CURVE",
"840 561 LINE",
"833 697 LINE",
"814 715 LINE",
"814 715 OFFCURVE",
"720 705 OFFCURVE",
"700 705 CURVE SMOOTH",
"389 705 LINE",
"129 160 LINE SMOOTH",
"122 145 OFFCURVE",
"91 93 OFFCURVE",
"68 61 CURVE",
"5 44 LINE",
"9 -5 LINE",
"9 -5 OFFCURVE",
"119 0 OFFCURVE",
"144 0 CURVE SMOOTH",
"230 0 LINE",
"235 54 LINE",
"165 64 LINE",
"169 80 OFFCURVE",
"179 119 OFFCURVE",
"183 127 CURVE SMOOTH",
"233 232 LINE",
"454 232 LINE",
"470 130 LINE SMOOTH",
"473 110 OFFCURVE",
"475 90 OFFCURVE",
"475 64 CURVE",
"402 44 LINE",
"406 -5 LINE",
"406 -5 OFFCURVE",
"518 0 OFFCURVE",
"549 0 CURVE SMOOTH",
"734 0 LINE SMOOTH",
"754 0 OFFCURVE",
"848 -4 OFFCURVE",
"848 -4 CURVE",
"867 14 LINE"
);
},
{
closed = 1;
nodes = (
"446 285 LINE",
"258 285 LINE",
"400 584 LINE"
);
}
);
width = 917;
},
{
layerId = "6AAAC2AB-C0B6-4874-B22A-447CC2571A39";
name = Bold;
paths = (
{
closed = 1;
nodes = (
"904 190 LINE",
"834 195 LINE",
"832 179 OFFCURVE",
"826 153 OFFCURVE",
"822 138 CURVE",
"821 132 OFFCURVE",
"812 114 OFFCURVE",
"803 95 CURVE",
"783 91 OFFCURVE",
"755 87 OFFCURVE",
"726 87 CURVE SMOOTH",
"625 87 LINE",
"605 193 LINE",
"586 316 LINE",
"659 316 LINE SMOOTH",
"679 316 OFFCURVE",
"713 313 OFFCURVE",
"723 312 CURVE",
"732 250 LINE",
"796 256 LINE",
"796 256 OFFCURVE",
"793 333 OFFCURVE",
"793 383 CURVE SMOOTH",
"794 466 LINE",
"732 471 LINE",
"723 402 LINE",
"710 400 OFFCURVE",
"689 398 OFFCURVE",
"679 398 CURVE SMOOTH",
"573 398 LINE",
"551 542 LINE SMOOTH",
"549 558 OFFCURVE",
"546 605 OFFCURVE",
"545 623 CURVE",
"712 623 LINE SMOOTH",
"742 623 OFFCURVE",
"772 620 OFFCURVE",
"792 618 CURVE",
"796 608 OFFCURVE",
"800 594 OFFCURVE",
"801 590 CURVE SMOOTH",
"805 575 OFFCURVE",
"808 553 OFFCURVE",
"810 537 CURVE",
"882 542 LINE",
"875 697 LINE",
"856 715 LINE",
"856 715 OFFCURVE",
"762 705 OFFCURVE",
"742 705 CURVE SMOOTH",
"422 705 LINE",
"113 161 LINE SMOOTH",
"101 141 OFFCURVE",
"62 86 OFFCURVE",
"52 73 CURVE",
"13 65 LINE",
"18 -5 LINE",
"18 -5 OFFCURVE",
"123 0 OFFCURVE",
"153 0 CURVE SMOOTH",
"257 0 LINE",
"262 71 LINE",
"196 77 LINE",
"199 85 OFFCURVE",
"205 105 OFFCURVE",
"211 115 CURVE SMOOTH",
"247 179 LINE",
"456 179 LINE",
"464 129 LINE SMOOTH",
"467 111 OFFCURVE",
"468 93 OFFCURVE",
"469 76 CURVE",
"410 65 LINE",
"415 -5 LINE",
"415 -5 OFFCURVE",
"569 0 OFFCURVE",
"619 0 CURVE SMOOTH",
"756 0 LINE SMOOTH",
"776 0 OFFCURVE",
"870 -4 OFFCURVE",
"870 -4 CURVE",
"889 14 LINE"
);
},
{
closed = 1;
nodes = (
"444 263 LINE",
"294 263 LINE",
"411 473 LINE"
);
}
);
width = 950;
}
);
leftKerningGroup = A;
rightKerningGroup = AE;
unicode = 00C6;
},
{
glyphname = Aacute;
lastChange = "2015-07-04 08:47:36 +0000";
layers = (
{
layerId = "A04BFA18-C442-4494-B826-EAC83DBBD8AC";
name = Regular;
paths = (
{
closed = 1;
nodes = (
"237 731 LINE",
"472 823 LINE",
"442 886 LINE",
"219 772 LINE"
);
},
{
closed = 1;
nodes = (
"658 54 LINE",
"596 64 LINE",
"583 91 OFFCURVE",
"567 120 OFFCURVE",
"557 149 CURVE SMOOTH",
"351 715 LINE",
"293 705 LINE",
"114 160 LINE SMOOTH",
"103 126 OFFCURVE",
"85 89 OFFCURVE",
"71 61 CURVE",
"8 44 LINE",
"12 -5 LINE",
"12 -5 OFFCURVE",
"122 0 OFFCURVE",
"147 0 CURVE SMOOTH",
"233 0 LINE",
"238 54 LINE",
"168 64 LINE",
"170 85 OFFCURVE",
"172 107 OFFCURVE",
"178 127 CURVE SMOOTH",
"212 232 LINE",
"430 232 LINE",
"451 172 LINE SMOOTH",
"463 137 OFFCURVE",
"470 100 OFFCURVE",
"478 64 CURVE",
"405 44 LINE",
"409 -5 LINE",
"409 -5 OFFCURVE",
"521 0 OFFCURVE",
"552 0 CURVE SMOOTH",
"653 0 LINE"
);
},
{
closed = 1;
nodes = (
"412 285 LINE",
"229 285 LINE",
"316 557 LINE"
);
}
);
width = 667;
},
{
layerId = "6AAAC2AB-C0B6-4874-B22A-447CC2571A39";
name = Bold;
paths = (
{
closed = 1;
nodes = (
"255 731 LINE",
"500 810 LINE",
"466 886 LINE",
"230 783 LINE"
);
},
{
closed = 1;
nodes = (
"680 71 LINE",
"621 80 LINE",
"613 96 OFFCURVE",
"607 111 OFFCURVE",
"601 128 CURVE SMOOTH",
"401 716 LINE",
"289 705 LINE",
"100 161 LINE SMOOTH",
"90 131 OFFCURVE",
"73 102 OFFCURVE",
"57 73 CURVE",
"13 65 LINE",
"18 -5 LINE",
"18 -5 OFFCURVE",
"128 0 OFFCURVE",
"158 0 CURVE SMOOTH",
"263 0 LINE",
"268 71 LINE",
"210 77 LINE",
"211 90 OFFCURVE",
"212 102 OFFCURVE",
"216 115 CURVE SMOOTH",
"235 179 LINE",
"422 179 LINE",
"436 129 LINE SMOOTH",
"441 112 OFFCURVE",
"440 94 OFFCURVE",
"441 76 CURVE",
"382 65 LINE",
"387 -5 LINE",
"387 -5 OFFCURVE",
"541 0 OFFCURVE",
"591 0 CURVE SMOOTH",
"675 0 LINE"
);
},
{
closed = 1;
nodes = (
"398 263 LINE",
"261 263 LINE",
"332 498 LINE"
);
}
);
width = 692;
}
);
unicode = 00C1;
},
{
glyphname = Abreve;
lastChange = "2015-07-04 08:47:36 +0000";
layers = (
{
layerId = "A04BFA18-C442-4494-B826-EAC83DBBD8AC";
name = Regular;
paths = (
{
closed = 1;
nodes = (
"385 731 OFFCURVE",
"445 771 OFFCURVE",
"462 850 CURVE",
"424 862 LINE",
"403 818 OFFCURVE",
"364 795 OFFCURVE",
"325 795 CURVE SMOOTH",
"287 795 OFFCURVE",
"248 818 OFFCURVE",
"226 862 CURVE",
"188 850 LINE",
"206 771 OFFCURVE",
"265 731 OFFCURVE",
"325 731 CURVE SMOOTH"
);
},
{
closed = 1;
nodes = (
"658 54 LINE",
"596 64 LINE",
"583 91 OFFCURVE",
"567 120 OFFCURVE",
"557 149 CURVE SMOOTH",
"351 715 LINE",
"293 705 LINE",
"114 160 LINE SMOOTH",
"103 126 OFFCURVE",
"85 89 OFFCURVE",
"71 61 CURVE",
"8 44 LINE",
"12 -5 LINE",
"12 -5 OFFCURVE",
"122 0 OFFCURVE",
"147 0 CURVE SMOOTH",
"233 0 LINE",
"238 54 LINE",
"168 64 LINE",
"170 85 OFFCURVE",
"172 107 OFFCURVE",
"178 127 CURVE SMOOTH",
"212 232 LINE",
"430 232 LINE",
"451 172 LINE SMOOTH",
"463 137 OFFCURVE",
"470 100 OFFCURVE",
"478 64 CURVE",
"405 44 LINE",
"409 -5 LINE",
"409 -5 OFFCURVE",
"521 0 OFFCURVE",
"552 0 CURVE SMOOTH",
"653 0 LINE"
);
},
{
closed = 1;
nodes = (
"412 285 LINE",
"229 285 LINE",
"316 557 LINE"
);
}
);
width = 667;
},
{
layerId = "6AAAC2AB-C0B6-4874-B22A-447CC2571A39";
name = Bold;
paths = (
{
closed = 1;
nodes = (
"425 736 OFFCURVE",
"496 781 OFFCURVE",
"518 871 CURVE",
"467 891 LINE",
"450 842 OFFCURVE",
"402 818 OFFCURVE",
"355 818 CURVE SMOOTH",
"308 818 OFFCURVE",
"261 842 OFFCURVE",
"243 891 CURVE",
"192 871 LINE",
"215 781 OFFCURVE",
"285 736 OFFCURVE",
"355 736 CURVE SMOOTH"
);
},
{
closed = 1;
nodes = (
"680 71 LINE",
"621 80 LINE",
"613 96 OFFCURVE",
"607 111 OFFCURVE",
"601 128 CURVE SMOOTH",
"401 716 LINE",
"289 705 LINE",
"100 161 LINE SMOOTH",
"90 131 OFFCURVE",
"73 102 OFFCURVE",
"57 73 CURVE",
"13 65 LINE",
"18 -5 LINE",
"18 -5 OFFCURVE",
"128 0 OFFCURVE",
"158 0 CURVE SMOOTH",
"263 0 LINE",
"268 71 LINE",
"210 77 LINE",
"211 90 OFFCURVE",
"212 102 OFFCURVE",
"216 115 CURVE SMOOTH",
"235 179 LINE",
"422 179 LINE",
"436 129 LINE SMOOTH",
"441 112 OFFCURVE",
"440 94 OFFCURVE",
"441 76 CURVE",
"382 65 LINE",
"387 -5 LINE",
"387 -5 OFFCURVE",
"541 0 OFFCURVE",
"591 0 CURVE SMOOTH",
"675 0 LINE"
);
},
{
closed = 1;
nodes = (
"398 263 LINE",
"261 263 LINE",
"332 498 LINE"
);
}
);
width = 692;
}
);
unicode = 0102;
},
{
glyphname = Acircumflex;
lastChange = "2015-07-04 08:47:36 +0000";
layers = (
{
layerId = "A04BFA18-C442-4494-B826-EAC83DBBD8AC";
name = Regular;
paths = (
{
closed = 1;
nodes = (
"175 731 LINE",
"325 799 LINE",
"475 731 LINE",
"498 767 LINE",
"358 857 LINE",
"292 857 LINE",
"152 767 LINE"
);
},
{
closed = 1;
nodes = (
"658 54 LINE",
"596 64 LINE",
"583 91 OFFCURVE",
"567 120 OFFCURVE",
"557 149 CURVE SMOOTH",
"351 715 LINE",
"293 705 LINE",
"114 160 LINE SMOOTH",
"103 126 OFFCURVE",
"85 89 OFFCURVE",
"71 61 CURVE",
"8 44 LINE",
"12 -5 LINE",
"12 -5 OFFCURVE",
"122 0 OFFCURVE",
"147 0 CURVE SMOOTH",
"233 0 LINE",
"238 54 LINE",
"168 64 LINE",
"170 85 OFFCURVE",
"172 107 OFFCURVE",
"178 127 CURVE SMOOTH",
"212 232 LINE",
"430 232 LINE",
"451 172 LINE SMOOTH",
"463 137 OFFCURVE",
"470 100 OFFCURVE",
"478 64 CURVE",
"405 44 LINE",
"409 -5 LINE",
"409 -5 OFFCURVE",
"521 0 OFFCURVE",
"552 0 CURVE SMOOTH",
"653 0 LINE"
);
},
{
closed = 1;
nodes = (
"412 285 LINE",
"229 285 LINE",
"316 557 LINE"
);
}
);
width = 667;
},
{
layerId = "6AAAC2AB-C0B6-4874-B22A-447CC2571A39";
name = Bold;
paths = (
{
closed = 1;
nodes = (
"201 731 LINE",
"352 806 LINE",
"503 731 LINE",
"537 776 LINE",
"401 871 LINE",
"303 871 LINE",
"167 776 LINE"
);
},
{
closed = 1;
nodes = (
"680 71 LINE",
"621 80 LINE",
"613 96 OFFCURVE",
"607 111 OFFCURVE",
"601 128 CURVE SMOOTH",
"401 716 LINE",
"289 705 LINE",
"100 161 LINE SMOOTH",
"90 131 OFFCURVE",
"73 102 OFFCURVE",
"57 73 CURVE",
"13 65 LINE",
"18 -5 LINE",
"18 -5 OFFCURVE",
"128 0 OFFCURVE",
"158 0 CURVE SMOOTH",
"263 0 LINE",
"268 71 LINE",
"210 77 LINE",
"211 90 OFFCURVE",
"212 102 OFFCURVE",
"216 115 CURVE SMOOTH",
"235 179 LINE",
"422 179 LINE",
"436 129 LINE SMOOTH",
"441 112 OFFCURVE",
"440 94 OFFCURVE",
"441 76 CURVE",
"382 65 LINE",
"387 -5 LINE",
"387 -5 OFFCURVE",
"541 0 OFFCURVE",
"591 0 CURVE SMOOTH",
"675 0 LINE"
);
},
{
closed = 1;
nodes = (
"398 263 LINE",
"261 263 LINE",
"332 498 LINE"
);
}
);
width = 692;
}
);
unicode = 00C2;
},
{
glyphname = Adieresis;
lastChange = "2015-07-04 08:47:36 +0000";
layers = (
{
layerId = "A04BFA18-C442-4494-B826-EAC83DBBD8AC";
name = Regular;
paths = (
{
closed = 1;
nodes = (
"278 736 OFFCURVE",
"296 758 OFFCURVE",
"296 791 CURVE SMOOTH",
"296 827 OFFCURVE",
"277 847 OFFCURVE",
"245 847 CURVE SMOOTH",
"212 847 OFFCURVE",
"195 824 OFFCURVE",
"195 791 CURVE SMOOTH",
"195 758 OFFCURVE",
"212 736 OFFCURVE",
"245 736 CURVE SMOOTH"
);
},
{
closed = 1;
nodes = (
"453 736 OFFCURVE",
"471 758 OFFCURVE",
"471 791 CURVE SMOOTH",
"471 827 OFFCURVE",
"452 847 OFFCURVE",
"420 847 CURVE SMOOTH",
"387 847 OFFCURVE",
"370 824 OFFCURVE",
"370 791 CURVE SMOOTH",
"370 758 OFFCURVE",
"387 736 OFFCURVE",
"420 736 CURVE SMOOTH"
);
},
{
closed = 1;
nodes = (
"658 54 LINE",
"596 64 LINE",
"583 91 OFFCURVE",
"567 120 OFFCURVE",
"557 149 CURVE SMOOTH",
"351 715 LINE",
"293 705 LINE",
"114 160 LINE SMOOTH",
"103 126 OFFCURVE",
"85 89 OFFCURVE",
"71 61 CURVE",
"8 44 LINE",
"12 -5 LINE",
"12 -5 OFFCURVE",
"122 0 OFFCURVE",
"147 0 CURVE SMOOTH",
"233 0 LINE",
"238 54 LINE",
"168 64 LINE",
"170 85 OFFCURVE",
"172 107 OFFCURVE",
"178 127 CURVE SMOOTH",
"212 232 LINE",
"430 232 LINE",
"451 172 LINE SMOOTH",
"463 137 OFFCURVE",
"470 100 OFFCURVE",
"478 64 CURVE",
"405 44 LINE",
"409 -5 LINE",
"409 -5 OFFCURVE",
"521 0 OFFCURVE",
"552 0 CURVE SMOOTH",
"653 0 LINE"
);
},
{
closed = 1;
nodes = (
"412 285 LINE",
"229 285 LINE",
"316 557 LINE"
);
}
);
width = 667;
},
{
layerId = "6AAAC2AB-C0B6-4874-B22A-447CC2571A39";
name = Bold;
paths = (
{
closed = 1;
nodes = (
"291 736 OFFCURVE",
"312 761 OFFCURVE",
"312 796 CURVE SMOOTH",
"312 834 OFFCURVE",
"289 857 OFFCURVE",
"253 857 CURVE SMOOTH",
"214 857 OFFCURVE",
"193 831 OFFCURVE",
"193 796 CURVE SMOOTH",
"193 761 OFFCURVE",
"214 736 OFFCURVE",
"253 736 CURVE SMOOTH"
);
},
{
closed = 1;
nodes = (
"484 736 OFFCURVE",
"505 761 OFFCURVE",
"505 796 CURVE SMOOTH",
"505 834 OFFCURVE",
"482 857 OFFCURVE",
"446 857 CURVE SMOOTH",
"407 857 OFFCURVE",
"386 831 OFFCURVE",
"386 796 CURVE SMOOTH",
"386 761 OFFCURVE",
"407 736 OFFCURVE",
"446 736 CURVE SMOOTH"
);
},
{
closed = 1;
nodes = (
"680 71 LINE",
"621 80 LINE",
"613 96 OFFCURVE",
"607 111 OFFCURVE",
"601 128 CURVE SMOOTH",
"401 716 LINE",
"289 705 LINE",
"100 161 LINE SMOOTH",
"90 131 OFFCURVE",
"73 102 OFFCURVE",
"57 73 CURVE",
"13 65 LINE",
"18 -5 LINE",
"18 -5 OFFCURVE",
"128 0 OFFCURVE",
"158 0 CURVE SMOOTH",
"263 0 LINE",
"268 71 LINE",
"210 77 LINE",
"211 90 OFFCURVE",
"212 102 OFFCURVE",
"216 115 CURVE SMOOTH",
"235 179 LINE",
"422 179 LINE",
"436 129 LINE SMOOTH",
"441 112 OFFCURVE",
"440 94 OFFCURVE",
"441 76 CURVE",
"382 65 LINE",
"387 -5 LINE",
"387 -5 OFFCURVE",
"541 0 OFFCURVE",
"591 0 CURVE SMOOTH",
"675 0 LINE"
);
},
{
closed = 1;
nodes = (
"398 263 LINE",
"261 263 LINE",
"332 498 LINE"
);
}
);
width = 692;
}
);
leftKerningGroup = A;
rightKerningGroup = A;
unicode = 00C4;
},
{
glyphname = Agrave;
lastChange = "2015-07-04 08:47:36 +0000";
layers = (
{
layerId = "A04BFA18-C442-4494-B826-EAC83DBBD8AC";
name = Regular;
paths = (
{
closed = 1;
nodes = (
"426 731 LINE",
"444 772 LINE",
"221 886 LINE",
"191 823 LINE"
);
},
{
closed = 1;
nodes = (
"658 54 LINE",
"596 64 LINE",
"583 91 OFFCURVE",
"567 120 OFFCURVE",
"557 149 CURVE SMOOTH",
"351 715 LINE",
"293 705 LINE",
"114 160 LINE SMOOTH",
"103 126 OFFCURVE",
"85 89 OFFCURVE",
"71 61 CURVE",
"8 44 LINE",
"12 -5 LINE",
"12 -5 OFFCURVE",
"122 0 OFFCURVE",
"147 0 CURVE SMOOTH",
"233 0 LINE",
"238 54 LINE",
"168 64 LINE",
"170 85 OFFCURVE",
"172 107 OFFCURVE",
"178 127 CURVE SMOOTH",
"212 232 LINE",
"430 232 LINE",
"451 172 LINE SMOOTH",
"463 137 OFFCURVE",
"470 100 OFFCURVE",
"478 64 CURVE",
"405 44 LINE",
"409 -5 LINE",
"409 -5 OFFCURVE",
"521 0 OFFCURVE",
"552 0 CURVE SMOOTH",
"653 0 LINE"
);
},
{
closed = 1;
nodes = (
"412 285 LINE",
"229 285 LINE",
"316 557 LINE"
);
}
);
width = 667;
},
{
layerId = "6AAAC2AB-C0B6-4874-B22A-447CC2571A39";
name = Bold;
paths = (
{
closed = 1;
nodes = (
"443 731 LINE",
"468 783 LINE",
"232 886 LINE",
"198 810 LINE"
);
},
{
closed = 1;
nodes = (
"680 71 LINE",
"621 80 LINE",
"613 96 OFFCURVE",
"607 111 OFFCURVE",
"601 128 CURVE SMOOTH",
"401 716 LINE",
"289 705 LINE",
"100 161 LINE SMOOTH",
"90 131 OFFCURVE",
"73 102 OFFCURVE",
"57 73 CURVE",
"13 65 LINE",
"18 -5 LINE",
"18 -5 OFFCURVE",
"128 0 OFFCURVE",
"158 0 CURVE SMOOTH",
"263 0 LINE",
"268 71 LINE",
"210 77 LINE",
"211 90 OFFCURVE",
"212 102 OFFCURVE",
"216 115 CURVE SMOOTH",
"235 179 LINE",
"422 179 LINE",
"436 129 LINE SMOOTH",
"441 112 OFFCURVE",
"440 94 OFFCURVE",
"441 76 CURVE",
"382 65 LINE",
"387 -5 LINE",
"387 -5 OFFCURVE",
"541 0 OFFCURVE",
"591 0 CURVE SMOOTH",
"675 0 LINE"
);
},
{
closed = 1;
nodes = (
"398 263 LINE",
"261 263 LINE",
"332 498 LINE"
);
}
);
width = 692;
}
);
leftKerningGroup = A;
rightKerningGroup = A;
unicode = 00C0;
},
{
glyphname = Amacron;
lastChange = "2015-07-04 08:47:36 +0000";
layers = (
{
layerId = "A04BFA18-C442-4494-B826-EAC83DBBD8AC";
name = Regular;
paths = (
{
closed = 1;
nodes = (
"490 740 LINE",
"496 795 LINE",
"154 795 LINE",
"154 740 LINE"
);
},
{
closed = 1;
nodes = (
"658 54 LINE",
"596 64 LINE",
"583 91 OFFCURVE",
"567 120 OFFCURVE",
"557 149 CURVE SMOOTH",
"351 715 LINE",
"293 705 LINE",
"114 160 LINE SMOOTH",
"103 126 OFFCURVE",
"85 89 OFFCURVE",
"71 61 CURVE",
"8 44 LINE",
"12 -5 LINE",
"12 -5 OFFCURVE",
"122 0 OFFCURVE",
"147 0 CURVE SMOOTH",
"233 0 LINE",
"238 54 LINE",
"168 64 LINE",
"170 85 OFFCURVE",
"172 107 OFFCURVE",
"178 127 CURVE SMOOTH",
"212 232 LINE",
"430 232 LINE",
"451 172 LINE SMOOTH",
"463 137 OFFCURVE",
"470 100 OFFCURVE",
"478 64 CURVE",
"405 44 LINE",
"409 -5 LINE",
"409 -5 OFFCURVE",
"521 0 OFFCURVE",
"552 0 CURVE SMOOTH",
"653 0 LINE"
);
},
{
closed = 1;
nodes = (
"412 285 LINE",
"229 285 LINE",
"316 557 LINE"
);
}
);
width = 667;
},
{
layerId = "6AAAC2AB-C0B6-4874-B22A-447CC2571A39";
name = Bold;
paths = (
{
closed = 1;
nodes = (
"513 757 LINE",
"523 827 LINE",
"181 827 LINE",
"181 757 LINE"
);
},
{
closed = 1;
nodes = (
"680 71 LINE",
"621 80 LINE",
"613 96 OFFCURVE",
"607 111 OFFCURVE",
"601 128 CURVE SMOOTH",
"401 716 LINE",
"289 705 LINE",
"100 161 LINE SMOOTH",
"90 131 OFFCURVE",
"73 102 OFFCURVE",
"57 73 CURVE",
"13 65 LINE",
"18 -5 LINE",
"18 -5 OFFCURVE",
"128 0 OFFCURVE",
"158 0 CURVE SMOOTH",
"263 0 LINE",
"268 71 LINE",
"210 77 LINE",
"211 90 OFFCURVE",
"212 102 OFFCURVE",
"216 115 CURVE SMOOTH",
"235 179 LINE",
"422 179 LINE",
"436 129 LINE SMOOTH",
"441 112 OFFCURVE",
"440 94 OFFCURVE",
"441 76 CURVE",
"382 65 LINE",
"387 -5 LINE",
"387 -5 OFFCURVE",
"541 0 OFFCURVE",
"591 0 CURVE SMOOTH",
"675 0 LINE"
);
},
{
closed = 1;
nodes = (
"398 263 LINE",
"261 263 LINE",
"332 498 LINE"
);
}
);
width = 692;
}
);
leftKerningGroup = A;
rightKerningGroup = A;
unicode = 0100;
},
{
glyphname = Aogonek;
lastChange = "2015-07-04 08:47:36 +0000";
layers = (
{
layerId = "A04BFA18-C442-4494-B826-EAC83DBBD8AC";
name = Regular;
paths = (
{
closed = 1;
nodes = (
"570 -161 OFFCURVE",
"551 -141 OFFCURVE",
"551 -115 CURVE SMOOTH",
"551 -78 OFFCURVE",
"589 -26 OFFCURVE",
"653 0 CURVE",
"658 54 LINE",
"596 64 LINE",
"583 91 OFFCURVE",
"567 120 OFFCURVE",
"557 149 CURVE SMOOTH",
"351 715 LINE",
"293 705 LINE",
"114 160 LINE SMOOTH",
"103 126 OFFCURVE",
"85 89 OFFCURVE",
"71 61 CURVE",
"8 44 LINE",
"12 -5 LINE",
"12 -5 OFFCURVE",
"122 0 OFFCURVE",
"147 0 CURVE SMOOTH",
"233 0 LINE",
"238 54 LINE",
"168 64 LINE",
"170 85 OFFCURVE",
"172 107 OFFCURVE",
"178 127 CURVE SMOOTH",
"212 232 LINE",
"430 232 LINE",
"451 172 LINE SMOOTH",
"463 137 OFFCURVE",
"470 100 OFFCURVE",
"478 64 CURVE",
"405 44 LINE",
"409 -5 LINE",
"409 -5 OFFCURVE",
"521 0 OFFCURVE",
"552 0 CURVE SMOOTH",
"567 0 LINE",
"500 -37 OFFCURVE",
"476 -78 OFFCURVE",
"476 -120 CURVE SMOOTH",
"476 -189 OFFCURVE",
"540 -211 OFFCURVE",
"591 -211 CURVE SMOOTH",
"613 -211 OFFCURVE",
"637 -206 OFFCURVE",
"655 -199 CURVE",
"644 -156 LINE",
"633 -159 OFFCURVE",
"621 -161 OFFCURVE",
"610 -161 CURVE SMOOTH"
);
},
{
closed = 1;
nodes = (
"412 285 LINE",
"229 285 LINE",
"316 557 LINE"
);
}
);
width = 667;
},
{
layerId = "6AAAC2AB-C0B6-4874-B22A-447CC2571A39";
name = Bold;
paths = (
{
closed = 1;
nodes = (
"680 71 LINE",
"621 80 LINE",
"613 96 OFFCURVE",
"607 111 OFFCURVE",
"601 128 CURVE SMOOTH",
"401 716 LINE",
"289 705 LINE",
"100 161 LINE SMOOTH",
"90 131 OFFCURVE",
"73 102 OFFCURVE",
"57 73 CURVE",
"13 65 LINE",
"18 -5 LINE",
"18 -5 OFFCURVE",
"128 0 OFFCURVE",
"158 0 CURVE SMOOTH",
"263 0 LINE",
"268 71 LINE",
"210 77 LINE",
"211 90 OFFCURVE",
"212 102 OFFCURVE",
"216 115 CURVE SMOOTH",
"235 179 LINE",
"422 179 LINE",
"436 129 LINE SMOOTH",
"441 112 OFFCURVE",
"440 94 OFFCURVE",
"441 76 CURVE",
"382 65 LINE",
"387 -5 LINE",
"387 -5 OFFCURVE",
"486 -2 OFFCURVE",
"551 -1 CURVE",
"492 -33 OFFCURVE",
"453 -81 OFFCURVE",
"453 -134 CURVE SMOOTH",
"453 -194 OFFCURVE",
"498 -223 OFFCURVE",
"562 -223 CURVE SMOOTH",
"603 -223 OFFCURVE",
"639 -209 OFFCURVE",
"657 -200 CURVE",
"639 -152 LINE",
"628 -156 OFFCURVE",
"617 -159 OFFCURVE",
"607 -159 CURVE SMOOTH",
"582 -159 OFFCURVE",
"563 -144 OFFCURVE",
"563 -111 CURVE SMOOTH",
"563 -76 OFFCURVE",
"599 -34 OFFCURVE",
"675 0 CURVE"
);
},
{
closed = 1;
nodes = (
"398 263 LINE",
"261 263 LINE",
"332 498 LINE"
);
}
);
width = 692;
}
);
unicode = 0104;
},
{
glyphname = Atilde;
lastChange = "2015-07-04 08:47:36 +0000";
layers = (
{
layerId = "A04BFA18-C442-4494-B826-EAC83DBBD8AC";
name = Regular;
paths = (
{
closed = 1;
nodes = (
"286 786 OFFCURVE",
"370 745 OFFCURVE",
"410 745 CURVE SMOOTH",
"450 745 OFFCURVE",
"493 843 OFFCURVE",
"493 843 CURVE",
"457 864 LINE",
"457 864 OFFCURVE",
"431 813 OFFCURVE",
"404 813 CURVE SMOOTH",
"364 813 OFFCURVE",
"279 854 OFFCURVE",
"239 854 CURVE SMOOTH",
"199 854 OFFCURVE",
"157 753 OFFCURVE",
"157 753 CURVE",
"193 732 LINE",
"193 732 OFFCURVE",
"219 786 OFFCURVE",
"246 786 CURVE SMOOTH"
);
},
{
closed = 1;
nodes = (
"658 54 LINE",
"596 64 LINE",
"583 91 OFFCURVE",
"567 120 OFFCURVE",
"557 149 CURVE SMOOTH",
"351 715 LINE",
"293 705 LINE",
"114 160 LINE SMOOTH",
"103 126 OFFCURVE",
"85 89 OFFCURVE",
"71 61 CURVE",
"8 44 LINE",
"12 -5 LINE",
"12 -5 OFFCURVE",
"122 0 OFFCURVE",
"147 0 CURVE SMOOTH",
"233 0 LINE",
"238 54 LINE",
"168 64 LINE",
"170 85 OFFCURVE",
"172 107 OFFCURVE",
"178 127 CURVE SMOOTH",
"212 232 LINE",
"430 232 LINE",
"451 172 LINE SMOOTH",
"463 137 OFFCURVE",
"470 100 OFFCURVE",
"478 64 CURVE",
"405 44 LINE",
"409 -5 LINE",
"409 -5 OFFCURVE",
"521 0 OFFCURVE",
"552 0 CURVE SMOOTH",
"653 0 LINE"
);
},
{
closed = 1;
nodes = (
"412 285 LINE",
"229 285 LINE",
"316 557 LINE"
);
}
);
width = 667;
},
{
layerId = "6AAAC2AB-C0B6-4874-B22A-447CC2571A39";
name = Bold;
paths = (
{
closed = 1;
nodes = (
"307 773 OFFCURVE",
"406 735 OFFCURVE",
"449 735 CURVE SMOOTH",
"492 735 OFFCURVE",
"536 836 OFFCURVE",
"536 836 CURVE",
"487 864 LINE",
"487 864 OFFCURVE",
"466 826 OFFCURVE",
"442 826 CURVE SMOOTH",
"400 826 OFFCURVE",
"299 864 OFFCURVE",
"257 864 CURVE SMOOTH",
"214 864 OFFCURVE",
"168 759 OFFCURVE",
"168 759 CURVE",
"215 731 LINE",
"215 731 OFFCURVE",
"240 773 OFFCURVE",
"264 773 CURVE SMOOTH"
);
},
{
closed = 1;
nodes = (
"680 71 LINE",
"621 80 LINE",
"613 96 OFFCURVE",
"607 111 OFFCURVE",
"601 128 CURVE SMOOTH",
"401 716 LINE",
"289 705 LINE",
"100 161 LINE SMOOTH",
"90 131 OFFCURVE",
"73 102 OFFCURVE",
"57 73 CURVE",
"13 65 LINE",
"18 -5 LINE",
"18 -5 OFFCURVE",
"128 0 OFFCURVE",
"158 0 CURVE SMOOTH",
"263 0 LINE",
"268 71 LINE",
"210 77 LINE",
"211 90 OFFCURVE",
"212 102 OFFCURVE",
"216 115 CURVE SMOOTH",
"235 179 LINE",
"422 179 LINE",
"436 129 LINE SMOOTH",
"441 112 OFFCURVE",
"440 94 OFFCURVE",
"441 76 CURVE",
"382 65 LINE",
"387 -5 LINE",
"387 -5 OFFCURVE",
"541 0 OFFCURVE",
"591 0 CURVE SMOOTH",
"675 0 LINE"
);
},
{
closed = 1;
nodes = (
"398 263 LINE",
"261 263 LINE",
"332 498 LINE"
);
}
);
width = 692;
}
);
leftKerningGroup = A;
rightKerningGroup = A;
unicode = 00C3;
},
{
glyphname = B;
lastChange = "2015-07-04 08:47:36 +0000";
layers = (
{
layerId = "A04BFA18-C442-4494-B826-EAC83DBBD8AC";
name = Regular;
paths = (
{
closed = 1;
nodes = (
"139 705 OFFCURVE",
"64 709 OFFCURVE",
"44 710 CURVE",
"39 656 LINE",
"116 644 LINE",
"118 631 OFFCURVE",
"125 585 OFFCURVE",
"125 568 CURVE SMOOTH",
"125 137 LINE SMOOTH",
"125 120 OFFCURVE",
"118 74 OFFCURVE",
"116 61 CURVE",
"37 45 LINE",
"42 -5 LINE",
"42 -5 OFFCURVE",
"152 0 OFFCURVE",
"177 0 CURVE SMOOTH",
"227 0 OFFCURVE",
"294 -4 OFFCURVE",
"344 -4 CURVE SMOOTH",
"458 -4 OFFCURVE",
"548 69 OFFCURVE",
"548 183 CURVE SMOOTH",
"548 287 OFFCURVE",
"477 348 OFFCURVE",
"378 363 CURVE",
"378 370 LINE",
"459 390 OFFCURVE",
"517 455 OFFCURVE",
"517 543 CURVE SMOOTH",
"517 648 OFFCURVE",
"430 710 OFFCURVE",
"327 710 CURVE SMOOTH",
"277 710 OFFCURVE",
"209 705 OFFCURVE",
"159 705 CURVE SMOOTH"
);
},
{
closed = 1;
nodes = (
"248 656 OFFCURVE",
"277 656 OFFCURVE",
"306 656 CURVE SMOOTH",
"376 656 OFFCURVE",
"424 606 OFFCURVE",
"424 531 CURVE SMOOTH",
"424 442 OFFCURVE",
"362 394 OFFCURVE",
"282 394 CURVE SMOOTH",
"275 394 LINE",
"268 337 LINE",
"279 337 LINE SMOOTH",
"368 337 OFFCURVE",
"447 292 OFFCURVE",
"447 191 CURVE SMOOTH",
"447 102 OFFCURVE",
"392 54 OFFCURVE",
"313 54 CURVE SMOOTH",
"280 54 OFFCURVE",
"247 57 OFFCURVE",
"222 59 CURVE",
"220 71 OFFCURVE",
"216 123 OFFCURVE",
"216 167 CURVE SMOOTH",
"216 538 LINE SMOOTH",
"216 582 OFFCURVE",
"221 642 OFFCURVE",
"223 655 CURVE"
);
}
);
width = 596;
},
{
layerId = "6AAAC2AB-C0B6-4874-B22A-447CC2571A39";
name = Bold;
paths = (
{
closed = 1;
nodes = (
"434 371 LINE",
"515 391 OFFCURVE",
"573 455 OFFCURVE",
"573 543 CURVE SMOOTH",
"573 648 OFFCURVE",
"468 710 OFFCURVE",
"348 710 CURVE SMOOTH",
"298 710 OFFCURVE",
"217 705 OFFCURVE",
"167 705 CURVE SMOOTH",
"137 705 OFFCURVE",
"47 710 OFFCURVE",
"47 710 CURVE",
"42 635 LINE",
"107 623 LINE",
"109 607 OFFCURVE",
"116 562 OFFCURVE",
"116 542 CURVE SMOOTH",
"116 163 LINE SMOOTH",
"116 143 OFFCURVE",
"108 87 OFFCURVE",
"107 77 CURVE",
"41 65 LINE",
"46 -5 LINE",
"46 -5 OFFCURVE",
"166 0 OFFCURVE",
"196 0 CURVE SMOOTH",
"246 0 OFFCURVE",
"315 -5 OFFCURVE",
"365 -5 CURVE SMOOTH",
"494 -5 OFFCURVE",
"604 56 OFFCURVE",
"604 189 CURVE SMOOTH",
"604 293 OFFCURVE",
"532 349 OFFCURVE",
"434 364 CURVE"
);
},
{
closed = 1;
nodes = (
"312 77 OFFCURVE",
"295 78 OFFCURVE",
"278 80 CURVE",
"275 112 OFFCURVE",
"271 162 OFFCURVE",
"271 193 CURVE SMOOTH",
"271 512 LINE SMOOTH",
"271 545 OFFCURVE",
"274 596 OFFCURVE",
"276 627 CURVE",
"292 627 OFFCURVE",
"308 628 OFFCURVE",
"323 628 CURVE SMOOTH",
"393 628 OFFCURVE",
"428 586 OFFCURVE",
"428 521 CURVE SMOOTH",
"428 451 OFFCURVE",
"392 407 OFFCURVE",
"322 407 CURVE SMOOTH",
"316 407 LINE",
"309 320 LINE",
"319 320 LINE SMOOTH",
"394 320 OFFCURVE",
"451 292 OFFCURVE",
"451 203 CURVE SMOOTH",
"451 124 OFFCURVE",
"402 77 OFFCURVE",
"330 77 CURVE SMOOTH"
);
}
);
width = 651;
}
);
leftKerningGroup = B;
rightKerningGroup = B;
unicode = 0042;
},
{
glyphname = C;
lastChange = "2015-07-04 08:47:36 +0000";
layers = (
{
layerId = "A04BFA18-C442-4494-B826-EAC83DBBD8AC";
name = Regular;
paths = (
{
closed = 1;
nodes = (
"557 170 LINE",
"498 168 LINE SMOOTH",
"498 168 OFFCURVE",
"498 131 OFFCURVE",
"496 121 CURVE",
"496 111 OFFCURVE",
"489 88 OFFCURVE",
"482 65 CURVE",
"440 52 OFFCURVE",
"387 43 OFFCURVE",
"346 43 CURVE SMOOTH",
"203 43 OFFCURVE",
"133 180 OFFCURVE",
"133 353 CURVE SMOOTH",
"133 526 OFFCURVE",
"203 662 OFFCURVE",
"347 662 CURVE SMOOTH",
"385 662 OFFCURVE",
"434 652 OFFCURVE",
"473 639 CURVE",
"479 619 OFFCURVE",
"485 598 OFFCURVE",
"485 589 CURVE SMOOTH",
"485 542 LINE",
"544 538 LINE",
"554 686 LINE",
"491 702 OFFCURVE",
"429 720 OFFCURVE",
"347 720 CURVE SMOOTH",
"137 720 OFFCURVE",
"30 570 OFFCURVE",
"30 352 CURVE SMOOTH",
"30 134 OFFCURVE",
"137 -15 OFFCURVE",
"347 -15 CURVE SMOOTH",
"428 -15 OFFCURVE",
"500 3 OFFCURVE",
"563 19 CURVE"
);
}
);
width = 610;
},
{
layerId = "6AAAC2AB-C0B6-4874-B22A-447CC2571A39";
name = Bold;
paths = (
{
closed = 1;
nodes = (
"619 191 LINE",
"544 189 LINE",
"541 142 LINE",
"541 134 OFFCURVE",
"527 100 OFFCURVE",
"525 93 CURVE",
"480 83 OFFCURVE",
"444 78 OFFCURVE",
"401 78 CURVE SMOOTH",
"278 78 OFFCURVE",
"232 200 OFFCURVE",
"232 353 CURVE SMOOTH",
"232 506 OFFCURVE",
"279 627 OFFCURVE",
"402 627 CURVE SMOOTH",
"441 627 OFFCURVE",
"473 622 OFFCURVE",
"514 613 CURVE",
"519 600 OFFCURVE",
"526 578 OFFCURVE",
"526 572 CURVE",
"529 511 LINE",
"606 507 LINE",
"618 686 LINE",
"553 704 OFFCURVE",
"488 720 OFFCURVE",
"402 720 CURVE SMOOTH",
"170 720 OFFCURVE",
"52 570 OFFCURVE",
"52 352 CURVE SMOOTH",
"52 134 OFFCURVE",
"170 -15 OFFCURVE",
"402 -15 CURVE SMOOTH",
"487 -15 OFFCURVE",
"562 3 OFFCURVE",
"627 19 CURVE"
);
}
);
width = 679;
}
);
leftKerningGroup = C;
rightKerningGroup = C;
unicode = 0043;
},
{
glyphname = Cacute;
lastChange = "2015-07-04 08:47:36 +0000";
layers = (
{
layerId = "A04BFA18-C442-4494-B826-EAC83DBBD8AC";
name = Regular;
paths = (
{
closed = 1;
nodes = (
"265 731 LINE",
"500 823 LINE",
"470 886 LINE",
"247 772 LINE"
);
},
{
closed = 1;
nodes = (
"557 170 LINE",
"498 168 LINE SMOOTH",
"498 168 OFFCURVE",
"498 131 OFFCURVE",
"496 121 CURVE",
"496 111 OFFCURVE",
"489 88 OFFCURVE",
"482 65 CURVE",
"440 52 OFFCURVE",
"387 43 OFFCURVE",
"346 43 CURVE SMOOTH",
"203 43 OFFCURVE",
"133 180 OFFCURVE",
"133 353 CURVE SMOOTH",
"133 526 OFFCURVE",
"203 662 OFFCURVE",
"347 662 CURVE SMOOTH",
"385 662 OFFCURVE",
"434 652 OFFCURVE",
"473 639 CURVE",
"479 619 OFFCURVE",
"485 598 OFFCURVE",
"485 589 CURVE SMOOTH",
"485 542 LINE",
"544 538 LINE",
"554 686 LINE",
"491 702 OFFCURVE",
"429 720 OFFCURVE",
"347 720 CURVE SMOOTH",
"137 720 OFFCURVE",
"30 570 OFFCURVE",
"30 352 CURVE SMOOTH",
"30 134 OFFCURVE",
"137 -15 OFFCURVE",
"347 -15 CURVE SMOOTH",
"428 -15 OFFCURVE",
"500 3 OFFCURVE",
"563 19 CURVE"
);
}
);
width = 610;
},
{
layerId = "6AAAC2AB-C0B6-4874-B22A-447CC2571A39";
name = Bold;
paths = (
{
closed = 1;
nodes = (
"306 731 LINE",
"551 810 LINE",
"517 886 LINE",
"281 783 LINE"
);
},
{
closed = 1;
nodes = (
"619 191 LINE",
"544 189 LINE",
"541 142 LINE",
"541 134 OFFCURVE",
"527 100 OFFCURVE",
"525 93 CURVE",
"480 83 OFFCURVE",
"444 78 OFFCURVE",
"401 78 CURVE SMOOTH",
"278 78 OFFCURVE",
"232 200 OFFCURVE",
"232 353 CURVE SMOOTH",
"232 506 OFFCURVE",
"279 627 OFFCURVE",
"402 627 CURVE SMOOTH",
"441 627 OFFCURVE",
"473 622 OFFCURVE",
"514 613 CURVE",
"519 600 OFFCURVE",
"526 578 OFFCURVE",
"526 572 CURVE",
"529 511 LINE",
"606 507 LINE",
"618 686 LINE",
"553 704 OFFCURVE",
"488 720 OFFCURVE",
"402 720 CURVE SMOOTH",
"170 720 OFFCURVE",
"52 570 OFFCURVE",
"52 352 CURVE SMOOTH",
"52 134 OFFCURVE",
"170 -15 OFFCURVE",
"402 -15 CURVE SMOOTH",
"487 -15 OFFCURVE",
"562 3 OFFCURVE",
"627 19 CURVE"
);
}
);
width = 679;
}
);
unicode = 0106;
},
{
glyphname = Ccaron;
lastChange = "2015-07-04 08:47:36 +0000";
layers = (
{
layerId = "A04BFA18-C442-4494-B826-EAC83DBBD8AC";
name = Regular;
paths = (
{
closed = 1;
nodes = (
"317 736 LINE",
"383 736 LINE",
"523 826 LINE",
"500 862 LINE",
"350 794 LINE",
"200 862 LINE",
"177 826 LINE"
);
},
{
closed = 1;
nodes = (
"557 170 LINE",
"498 168 LINE SMOOTH",
"498 168 OFFCURVE",
"498 131 OFFCURVE",
"496 121 CURVE",
"496 111 OFFCURVE",
"489 88 OFFCURVE",
"482 65 CURVE",
"440 52 OFFCURVE",
"387 43 OFFCURVE",
"346 43 CURVE SMOOTH",
"203 43 OFFCURVE",
"133 180 OFFCURVE",
"133 353 CURVE SMOOTH",
"133 526 OFFCURVE",
"203 662 OFFCURVE",
"347 662 CURVE SMOOTH",
"385 662 OFFCURVE",
"434 652 OFFCURVE",
"473 639 CURVE",
"479 619 OFFCURVE",
"485 598 OFFCURVE",
"485 589 CURVE SMOOTH",
"485 542 LINE",
"544 538 LINE",
"554 686 LINE",
"491 702 OFFCURVE",
"429 720 OFFCURVE",
"347 720 CURVE SMOOTH",
"137 720 OFFCURVE",
"30 570 OFFCURVE",
"30 352 CURVE SMOOTH",
"30 134 OFFCURVE",
"137 -15 OFFCURVE",
"347 -15 CURVE SMOOTH",
"428 -15 OFFCURVE",
"500 3 OFFCURVE",
"563 19 CURVE"
);
}
);
width = 610;
},
{
layerId = "6AAAC2AB-C0B6-4874-B22A-447CC2571A39";
name = Bold;
paths = (
{
closed = 1;
nodes = (
"360 736 LINE",
"458 736 LINE",
"594 831 LINE",
"560 876 LINE",
"409 801 LINE",
"258 876 LINE",
"224 831 LINE"
);
},
{
closed = 1;
nodes = (
"619 191 LINE",
"544 189 LINE",
"541 142 LINE",
"541 134 OFFCURVE",
"527 100 OFFCURVE",
"525 93 CURVE",
"480 83 OFFCURVE",
"444 78 OFFCURVE",
"401 78 CURVE SMOOTH",
"278 78 OFFCURVE",
"232 200 OFFCURVE",
"232 353 CURVE SMOOTH",
"232 506 OFFCURVE",
"279 627 OFFCURVE",
"402 627 CURVE SMOOTH",
"441 627 OFFCURVE",
"473 622 OFFCURVE",
"514 613 CURVE",
"519 600 OFFCURVE",
"526 578 OFFCURVE",
"526 572 CURVE",
"529 511 LINE",
"606 507 LINE",
"618 686 LINE",
"553 704 OFFCURVE",
"488 720 OFFCURVE",
"402 720 CURVE SMOOTH",
"170 720 OFFCURVE",
"52 570 OFFCURVE",
"52 352 CURVE SMOOTH",
"52 134 OFFCURVE",
"170 -15 OFFCURVE",
"402 -15 CURVE SMOOTH",
"487 -15 OFFCURVE",
"562 3 OFFCURVE",
"627 19 CURVE"
);
}
);
width = 679;
}
);
unicode = 010C;
},
{
glyphname = Ccedilla;
lastChange = "2015-07-04 08:47:36 +0000";
layers = (
{
layerId = "A04BFA18-C442-4494-B826-EAC83DBBD8AC";
name = Regular;
paths = (
{
closed = 1;
nodes = (
"363 -15 LINE",
"437 -13 OFFCURVE",
"504 4 OFFCURVE",
"563 19 CURVE",
"557 170 LINE",
"498 168 LINE SMOOTH",
"498 168 OFFCURVE",
"498 131 OFFCURVE",
"496 121 CURVE",
"496 111 OFFCURVE",
"489 88 OFFCURVE",
"482 65 CURVE",
"440 52 OFFCURVE",
"387 43 OFFCURVE",
"346 43 CURVE SMOOTH",
"203 43 OFFCURVE",
"133 180 OFFCURVE",
"133 353 CURVE SMOOTH",
"133 526 OFFCURVE",
"203 662 OFFCURVE",
"347 662 CURVE SMOOTH",
"385 662 OFFCURVE",
"434 652 OFFCURVE",
"473 639 CURVE",
"479 619 OFFCURVE",
"485 598 OFFCURVE",
"485 589 CURVE SMOOTH",
"485 542 LINE",
"544 538 LINE",
"554 686 LINE",
"491 702 OFFCURVE",
"429 720 OFFCURVE",
"347 720 CURVE SMOOTH",
"137 720 OFFCURVE",
"30 570 OFFCURVE",
"30 352 CURVE SMOOTH",
"30 144 OFFCURVE",
"127 -1 OFFCURVE",
"318 -14 CURVE",
"312 -87 LINE",
"323 -97 LINE",
"344 -96 LINE",
"371 -96 OFFCURVE",
"391 -109 OFFCURVE",
"391 -139 CURVE SMOOTH",
"391 -169 OFFCURVE",
"369 -186 OFFCURVE",
"337 -186 CURVE SMOOTH",
"317 -186 OFFCURVE",
"295 -180 OFFCURVE",
"279 -175 CURVE",
"266 -210 LINE",
"283 -218 OFFCURVE",
"312 -228 OFFCURVE",
"349 -228 CURVE SMOOTH",
"408 -228 OFFCURVE",
"456 -193 OFFCURVE",
"456 -139 CURVE SMOOTH",
"456 -85 OFFCURVE",
"414 -53 OFFCURVE",
"355 -52 CURVE"
);
}
);
width = 610;
},
{
layerId = "6AAAC2AB-C0B6-4874-B22A-447CC2571A39";
name = Bold;
paths = (
{
closed = 1;
nodes = (
"408 -15 LINE",
"490 -14 OFFCURVE",
"563 3 OFFCURVE",
"627 19 CURVE",
"619 191 LINE",
"544 189 LINE",
"541 142 LINE",
"541 134 OFFCURVE",
"527 100 OFFCURVE",
"525 93 CURVE",
"480 83 OFFCURVE",
"444 78 OFFCURVE",
"401 78 CURVE SMOOTH",
"278 78 OFFCURVE",
"232 200 OFFCURVE",
"232 353 CURVE SMOOTH",
"232 506 OFFCURVE",
"279 627 OFFCURVE",
"402 627 CURVE SMOOTH",
"441 627 OFFCURVE",
"473 622 OFFCURVE",
"514 613 CURVE",
"519 600 OFFCURVE",
"526 578 OFFCURVE",
"526 572 CURVE",
"529 511 LINE",
"606 507 LINE",
"618 686 LINE",
"553 704 OFFCURVE",
"488 720 OFFCURVE",
"402 720 CURVE SMOOTH",
"170 720 OFFCURVE",
"52 570 OFFCURVE",
"52 352 CURVE SMOOTH",
"52 153 OFFCURVE",
"151 11 OFFCURVE",
"345 -12 CURVE",
"337 -95 LINE",
"348 -109 LINE",
"369 -108 LINE",
"393 -108 OFFCURVE",
"411 -114 OFFCURVE",
"411 -139 CURVE SMOOTH",
"411 -164 OFFCURVE",
"388 -172 OFFCURVE",
"364 -172 CURVE SMOOTH",
"344 -172 OFFCURVE",
"325 -166 OFFCURVE",
"309 -161 CURVE",
"291 -210 LINE",
"308 -218 OFFCURVE",
"350 -228 OFFCURVE",
"387 -228 CURVE SMOOTH",
"450 -228 OFFCURVE",
"501 -202 OFFCURVE",
"501 -139 CURVE SMOOTH",
"501 -85 OFFCURVE",
"459 -53 OFFCURVE",
"400 -52 CURVE"
);
}
);
width = 679;
}
);
unicode = 00C7;
},
{
glyphname = Cdotaccent;
lastChange = "2015-07-04 08:47:36 +0000";
layers = (
{
layerId = "A04BFA18-C442-4494-B826-EAC83DBBD8AC";
name = Regular;
paths = (
{
closed = 1;
nodes = (
"315 865 OFFCURVE",
"294 838 OFFCURVE",
"294 800 CURVE SMOOTH",
"294 762 OFFCURVE",
"315 736 OFFCURVE",
"353 736 CURVE SMOOTH",
"391 736 OFFCURVE",
"412 762 OFFCURVE",
"412 800 CURVE SMOOTH",
"412 841 OFFCURVE",
"390 865 OFFCURVE",
"353 865 CURVE SMOOTH"
);
},
{
closed = 1;
nodes = (
"557 170 LINE",
"498 168 LINE SMOOTH",
"498 168 OFFCURVE",
"498 131 OFFCURVE",
"496 121 CURVE",
"496 111 OFFCURVE",
"489 88 OFFCURVE",
"482 65 CURVE",
"440 52 OFFCURVE",
"387 43 OFFCURVE",
"346 43 CURVE SMOOTH",
"203 43 OFFCURVE",
"133 180 OFFCURVE",
"133 353 CURVE SMOOTH",
"133 526 OFFCURVE",
"203 662 OFFCURVE",
"347 662 CURVE SMOOTH",
"385 662 OFFCURVE",
"434 652 OFFCURVE",
"473 639 CURVE",
"479 619 OFFCURVE",
"485 598 OFFCURVE",
"485 589 CURVE SMOOTH",
"485 542 LINE",
"544 538 LINE",
"554 686 LINE",
"491 702 OFFCURVE",
"429 720 OFFCURVE",
"347 720 CURVE SMOOTH",
"137 720 OFFCURVE",
"30 570 OFFCURVE",
"30 352 CURVE SMOOTH",
"30 134 OFFCURVE",
"137 -15 OFFCURVE",
"347 -15 CURVE SMOOTH",
"428 -15 OFFCURVE",
"500 3 OFFCURVE",
"563 19 CURVE"
);
}
);
width = 610;
},
{
layerId = "6AAAC2AB-C0B6-4874-B22A-447CC2571A39";
name = Bold;
paths = (
{
closed = 1;
nodes = (
"354 889 OFFCURVE",
"327 857 OFFCURVE",
"327 812 CURVE SMOOTH",
"327 767 OFFCURVE",
"354 736 OFFCURVE",
"403 736 CURVE SMOOTH",
"452 736 OFFCURVE",
"479 767 OFFCURVE",
"479 812 CURVE SMOOTH",
"479 860 OFFCURVE",
"450 889 OFFCURVE",
"403 889 CURVE SMOOTH"
);
},
{
closed = 1;
nodes = (
"619 191 LINE",
"544 189 LINE",
"541 142 LINE",
"541 134 OFFCURVE",
"527 100 OFFCURVE",
"525 93 CURVE",
"480 83 OFFCURVE",
"444 78 OFFCURVE",
"401 78 CURVE SMOOTH",
"278 78 OFFCURVE",
"232 200 OFFCURVE",
"232 353 CURVE SMOOTH",
"232 506 OFFCURVE",
"279 627 OFFCURVE",
"402 627 CURVE SMOOTH",
"441 627 OFFCURVE",
"473 622 OFFCURVE",
"514 613 CURVE",
"519 600 OFFCURVE",
"526 578 OFFCURVE",
"526 572 CURVE",
"529 511 LINE",
"606 507 LINE",
"618 686 LINE",
"553 704 OFFCURVE",
"488 720 OFFCURVE",
"402 720 CURVE SMOOTH",
"170 720 OFFCURVE",
"52 570 OFFCURVE",
"52 352 CURVE SMOOTH",
"52 134 OFFCURVE",
"170 -15 OFFCURVE",
"402 -15 CURVE SMOOTH",
"487 -15 OFFCURVE",
"562 3 OFFCURVE",
"627 19 CURVE"
);
}
);
width = 679;
}
);
leftKerningGroup = C;
rightKerningGroup = C;
unicode = 010A;
},
{
glyphname = D;
lastChange = "2015-07-04 08:47:36 +0000";
layers = (
{
layerId = "A04BFA18-C442-4494-B826-EAC83DBBD8AC";
name = Regular;
paths = (
{
closed = 1;
nodes = (
"139 705 OFFCURVE",
"77 708 OFFCURVE",
"44 710 CURVE",
"39 656 LINE",
"116 644 LINE",
"118 631 OFFCURVE",
"125 585 OFFCURVE",
"125 568 CURVE SMOOTH",
"125 137 LINE SMOOTH",
"125 120 OFFCURVE",
"118 74 OFFCURVE",
"116 61 CURVE",
"37 45 LINE",
"42 -5 LINE",
"42 -5 OFFCURVE",
"152 0 OFFCURVE",
"177 0 CURVE SMOOTH",
"227 0 OFFCURVE",
"279 -4 OFFCURVE",
"329 -4 CURVE SMOOTH",
"545 -4 OFFCURVE",
"674 141 OFFCURVE",
"674 352 CURVE SMOOTH",
"674 570 OFFCURVE",
"552 710 OFFCURVE",
"329 710 CURVE SMOOTH",
"263 710 OFFCURVE",
"223 705 OFFCURVE",
"159 705 CURVE SMOOTH"
);
},
{
closed = 1;
nodes = (
"330 650 LINE SMOOTH",
"497 650 OFFCURVE",
"575 514 OFFCURVE",
"575 352 CURVE SMOOTH",
"575 189 OFFCURVE",
"497 55 OFFCURVE",
"330 55 CURVE SMOOTH",
"286 55 OFFCURVE",
"249 57 OFFCURVE",
"223 58 CURVE",
"222 62 OFFCURVE",
"216 119 OFFCURVE",
"216 167 CURVE SMOOTH",
"216 538 LINE SMOOTH",
"216 578 OFFCURVE",
"221 631 OFFCURVE",
"223 650 CURVE"
);
}
);
width = 704;
},
{
layerId = "6AAAC2AB-C0B6-4874-B22A-447CC2571A39";
name = Bold;
paths = (
{
closed = 1;
nodes = (
"306 710 OFFCURVE",
"217 705 OFFCURVE",
"167 705 CURVE SMOOTH",
"137 705 OFFCURVE",
"47 710 OFFCURVE",
"47 710 CURVE",
"42 635 LINE",
"107 623 LINE",
"109 607 OFFCURVE",
"116 562 OFFCURVE",
"116 542 CURVE SMOOTH",
"116 163 LINE SMOOTH",
"116 143 OFFCURVE",
"108 87 OFFCURVE",
"107 77 CURVE",
"41 65 LINE",
"46 -5 LINE",
"46 -5 OFFCURVE",
"166 0 OFFCURVE",
"196 0 CURVE SMOOTH",
"246 0 OFFCURVE",
"306 -5 OFFCURVE",
"356 -5 CURVE SMOOTH",
"588 -5 OFFCURVE",
"708 142 OFFCURVE",
"708 352 CURVE SMOOTH",
"708 562 OFFCURVE",
"588 710 OFFCURVE",
"356 710 CURVE SMOOTH"
);
},
{
closed = 1;
nodes = (
"320 78 OFFCURVE",
"294 79 OFFCURVE",
"278 79 CURVE",
"275 111 OFFCURVE",
"271 162 OFFCURVE",
"271 193 CURVE SMOOTH",
"271 512 LINE SMOOTH",
"271 544 OFFCURVE",
"274 594 OFFCURVE",
"276 625 CURVE",
"298 626 OFFCURVE",
"325 627 OFFCURVE",
"342 627 CURVE SMOOTH",
"489 627 OFFCURVE",
"541 501 OFFCURVE",
"541 354 CURVE SMOOTH",
"541 200 OFFCURVE",
"490 78 OFFCURVE",
"340 78 CURVE SMOOTH"
);
}
);
width = 758;
}
);
leftKerningGroup = B;
rightKerningGroup = D;
unicode = 0044;
},
{
glyphname = Dcaron;
lastChange = "2015-07-04 08:47:36 +0000";
layers = (
{
layerId = "A04BFA18-C442-4494-B826-EAC83DBBD8AC";
name = Regular;
paths = (
{
closed = 1;
nodes = (
"290 736 LINE",
"356 736 LINE",
"496 826 LINE",
"473 862 LINE",
"323 794 LINE",
"173 862 LINE",
"150 826 LINE"
);
},
{
closed = 1;
nodes = (
"263 710 OFFCURVE",
"223 705 OFFCURVE",
"159 705 CURVE SMOOTH",
"139 705 OFFCURVE",
"77 708 OFFCURVE",
"44 710 CURVE",
"39 656 LINE",
"116 644 LINE",
"118 631 OFFCURVE",
"125 585 OFFCURVE",
"125 568 CURVE SMOOTH",
"125 137 LINE SMOOTH",
"125 120 OFFCURVE",
"118 74 OFFCURVE",
"116 61 CURVE",
"37 45 LINE",
"42 -5 LINE",
"42 -5 OFFCURVE",
"152 0 OFFCURVE",
"177 0 CURVE SMOOTH",
"227 0 OFFCURVE",
"279 -4 OFFCURVE",
"329 -4 CURVE SMOOTH",
"545 -4 OFFCURVE",
"674 141 OFFCURVE",
"674 352 CURVE SMOOTH",
"674 570 OFFCURVE",
"552 710 OFFCURVE",
"329 710 CURVE SMOOTH"
);
},
{
closed = 1;
nodes = (
"286 55 OFFCURVE",
"249 57 OFFCURVE",
"223 58 CURVE",
"222 62 OFFCURVE",
"216 119 OFFCURVE",
"216 167 CURVE SMOOTH",
"216 538 LINE SMOOTH",
"216 578 OFFCURVE",
"221 631 OFFCURVE",
"223 650 CURVE",
"330 650 LINE SMOOTH",
"497 650 OFFCURVE",
"575 514 OFFCURVE",
"575 352 CURVE SMOOTH",
"575 189 OFFCURVE",
"497 55 OFFCURVE",
"330 55 CURVE SMOOTH"
);
}
);
width = 704;
},
{
layerId = "6AAAC2AB-C0B6-4874-B22A-447CC2571A39";
name = Bold;
paths = (
{
closed = 1;
nodes = (
"303 736 LINE",
"401 736 LINE",
"537 831 LINE",
"503 876 LINE",
"352 801 LINE",
"201 876 LINE",
"167 831 LINE"
);
},
{
closed = 1;
nodes = (
"306 710 OFFCURVE",
"217 705 OFFCURVE",
"167 705 CURVE SMOOTH",
"137 705 OFFCURVE",
"47 710 OFFCURVE",
"47 710 CURVE",
"42 635 LINE",
"107 623 LINE",
"109 607 OFFCURVE",
"116 562 OFFCURVE",
"116 542 CURVE SMOOTH",
"116 163 LINE SMOOTH",
"116 143 OFFCURVE",
"108 87 OFFCURVE",
"107 77 CURVE",
"41 65 LINE",
"46 -5 LINE",
"46 -5 OFFCURVE",
"166 0 OFFCURVE",
"196 0 CURVE SMOOTH",
"246 0 OFFCURVE",
"306 -5 OFFCURVE",
"356 -5 CURVE SMOOTH",
"588 -5 OFFCURVE",
"708 142 OFFCURVE",
"708 352 CURVE SMOOTH",
"708 562 OFFCURVE",
"588 710 OFFCURVE",
"356 710 CURVE SMOOTH"
);
},
{
closed = 1;
nodes = (
"320 78 OFFCURVE",
"294 79 OFFCURVE",
"278 79 CURVE",
"275 111 OFFCURVE",
"271 162 OFFCURVE",
"271 193 CURVE SMOOTH",
"271 512 LINE SMOOTH",
"271 544 OFFCURVE",
"274 594 OFFCURVE",
"276 625 CURVE",
"298 626 OFFCURVE",
"325 627 OFFCURVE",
"342 627 CURVE SMOOTH",
"489 627 OFFCURVE",
"541 501 OFFCURVE",
"541 354 CURVE SMOOTH",
"541 200 OFFCURVE",
"490 78 OFFCURVE",
"340 78 CURVE SMOOTH"
);
}
);
width = 758;
}
);
unicode = 010E;
},
{
glyphname = Dcroat;
lastChange = "2015-07-04 08:47:36 +0000";
layers = (
{
layerId = "A04BFA18-C442-4494-B826-EAC83DBBD8AC";
name = Regular;
paths = (
{
closed = 1;
nodes = (
"263 710 OFFCURVE",
"223 705 OFFCURVE",
"159 705 CURVE SMOOTH",
"139 705 OFFCURVE",
"77 708 OFFCURVE",
"44 710 CURVE",
"39 656 LINE",
"116 644 LINE",
"118 631 OFFCURVE",
"125 585 OFFCURVE",
"125 568 CURVE SMOOTH",
"125 375 LINE",
"23 375 LINE",
"23 331 LINE",
"125 331 LINE",
"125 137 LINE SMOOTH",
"125 120 OFFCURVE",
"118 74 OFFCURVE",
"116 61 CURVE",
"37 45 LINE",
"42 -5 LINE",
"42 -5 OFFCURVE",
"152 0 OFFCURVE",
"177 0 CURVE SMOOTH",
"227 0 OFFCURVE",
"279 -4 OFFCURVE",
"329 -4 CURVE SMOOTH",
"545 -4 OFFCURVE",
"674 141 OFFCURVE",
"674 352 CURVE SMOOTH",
"674 570 OFFCURVE",
"552 710 OFFCURVE",
"329 710 CURVE SMOOTH"
);
},
{
closed = 1;
nodes = (
"286 55 OFFCURVE",
"249 57 OFFCURVE",
"223 58 CURVE",
"222 62 OFFCURVE",
"216 119 OFFCURVE",
"216 167 CURVE SMOOTH",
"216 331 LINE",
"342 331 LINE",
"347 375 LINE",
"216 375 LINE",
"216 538 LINE SMOOTH",
"216 578 OFFCURVE",
"221 631 OFFCURVE",
"223 650 CURVE",
"330 650 LINE SMOOTH",
"497 650 OFFCURVE",
"575 514 OFFCURVE",
"575 352 CURVE SMOOTH",
"575 189 OFFCURVE",
"497 55 OFFCURVE",
"330 55 CURVE SMOOTH"
);
}
);
width = 704;
},
{
layerId = "6AAAC2AB-C0B6-4874-B22A-447CC2571A39";
name = Bold;
paths = (
{
closed = 1;
nodes = (
"306 710 OFFCURVE",
"217 705 OFFCURVE",
"167 705 CURVE SMOOTH",
"137 705 OFFCURVE",
"47 710 OFFCURVE",
"47 710 CURVE",
"42 635 LINE",
"107 623 LINE",
"109 607 OFFCURVE",
"116 562 OFFCURVE",
"116 542 CURVE SMOOTH",
"116 385 LINE",
"-6 385 LINE",
"-6 321 LINE",
"116 321 LINE",
"116 163 LINE SMOOTH",
"116 143 OFFCURVE",
"108 87 OFFCURVE",
"107 77 CURVE",
"41 65 LINE",
"46 -5 LINE",
"46 -5 OFFCURVE",
"166 0 OFFCURVE",
"196 0 CURVE SMOOTH",
"246 0 OFFCURVE",
"306 -5 OFFCURVE",
"356 -5 CURVE SMOOTH",
"588 -5 OFFCURVE",
"708 142 OFFCURVE",
"708 352 CURVE SMOOTH",
"708 562 OFFCURVE",
"588 710 OFFCURVE",
"356 710 CURVE SMOOTH"
);
},
{
closed = 1;
nodes = (
"320 78 OFFCURVE",
"294 79 OFFCURVE",
"278 79 CURVE",
"275 111 OFFCURVE",
"271 162 OFFCURVE",
"271 193 CURVE SMOOTH",
"271 321 LINE",
"396 321 LINE",
"406 385 LINE",
"271 385 LINE",
"271 512 LINE SMOOTH",
"271 544 OFFCURVE",
"274 594 OFFCURVE",
"276 625 CURVE",
"298 626 OFFCURVE",
"325 627 OFFCURVE",
"342 627 CURVE SMOOTH",
"489 627 OFFCURVE",
"541 501 OFFCURVE",
"541 354 CURVE SMOOTH",
"541 200 OFFCURVE",
"490 78 OFFCURVE",
"340 78 CURVE SMOOTH"
);
}
);
width = 758;
}
);
rightKerningGroup = D;
unicode = 0110;
},
{
glyphname = E;
lastChange = "2015-07-04 08:47:36 +0000";
layers = (
{
layerId = "A04BFA18-C442-4494-B826-EAC83DBBD8AC";
name = Regular;
paths = (
{
closed = 1;
nodes = (
"545 165 LINE",
"490 170 LINE",
"488 154 OFFCURVE",
"478 118 OFFCURVE",
"475 103 CURVE SMOOTH",
"473 94 OFFCURVE",
"464 80 OFFCURVE",
"454 66 CURVE",
"432 62 OFFCURVE",
"398 57 OFFCURVE",
"367 57 CURVE SMOOTH",
"223 57 LINE",
"221 76 OFFCURVE",
"216 127 OFFCURVE",
"216 167 CURVE SMOOTH",
"216 338 LINE",
"312 338 LINE SMOOTH",
"332 338 OFFCURVE",
"383 333 OFFCURVE",
"392 332 CURVE",
"401 265 LINE",
"449 271 LINE",
"449 271 OFFCURVE",
"446 330 OFFCURVE",
"446 380 CURVE SMOOTH",
"447 464 LINE",
"401 469 LINE",
"392 400 LINE",
"387 399 OFFCURVE",
"352 394 OFFCURVE",
"332 394 CURVE SMOOTH",
"216 394 LINE",
"216 538 LINE SMOOTH",
"216 577 OFFCURVE",
"221 628 OFFCURVE",
"223 649 CURVE",
"354 649 LINE SMOOTH",
"382 649 OFFCURVE",
"413 646 OFFCURVE",
"435 644 CURVE",
"445 631 OFFCURVE",
"454 617 OFFCURVE",
"455 610 CURVE",
"459 595 OFFCURVE",
"464 572 OFFCURVE",
"466 556 CURVE",
"524 561 LINE",
"517 692 LINE",
"498 710 LINE",
"498 710 OFFCURVE",
"404 705 OFFCURVE",
"384 705 CURVE SMOOTH",
"159 705 LINE SMOOTH",
"139 705 OFFCURVE",
"44 710 OFFCURVE",
"44 710 CURVE",
"39 656 LINE",
"116 644 LINE",
"118 631 OFFCURVE",
"125 585 OFFCURVE",
"125 568 CURVE SMOOTH",
"125 137 LINE SMOOTH",
"125 120 OFFCURVE",
"118 74 OFFCURVE",
"116 61 CURVE",
"37 45 LINE",
"42 -5 LINE",
"42 -5 OFFCURVE",
"152 0 OFFCURVE",
"177 0 CURVE SMOOTH",
"397 0 LINE SMOOTH",
"417 0 OFFCURVE",
"511 -4 OFFCURVE",
"511 -4 CURVE",
"530 14 LINE"
);
}
);
width = 586;
},
{
layerId = "6AAAC2AB-C0B6-4874-B22A-447CC2571A39";
name = Bold;
paths = (
{
closed = 1;
nodes = (
"577 190 LINE",
"507 195 LINE",
"505 179 OFFCURVE",
"499 153 OFFCURVE",
"495 138 CURVE SMOOTH",
"492 128 OFFCURVE",
"486 113 OFFCURVE",
"476 95 CURVE",
"456 91 OFFCURVE",
"428 87 OFFCURVE",
"399 87 CURVE SMOOTH",
"277 87 LINE",
"275 119 OFFCURVE",
"271 164 OFFCURVE",
"271 193 CURVE SMOOTH",
"271 316 LINE",
"333 316 LINE SMOOTH",
"353 316 OFFCURVE",
"387 313 OFFCURVE",
"397 312 CURVE",
"406 250 LINE",
"470 256 LINE",
"470 256 OFFCURVE",
"467 333 OFFCURVE",
"467 383 CURVE SMOOTH",
"468 466 LINE",
"406 471 LINE",
"397 402 LINE",
"384 400 OFFCURVE",
"363 398 OFFCURVE",
"353 398 CURVE SMOOTH",
"271 398 LINE",
"271 512 LINE SMOOTH",
"271 544 OFFCURVE",
"274 592 OFFCURVE",
"276 623 CURVE",
"389 623 LINE SMOOTH",
"419 623 OFFCURVE",
"444 621 OFFCURVE",
"464 619 CURVE",
"477 583 LINE",
"483 537 LINE",
"555 542 LINE",
"548 692 LINE",
"529 710 LINE",
"499 708 OFFCURVE",
"434 705 OFFCURVE",
"414 705 CURVE SMOOTH",
"167 705 LINE SMOOTH",
"137 705 OFFCURVE",
"47 710 OFFCURVE",
"47 710 CURVE",
"42 635 LINE",
"107 623 LINE",
"109 607 OFFCURVE",
"116 562 OFFCURVE",
"116 542 CURVE SMOOTH",
"116 163 LINE SMOOTH",
"116 143 OFFCURVE",
"108 87 OFFCURVE",
"107 77 CURVE",
"41 65 LINE",
"46 -5 LINE",
"46 -5 OFFCURVE",
"166 0 OFFCURVE",
"196 0 CURVE SMOOTH",
"429 0 LINE SMOOTH",
"449 0 OFFCURVE",
"543 -4 OFFCURVE",
"543 -4 CURVE",
"562 14 LINE"
);
}
);
width = 622;
}
);
leftKerningGroup = B;
rightKerningGroup = AE;
unicode = 0045;
},
{
glyphname = Eacute;
lastChange = "2015-07-04 08:47:36 +0000";
layers = (
{
layerId = "A04BFA18-C442-4494-B826-EAC83DBBD8AC";
name = Regular;
paths = (
{
closed = 1;
nodes = (
"201 731 LINE",
"436 823 LINE",
"406 886 LINE",
"183 772 LINE"
);
},
{
closed = 1;
nodes = (
"545 165 LINE",
"490 170 LINE",
"488 154 OFFCURVE",
"478 118 OFFCURVE",
"475 103 CURVE SMOOTH",
"473 94 OFFCURVE",
"464 80 OFFCURVE",
"454 66 CURVE",
"432 62 OFFCURVE",
"398 57 OFFCURVE",
"367 57 CURVE SMOOTH",
"223 57 LINE",
"221 76 OFFCURVE",
"216 127 OFFCURVE",
"216 167 CURVE SMOOTH",
"216 338 LINE",
"312 338 LINE SMOOTH",
"332 338 OFFCURVE",
"383 333 OFFCURVE",
"392 332 CURVE",
"401 265 LINE",
"449 271 LINE",
"449 271 OFFCURVE",
"446 330 OFFCURVE",
"446 380 CURVE SMOOTH",
"447 464 LINE",
"401 469 LINE",
"392 400 LINE",
"387 399 OFFCURVE",
"352 394 OFFCURVE",
"332 394 CURVE SMOOTH",
"216 394 LINE",
"216 538 LINE SMOOTH",
"216 577 OFFCURVE",
"221 628 OFFCURVE",
"223 649 CURVE",
"354 649 LINE SMOOTH",
"382 649 OFFCURVE",
"413 646 OFFCURVE",
"435 644 CURVE",
"445 631 OFFCURVE",
"454 617 OFFCURVE",
"455 610 CURVE",
"459 595 OFFCURVE",
"464 572 OFFCURVE",
"466 556 CURVE",
"524 561 LINE",
"517 692 LINE",
"498 710 LINE",
"498 710 OFFCURVE",
"404 705 OFFCURVE",
"384 705 CURVE SMOOTH",
"159 705 LINE SMOOTH",
"139 705 OFFCURVE",
"44 710 OFFCURVE",
"44 710 CURVE",
"39 656 LINE",
"116 644 LINE",
"118 631 OFFCURVE",
"125 585 OFFCURVE",
"125 568 CURVE SMOOTH",
"125 137 LINE SMOOTH",
"125 120 OFFCURVE",
"118 74 OFFCURVE",
"116 61 CURVE",
"37 45 LINE",
"42 -5 LINE",
"42 -5 OFFCURVE",
"152 0 OFFCURVE",
"177 0 CURVE SMOOTH",
"397 0 LINE SMOOTH",
"417 0 OFFCURVE",
"511 -4 OFFCURVE",
"511 -4 CURVE",
"530 14 LINE"
);
}
);
width = 586;
},
{
layerId = "6AAAC2AB-C0B6-4874-B22A-447CC2571A39";
name = Bold;
paths = (
{
closed = 1;
nodes = (
"204 731 LINE",
"449 810 LINE",
"415 886 LINE",
"179 783 LINE"
);
},
{
closed = 1;
nodes = (
"577 190 LINE",
"507 195 LINE",
"505 179 OFFCURVE",
"499 153 OFFCURVE",
"495 138 CURVE SMOOTH",
"492 128 OFFCURVE",
"486 113 OFFCURVE",
"476 95 CURVE",
"456 91 OFFCURVE",
"428 87 OFFCURVE",
"399 87 CURVE SMOOTH",
"277 87 LINE",
"275 119 OFFCURVE",
"271 164 OFFCURVE",
"271 193 CURVE SMOOTH",
"271 316 LINE",
"333 316 LINE SMOOTH",
"353 316 OFFCURVE",
"387 313 OFFCURVE",
"397 312 CURVE",
"406 250 LINE",
"470 256 LINE",
"470 256 OFFCURVE",
"467 333 OFFCURVE",
"467 383 CURVE SMOOTH",
"468 466 LINE",
"406 471 LINE",
"397 402 LINE",
"384 400 OFFCURVE",
"363 398 OFFCURVE",
"353 398 CURVE SMOOTH",
"271 398 LINE",
"271 512 LINE SMOOTH",
"271 544 OFFCURVE",
"274 592 OFFCURVE",
"276 623 CURVE",
"389 623 LINE SMOOTH",
"419 623 OFFCURVE",
"444 621 OFFCURVE",
"464 619 CURVE",
"477 583 LINE",
"483 537 LINE",
"555 542 LINE",
"548 692 LINE",
"529 710 LINE",
"499 708 OFFCURVE",
"434 705 OFFCURVE",
"414 705 CURVE SMOOTH",
"167 705 LINE SMOOTH",
"137 705 OFFCURVE",
"47 710 OFFCURVE",
"47 710 CURVE",
"42 635 LINE",
"107 623 LINE",
"109 607 OFFCURVE",
"116 562 OFFCURVE",
"116 542 CURVE SMOOTH",
"116 163 LINE SMOOTH",
"116 143 OFFCURVE",
"108 87 OFFCURVE",
"107 77 CURVE",
"41 65 LINE",
"46 -5 LINE",
"46 -5 OFFCURVE",
"166 0 OFFCURVE",
"196 0 CURVE SMOOTH",
"429 0 LINE SMOOTH",
"449 0 OFFCURVE",
"543 -4 OFFCURVE",
"543 -4 CURVE",
"562 14 LINE"
);
}
);
width = 622;
}
);
unicode = 00C9;
},
{
glyphname = Ecaron;
lastChange = "2015-07-04 08:47:36 +0000";
layers = (
{
layerId = "A04BFA18-C442-4494-B826-EAC83DBBD8AC";
name = Regular;
paths = (
{
closed = 1;
nodes = (
"253 736 LINE",
"319 736 LINE",
"459 826 LINE",
"436 862 LINE",
"286 794 LINE",
"136 862 LINE",
"113 826 LINE"
);
},
{
closed = 1;
nodes = (
"545 165 LINE",
"490 170 LINE",
"488 154 OFFCURVE",
"478 118 OFFCURVE",
"475 103 CURVE SMOOTH",
"473 94 OFFCURVE",
"464 80 OFFCURVE",
"454 66 CURVE",
"432 62 OFFCURVE",
"398 57 OFFCURVE",
"367 57 CURVE SMOOTH",
"223 57 LINE",
"221 76 OFFCURVE",
"216 127 OFFCURVE",
"216 167 CURVE SMOOTH",
"216 338 LINE",
"312 338 LINE SMOOTH",
"332 338 OFFCURVE",
"383 333 OFFCURVE",
"392 332 CURVE",
"401 265 LINE",
"449 271 LINE",
"449 271 OFFCURVE",
"446 330 OFFCURVE",
"446 380 CURVE SMOOTH",
"447 464 LINE",
"401 469 LINE",
"392 400 LINE",
"387 399 OFFCURVE",
"352 394 OFFCURVE",
"332 394 CURVE SMOOTH",
"216 394 LINE",
"216 538 LINE SMOOTH",
"216 577 OFFCURVE",
"221 628 OFFCURVE",
"223 649 CURVE",
"354 649 LINE SMOOTH",
"382 649 OFFCURVE",
"413 646 OFFCURVE",
"435 644 CURVE",
"445 631 OFFCURVE",
"454 617 OFFCURVE",
"455 610 CURVE",
"459 595 OFFCURVE",
"464 572 OFFCURVE",
"466 556 CURVE",
"524 561 LINE",
"517 692 LINE",
"498 710 LINE",
"498 710 OFFCURVE",
"404 705 OFFCURVE",
"384 705 CURVE SMOOTH",
"159 705 LINE SMOOTH",
"139 705 OFFCURVE",
"44 710 OFFCURVE",
"44 710 CURVE",
"39 656 LINE",
"116 644 LINE",
"118 631 OFFCURVE",
"125 585 OFFCURVE",
"125 568 CURVE SMOOTH",
"125 137 LINE SMOOTH",
"125 120 OFFCURVE",
"118 74 OFFCURVE",
"116 61 CURVE",
"37 45 LINE",
"42 -5 LINE",
"42 -5 OFFCURVE",
"152 0 OFFCURVE",
"177 0 CURVE SMOOTH",
"397 0 LINE SMOOTH",
"417 0 OFFCURVE",
"511 -4 OFFCURVE",
"511 -4 CURVE",
"530 14 LINE"
);
}
);
width = 586;
},
{
layerId = "6AAAC2AB-C0B6-4874-B22A-447CC2571A39";
name = Bold;
paths = (
{
closed = 1;
nodes = (
"258 736 LINE",
"356 736 LINE",
"492 831 LINE",
"458 876 LINE",
"307 801 LINE",
"156 876 LINE",
"122 831 LINE"
);
},
{
closed = 1;
nodes = (
"577 190 LINE",
"507 195 LINE",
"505 179 OFFCURVE",
"499 153 OFFCURVE",
"495 138 CURVE SMOOTH",
"492 128 OFFCURVE",
"486 113 OFFCURVE",
"476 95 CURVE",
"456 91 OFFCURVE",
"428 87 OFFCURVE",
"399 87 CURVE SMOOTH",
"277 87 LINE",
"275 119 OFFCURVE",
"271 164 OFFCURVE",
"271 193 CURVE SMOOTH",
"271 316 LINE",
"333 316 LINE SMOOTH",
"353 316 OFFCURVE",
"387 313 OFFCURVE",
"397 312 CURVE",
"406 250 LINE",
"470 256 LINE",
"470 256 OFFCURVE",
"467 333 OFFCURVE",
"467 383 CURVE SMOOTH",
"468 466 LINE",
"406 471 LINE",
"397 402 LINE",
"384 400 OFFCURVE",
"363 398 OFFCURVE",
"353 398 CURVE SMOOTH",
"271 398 LINE",
"271 512 LINE SMOOTH",
"271 544 OFFCURVE",
"274 592 OFFCURVE",
"276 623 CURVE",
"389 623 LINE SMOOTH",
"419 623 OFFCURVE",
"444 621 OFFCURVE",
"464 619 CURVE",
"477 583 LINE",
"483 537 LINE",
"555 542 LINE",
"548 692 LINE",
"529 710 LINE",
"499 708 OFFCURVE",
"434 705 OFFCURVE",
"414 705 CURVE SMOOTH",
"167 705 LINE SMOOTH",
"137 705 OFFCURVE",
"47 710 OFFCURVE",
"47 710 CURVE",
"42 635 LINE",
"107 623 LINE",
"109 607 OFFCURVE",
"116 562 OFFCURVE",
"116 542 CURVE SMOOTH",
"116 163 LINE SMOOTH",
"116 143 OFFCURVE",
"108 87 OFFCURVE",
"107 77 CURVE",
"41 65 LINE",
"46 -5 LINE",
"46 -5 OFFCURVE",
"166 0 OFFCURVE",
"196 0 CURVE SMOOTH",
"429 0 LINE SMOOTH",
"449 0 OFFCURVE",
"543 -4 OFFCURVE",
"543 -4 CURVE",
"562 14 LINE"
);
}
);
width = 622;
}
);
unicode = 011A;
},
{
glyphname = Ecircumflex;
lastChange = "2015-07-04 08:47:36 +0000";
layers = (
{
layerId = "A04BFA18-C442-4494-B826-EAC83DBBD8AC";
name = Regular;
paths = (
{
closed = 1;
nodes = (
"139 731 LINE",
"289 799 LINE",
"439 731 LINE",
"462 767 LINE",
"322 857 LINE",
"256 857 LINE",
"116 767 LINE"
);
},
{
closed = 1;
nodes = (
"545 165 LINE",
"490 170 LINE",
"488 154 OFFCURVE",
"478 118 OFFCURVE",
"475 103 CURVE SMOOTH",
"473 94 OFFCURVE",
"464 80 OFFCURVE",
"454 66 CURVE",
"432 62 OFFCURVE",
"398 57 OFFCURVE",
"367 57 CURVE SMOOTH",
"223 57 LINE",
"221 76 OFFCURVE",
"216 127 OFFCURVE",
"216 167 CURVE SMOOTH",
"216 338 LINE",
"312 338 LINE SMOOTH",
"332 338 OFFCURVE",
"383 333 OFFCURVE",
"392 332 CURVE",
"401 265 LINE",
"449 271 LINE",
"449 271 OFFCURVE",
"446 330 OFFCURVE",
"446 380 CURVE SMOOTH",
"447 464 LINE",
"401 469 LINE",
"392 400 LINE",
"387 399 OFFCURVE",
"352 394 OFFCURVE",
"332 394 CURVE SMOOTH",
"216 394 LINE",
"216 538 LINE SMOOTH",
"216 577 OFFCURVE",
"221 628 OFFCURVE",
"223 649 CURVE",
"354 649 LINE SMOOTH",
"382 649 OFFCURVE",
"413 646 OFFCURVE",
"435 644 CURVE",
"445 631 OFFCURVE",
"454 617 OFFCURVE",
"455 610 CURVE",
"459 595 OFFCURVE",
"464 572 OFFCURVE",
"466 556 CURVE",
"524 561 LINE",
"517 692 LINE",
"498 710 LINE",
"498 710 OFFCURVE",
"404 705 OFFCURVE",
"384 705 CURVE SMOOTH",
"159 705 LINE SMOOTH",
"139 705 OFFCURVE",
"44 710 OFFCURVE",
"44 710 CURVE",
"39 656 LINE",
"116 644 LINE",
"118 631 OFFCURVE",
"125 585 OFFCURVE",
"125 568 CURVE SMOOTH",
"125 137 LINE SMOOTH",
"125 120 OFFCURVE",
"118 74 OFFCURVE",
"116 61 CURVE",
"37 45 LINE",
"42 -5 LINE",
"42 -5 OFFCURVE",
"152 0 OFFCURVE",
"177 0 CURVE SMOOTH",
"397 0 LINE SMOOTH",
"417 0 OFFCURVE",
"511 -4 OFFCURVE",
"511 -4 CURVE",
"530 14 LINE"
);
}
);
width = 586;
},
{
layerId = "6AAAC2AB-C0B6-4874-B22A-447CC2571A39";
name = Bold;
paths = (
{
closed = 1;
nodes = (
"150 731 LINE",
"301 806 LINE",
"452 731 LINE",
"486 776 LINE",
"350 871 LINE",
"252 871 LINE",
"116 776 LINE"
);
},
{
closed = 1;
nodes = (
"577 190 LINE",
"507 195 LINE",
"505 179 OFFCURVE",
"499 153 OFFCURVE",
"495 138 CURVE SMOOTH",
"492 128 OFFCURVE",
"486 113 OFFCURVE",
"476 95 CURVE",
"456 91 OFFCURVE",
"428 87 OFFCURVE",
"399 87 CURVE SMOOTH",
"277 87 LINE",
"275 119 OFFCURVE",
"271 164 OFFCURVE",
"271 193 CURVE SMOOTH",
"271 316 LINE",
"333 316 LINE SMOOTH",
"353 316 OFFCURVE",
"387 313 OFFCURVE",
"397 312 CURVE",
"406 250 LINE",
"470 256 LINE",
"470 256 OFFCURVE",
"467 333 OFFCURVE",
"467 383 CURVE SMOOTH",
"468 466 LINE",
"406 471 LINE",
"397 402 LINE",
"384 400 OFFCURVE",
"363 398 OFFCURVE",
"353 398 CURVE SMOOTH",
"271 398 LINE",
"271 512 LINE SMOOTH",
"271 544 OFFCURVE",
"274 592 OFFCURVE",
"276 623 CURVE",
"389 623 LINE SMOOTH",
"419 623 OFFCURVE",
"444 621 OFFCURVE",
"464 619 CURVE",
"477 583 LINE",
"483 537 LINE",
"555 542 LINE",
"548 692 LINE",
"529 710 LINE",
"499 708 OFFCURVE",
"434 705 OFFCURVE",
"414 705 CURVE SMOOTH",
"167 705 LINE SMOOTH",
"137 705 OFFCURVE",
"47 710 OFFCURVE",
"47 710 CURVE",
"42 635 LINE",
"107 623 LINE",
"109 607 OFFCURVE",
"116 562 OFFCURVE",
"116 542 CURVE SMOOTH",
"116 163 LINE SMOOTH",
"116 143 OFFCURVE",
"108 87 OFFCURVE",
"107 77 CURVE",
"41 65 LINE",
"46 -5 LINE",
"46 -5 OFFCURVE",
"166 0 OFFCURVE",
"196 0 CURVE SMOOTH",
"429 0 LINE SMOOTH",
"449 0 OFFCURVE",
"543 -4 OFFCURVE",
"543 -4 CURVE",
"562 14 LINE"
);
}
);
width = 622;
}
);
unicode = 00CA;
},
{
glyphname = Edieresis;
lastChange = "2015-07-04 08:47:36 +0000";
layers = (
{
layerId = "A04BFA18-C442-4494-B826-EAC83DBBD8AC";
name = Regular;
paths = (
{
closed = 1;
nodes = (
"242 736 OFFCURVE",
"260 758 OFFCURVE",
"260 791 CURVE SMOOTH",
"260 827 OFFCURVE",
"241 847 OFFCURVE",
"209 847 CURVE SMOOTH",
"176 847 OFFCURVE",
"159 824 OFFCURVE",
"159 791 CURVE SMOOTH",
"159 758 OFFCURVE",
"176 736 OFFCURVE",
"209 736 CURVE SMOOTH"
);
},
{
closed = 1;
nodes = (
"417 736 OFFCURVE",
"435 758 OFFCURVE",
"435 791 CURVE SMOOTH",
"435 827 OFFCURVE",
"416 847 OFFCURVE",
"384 847 CURVE SMOOTH",
"351 847 OFFCURVE",
"334 824 OFFCURVE",
"334 791 CURVE SMOOTH",
"334 758 OFFCURVE",
"351 736 OFFCURVE",
"384 736 CURVE SMOOTH"
);
},
{
closed = 1;
nodes = (
"545 165 LINE",
"490 170 LINE",
"488 154 OFFCURVE",
"478 118 OFFCURVE",
"475 103 CURVE SMOOTH",
"473 94 OFFCURVE",
"464 80 OFFCURVE",
"454 66 CURVE",
"432 62 OFFCURVE",
"398 57 OFFCURVE",
"367 57 CURVE SMOOTH",
"223 57 LINE",
"221 76 OFFCURVE",
"216 127 OFFCURVE",
"216 167 CURVE SMOOTH",
"216 338 LINE",
"312 338 LINE SMOOTH",
"332 338 OFFCURVE",
"383 333 OFFCURVE",
"392 332 CURVE",
"401 265 LINE",
"449 271 LINE",
"449 271 OFFCURVE",
"446 330 OFFCURVE",
"446 380 CURVE SMOOTH",
"447 464 LINE",
"401 469 LINE",
"392 400 LINE",
"387 399 OFFCURVE",
"352 394 OFFCURVE",
"332 394 CURVE SMOOTH",
"216 394 LINE",
"216 538 LINE SMOOTH",
"216 577 OFFCURVE",
"221 628 OFFCURVE",
"223 649 CURVE",
"354 649 LINE SMOOTH",
"382 649 OFFCURVE",
"413 646 OFFCURVE",
"435 644 CURVE",
"445 631 OFFCURVE",
"454 617 OFFCURVE",
"455 610 CURVE",
"459 595 OFFCURVE",
"464 572 OFFCURVE",
"466 556 CURVE",
"524 561 LINE",
"517 692 LINE",
"498 710 LINE",
"498 710 OFFCURVE",
"404 705 OFFCURVE",
"384 705 CURVE SMOOTH",
"159 705 LINE SMOOTH",
"139 705 OFFCURVE",
"44 710 OFFCURVE",
"44 710 CURVE",
"39 656 LINE",
"116 644 LINE",
"118 631 OFFCURVE",
"125 585 OFFCURVE",
"125 568 CURVE SMOOTH",
"125 137 LINE SMOOTH",
"125 120 OFFCURVE",
"118 74 OFFCURVE",
"116 61 CURVE",
"37 45 LINE",
"42 -5 LINE",
"42 -5 OFFCURVE",
"152 0 OFFCURVE",
"177 0 CURVE SMOOTH",
"397 0 LINE SMOOTH",
"417 0 OFFCURVE",
"511 -4 OFFCURVE",
"511 -4 CURVE",
"530 14 LINE"
);
}
);
width = 586;
},
{
layerId = "6AAAC2AB-C0B6-4874-B22A-447CC2571A39";
name = Bold;
paths = (
{
closed = 1;
nodes = (
"240 736 OFFCURVE",
"261 761 OFFCURVE",
"261 796 CURVE SMOOTH",
"261 834 OFFCURVE",
"238 857 OFFCURVE",
"202 857 CURVE SMOOTH",
"163 857 OFFCURVE",
"142 831 OFFCURVE",
"142 796 CURVE SMOOTH",
"142 761 OFFCURVE",
"163 736 OFFCURVE",
"202 736 CURVE SMOOTH"
);
},
{
closed = 1;
nodes = (
"433 736 OFFCURVE",
"454 761 OFFCURVE",
"454 796 CURVE SMOOTH",
"454 834 OFFCURVE",
"431 857 OFFCURVE",
"395 857 CURVE SMOOTH",
"356 857 OFFCURVE",
"335 831 OFFCURVE",
"335 796 CURVE SMOOTH",
"335 761 OFFCURVE",
"356 736 OFFCURVE",
"395 736 CURVE SMOOTH"
);
},
{
closed = 1;
nodes = (
"577 190 LINE",
"507 195 LINE",
"505 179 OFFCURVE",
"499 153 OFFCURVE",
"495 138 CURVE SMOOTH",
"492 128 OFFCURVE",
"486 113 OFFCURVE",
"476 95 CURVE",
"456 91 OFFCURVE",
"428 87 OFFCURVE",
"399 87 CURVE SMOOTH",
"277 87 LINE",
"275 119 OFFCURVE",
"271 164 OFFCURVE",
"271 193 CURVE SMOOTH",
"271 316 LINE",
"333 316 LINE SMOOTH",
"353 316 OFFCURVE",
"387 313 OFFCURVE",
"397 312 CURVE",
"406 250 LINE",
"470 256 LINE",
"470 256 OFFCURVE",
"467 333 OFFCURVE",
"467 383 CURVE SMOOTH",
"468 466 LINE",
"406 471 LINE",
"397 402 LINE",
"384 400 OFFCURVE",
"363 398 OFFCURVE",
"353 398 CURVE SMOOTH",
"271 398 LINE",
"271 512 LINE SMOOTH",
"271 544 OFFCURVE",
"274 592 OFFCURVE",
"276 623 CURVE",
"389 623 LINE SMOOTH",
"419 623 OFFCURVE",
"444 621 OFFCURVE",
"464 619 CURVE",
"477 583 LINE",
"483 537 LINE",
"555 542 LINE",
"548 692 LINE",
"529 710 LINE",
"499 708 OFFCURVE",
"434 705 OFFCURVE",
"414 705 CURVE SMOOTH",
"167 705 LINE SMOOTH",
"137 705 OFFCURVE",
"47 710 OFFCURVE",
"47 710 CURVE",
"42 635 LINE",
"107 623 LINE",
"109 607 OFFCURVE",
"116 562 OFFCURVE",
"116 542 CURVE SMOOTH",
"116 163 LINE SMOOTH",
"116 143 OFFCURVE",
"108 87 OFFCURVE",
"107 77 CURVE",
"41 65 LINE",
"46 -5 LINE",
"46 -5 OFFCURVE",
"166 0 OFFCURVE",
"196 0 CURVE SMOOTH",
"429 0 LINE SMOOTH",
"449 0 OFFCURVE",
"543 -4 OFFCURVE",
"543 -4 CURVE",
"562 14 LINE"
);
}
);
width = 622;
}
);
leftKerningGroup = B;
rightKerningGroup = AE;
unicode = 00CB;
},
{
glyphname = Edotaccent;
lastChange = "2015-07-04 08:47:36 +0000";
layers = (
{
layerId = "A04BFA18-C442-4494-B826-EAC83DBBD8AC";
name = Regular;
paths = (
{
closed = 1;
nodes = (
"327 736 OFFCURVE",
"348 762 OFFCURVE",
"348 800 CURVE SMOOTH",
"348 841 OFFCURVE",
"326 865 OFFCURVE",
"289 865 CURVE SMOOTH",
"251 865 OFFCURVE",
"230 838 OFFCURVE",
"230 800 CURVE SMOOTH",
"230 762 OFFCURVE",
"251 736 OFFCURVE",
"289 736 CURVE SMOOTH"
);
},
{
closed = 1;
nodes = (
"545 165 LINE",
"490 170 LINE",
"488 154 OFFCURVE",
"478 118 OFFCURVE",
"475 103 CURVE SMOOTH",
"473 94 OFFCURVE",
"464 80 OFFCURVE",
"454 66 CURVE",
"432 62 OFFCURVE",
"398 57 OFFCURVE",
"367 57 CURVE SMOOTH",
"223 57 LINE",
"221 76 OFFCURVE",
"216 127 OFFCURVE",
"216 167 CURVE SMOOTH",
"216 338 LINE",
"312 338 LINE SMOOTH",
"332 338 OFFCURVE",
"383 333 OFFCURVE",
"392 332 CURVE",
"401 265 LINE",
"449 271 LINE",
"449 271 OFFCURVE",
"446 330 OFFCURVE",
"446 380 CURVE SMOOTH",
"447 464 LINE",
"401 469 LINE",
"392 400 LINE",
"387 399 OFFCURVE",
"352 394 OFFCURVE",
"332 394 CURVE SMOOTH",
"216 394 LINE",
"216 538 LINE SMOOTH",
"216 577 OFFCURVE",
"221 628 OFFCURVE",
"223 649 CURVE",
"354 649 LINE SMOOTH",
"382 649 OFFCURVE",
"413 646 OFFCURVE",
"435 644 CURVE",
"445 631 OFFCURVE",
"454 617 OFFCURVE",
"455 610 CURVE",
"459 595 OFFCURVE",
"464 572 OFFCURVE",
"466 556 CURVE",
"524 561 LINE",
"517 692 LINE",
"498 710 LINE",
"498 710 OFFCURVE",
"404 705 OFFCURVE",
"384 705 CURVE SMOOTH",
"159 705 LINE SMOOTH",
"139 705 OFFCURVE",
"44 710 OFFCURVE",
"44 710 CURVE",
"39 656 LINE",
"116 644 LINE",
"118 631 OFFCURVE",
"125 585 OFFCURVE",
"125 568 CURVE SMOOTH",
"125 137 LINE SMOOTH",
"125 120 OFFCURVE",
"118 74 OFFCURVE",
"116 61 CURVE",
"37 45 LINE",
"42 -5 LINE",
"42 -5 OFFCURVE",
"152 0 OFFCURVE",
"177 0 CURVE SMOOTH",
"397 0 LINE SMOOTH",
"417 0 OFFCURVE",
"511 -4 OFFCURVE",
"511 -4 CURVE",
"530 14 LINE"
);
}
);
width = 586;
},
{
layerId = "6AAAC2AB-C0B6-4874-B22A-447CC2571A39";
name = Bold;
paths = (
{
closed = 1;
nodes = (
"350 736 OFFCURVE",
"377 767 OFFCURVE",
"377 812 CURVE SMOOTH",
"377 860 OFFCURVE",
"348 889 OFFCURVE",
"301 889 CURVE SMOOTH",
"252 889 OFFCURVE",
"225 857 OFFCURVE",
"225 812 CURVE SMOOTH",
"225 767 OFFCURVE",
"252 736 OFFCURVE",
"301 736 CURVE SMOOTH"
);
},
{
closed = 1;
nodes = (
"577 190 LINE",
"507 195 LINE",
"505 179 OFFCURVE",
"499 153 OFFCURVE",
"495 138 CURVE SMOOTH",
"492 128 OFFCURVE",
"486 113 OFFCURVE",
"476 95 CURVE",
"456 91 OFFCURVE",
"428 87 OFFCURVE",
"399 87 CURVE SMOOTH",
"277 87 LINE",
"275 119 OFFCURVE",
"271 164 OFFCURVE",
"271 193 CURVE SMOOTH",
"271 316 LINE",
"333 316 LINE SMOOTH",
"353 316 OFFCURVE",
"387 313 OFFCURVE",
"397 312 CURVE",
"406 250 LINE",
"470 256 LINE",
"470 256 OFFCURVE",
"467 333 OFFCURVE",
"467 383 CURVE SMOOTH",
"468 466 LINE",
"406 471 LINE",
"397 402 LINE",
"384 400 OFFCURVE",
"363 398 OFFCURVE",
"353 398 CURVE SMOOTH",
"271 398 LINE",
"271 512 LINE SMOOTH",
"271 544 OFFCURVE",
"274 592 OFFCURVE",
"276 623 CURVE",
"389 623 LINE SMOOTH",
"419 623 OFFCURVE",
"444 621 OFFCURVE",
"464 619 CURVE",
"477 583 LINE",
"483 537 LINE",
"555 542 LINE",
"548 692 LINE",
"529 710 LINE",
"499 708 OFFCURVE",
"434 705 OFFCURVE",
"414 705 CURVE SMOOTH",
"167 705 LINE SMOOTH",
"137 705 OFFCURVE",
"47 710 OFFCURVE",
"47 710 CURVE",
"42 635 LINE",
"107 623 LINE",
"109 607 OFFCURVE",
"116 562 OFFCURVE",
"116 542 CURVE SMOOTH",
"116 163 LINE SMOOTH",
"116 143 OFFCURVE",
"108 87 OFFCURVE",
"107 77 CURVE",
"41 65 LINE",
"46 -5 LINE",
"46 -5 OFFCURVE",
"166 0 OFFCURVE",
"196 0 CURVE SMOOTH",
"429 0 LINE SMOOTH",
"449 0 OFFCURVE",
"543 -4 OFFCURVE",
"543 -4 CURVE",
"562 14 LINE"
);
}
);
width = 622;
}
);
leftKerningGroup = B;
rightKerningGroup = AE;
unicode = 0116;
},
{
glyphname = Egrave;
lastChange = "2015-07-04 08:47:36 +0000";
layers = (
{
layerId = "A04BFA18-C442-4494-B826-EAC83DBBD8AC";
name = Regular;
paths = (
{
closed = 1;
nodes = (
"390 731 LINE",
"408 772 LINE",
"185 886 LINE",
"155 823 LINE"
);
},
{
closed = 1;
nodes = (
"545 165 LINE",
"490 170 LINE",
"488 154 OFFCURVE",
"478 118 OFFCURVE",
"475 103 CURVE SMOOTH",
"473 94 OFFCURVE",
"464 80 OFFCURVE",
"454 66 CURVE",
"432 62 OFFCURVE",
"398 57 OFFCURVE",
"367 57 CURVE SMOOTH",
"223 57 LINE",
"221 76 OFFCURVE",
"216 127 OFFCURVE",
"216 167 CURVE SMOOTH",
"216 338 LINE",
"312 338 LINE SMOOTH",
"332 338 OFFCURVE",
"383 333 OFFCURVE",
"392 332 CURVE",
"401 265 LINE",
"449 271 LINE",
"449 271 OFFCURVE",
"446 330 OFFCURVE",
"446 380 CURVE SMOOTH",
"447 464 LINE",
"401 469 LINE",
"392 400 LINE",
"387 399 OFFCURVE",
"352 394 OFFCURVE",
"332 394 CURVE SMOOTH",
"216 394 LINE",
"216 538 LINE SMOOTH",
"216 577 OFFCURVE",
"221 628 OFFCURVE",
"223 649 CURVE",
"354 649 LINE SMOOTH",
"382 649 OFFCURVE",
"413 646 OFFCURVE",
"435 644 CURVE",
"445 631 OFFCURVE",
"454 617 OFFCURVE",
"455 610 CURVE",
"459 595 OFFCURVE",
"464 572 OFFCURVE",
"466 556 CURVE",
"524 561 LINE",
"517 692 LINE",
"498 710 LINE",
"498 710 OFFCURVE",
"404 705 OFFCURVE",
"384 705 CURVE SMOOTH",
"159 705 LINE SMOOTH",
"139 705 OFFCURVE",
"44 710 OFFCURVE",
"44 710 CURVE",
"39 656 LINE",
"116 644 LINE",
"118 631 OFFCURVE",
"125 585 OFFCURVE",
"125 568 CURVE SMOOTH",
"125 137 LINE SMOOTH",
"125 120 OFFCURVE",
"118 74 OFFCURVE",
"116 61 CURVE",
"37 45 LINE",
"42 -5 LINE",
"42 -5 OFFCURVE",
"152 0 OFFCURVE",
"177 0 CURVE SMOOTH",
"397 0 LINE SMOOTH",
"417 0 OFFCURVE",
"511 -4 OFFCURVE",
"511 -4 CURVE",
"530 14 LINE"
);
}
);
width = 586;
},
{
layerId = "6AAAC2AB-C0B6-4874-B22A-447CC2571A39";
name = Bold;
paths = (
{
closed = 1;
nodes = (
"392 731 LINE",
"417 783 LINE",
"181 886 LINE",
"147 810 LINE"
);
},
{
closed = 1;
nodes = (
"577 190 LINE",
"507 195 LINE",
"505 179 OFFCURVE",
"499 153 OFFCURVE",
"495 138 CURVE SMOOTH",
"492 128 OFFCURVE",
"486 113 OFFCURVE",
"476 95 CURVE",
"456 91 OFFCURVE",
"428 87 OFFCURVE",
"399 87 CURVE SMOOTH",
"277 87 LINE",
"275 119 OFFCURVE",
"271 164 OFFCURVE",
"271 193 CURVE SMOOTH",
"271 316 LINE",
"333 316 LINE SMOOTH",
"353 316 OFFCURVE",
"387 313 OFFCURVE",
"397 312 CURVE",
"406 250 LINE",
"470 256 LINE",
"470 256 OFFCURVE",
"467 333 OFFCURVE",
"467 383 CURVE SMOOTH",
"468 466 LINE",
"406 471 LINE",
"397 402 LINE",
"384 400 OFFCURVE",
"363 398 OFFCURVE",
"353 398 CURVE SMOOTH",
"271 398 LINE",
"271 512 LINE SMOOTH",
"271 544 OFFCURVE",
"274 592 OFFCURVE",
"276 623 CURVE",
"389 623 LINE SMOOTH",
"419 623 OFFCURVE",
"444 621 OFFCURVE",
"464 619 CURVE",
"477 583 LINE",
"483 537 LINE",
"555 542 LINE",
"548 692 LINE",
"529 710 LINE",
"499 708 OFFCURVE",
"434 705 OFFCURVE",
"414 705 CURVE SMOOTH",
"167 705 LINE SMOOTH",
"137 705 OFFCURVE",
"47 710 OFFCURVE",
"47 710 CURVE",
"42 635 LINE",
"107 623 LINE",
"109 607 OFFCURVE",
"116 562 OFFCURVE",
"116 542 CURVE SMOOTH",
"116 163 LINE SMOOTH",
"116 143 OFFCURVE",
"108 87 OFFCURVE",
"107 77 CURVE",
"41 65 LINE",
"46 -5 LINE",
"46 -5 OFFCURVE",
"166 0 OFFCURVE",
"196 0 CURVE SMOOTH",
"429 0 LINE SMOOTH",
"449 0 OFFCURVE",
"543 -4 OFFCURVE",
"543 -4 CURVE",
"562 14 LINE"
);
}
);
width = 622;
}
);
leftKerningGroup = B;
rightKerningGroup = AE;
unicode = 00C8;
},
{
glyphname = Emacron;
lastChange = "2015-07-04 08:47:36 +0000";
layers = (
{
layerId = "A04BFA18-C442-4494-B826-EAC83DBBD8AC";
name = Regular;
paths = (
{
closed = 1;
nodes = (
"454 740 LINE",
"460 795 LINE",
"118 795 LINE",
"118 740 LINE"
);
},
{
closed = 1;
nodes = (
"545 165 LINE",
"490 170 LINE",
"488 154 OFFCURVE",
"478 118 OFFCURVE",
"475 103 CURVE SMOOTH",
"473 94 OFFCURVE",
"464 80 OFFCURVE",
"454 66 CURVE",
"432 62 OFFCURVE",
"398 57 OFFCURVE",
"367 57 CURVE SMOOTH",
"223 57 LINE",
"221 76 OFFCURVE",
"216 127 OFFCURVE",
"216 167 CURVE SMOOTH",
"216 338 LINE",
"312 338 LINE SMOOTH",
"332 338 OFFCURVE",
"383 333 OFFCURVE",
"392 332 CURVE",
"401 265 LINE",
"449 271 LINE",
"449 271 OFFCURVE",
"446 330 OFFCURVE",
"446 380 CURVE SMOOTH",
"447 464 LINE",
"401 469 LINE",
"392 400 LINE",
"387 399 OFFCURVE",
"352 394 OFFCURVE",
"332 394 CURVE SMOOTH",
"216 394 LINE",
"216 538 LINE SMOOTH",
"216 577 OFFCURVE",
"221 628 OFFCURVE",
"223 649 CURVE",
"354 649 LINE SMOOTH",
"382 649 OFFCURVE",
"413 646 OFFCURVE",
"435 644 CURVE",
"445 631 OFFCURVE",
"454 617 OFFCURVE",
"455 610 CURVE",
"459 595 OFFCURVE",
"464 572 OFFCURVE",
"466 556 CURVE",
"524 561 LINE",
"517 692 LINE",
"498 710 LINE",
"498 710 OFFCURVE",
"404 705 OFFCURVE",
"384 705 CURVE SMOOTH",
"159 705 LINE SMOOTH",
"139 705 OFFCURVE",
"44 710 OFFCURVE",
"44 710 CURVE",
"39 656 LINE",
"116 644 LINE",
"118 631 OFFCURVE",
"125 585 OFFCURVE",
"125 568 CURVE SMOOTH",
"125 137 LINE SMOOTH",
"125 120 OFFCURVE",
"118 74 OFFCURVE",
"116 61 CURVE",
"37 45 LINE",
"42 -5 LINE",
"42 -5 OFFCURVE",
"152 0 OFFCURVE",
"177 0 CURVE SMOOTH",
"397 0 LINE SMOOTH",
"417 0 OFFCURVE",
"511 -4 OFFCURVE",
"511 -4 CURVE",
"530 14 LINE"
);
}
);
width = 586;
},
{
layerId = "6AAAC2AB-C0B6-4874-B22A-447CC2571A39";
name = Bold;
paths = (
{
closed = 1;
nodes = (
"462 757 LINE",
"472 827 LINE",
"130 827 LINE",
"130 757 LINE"
);
},
{
closed = 1;
nodes = (
"577 190 LINE",
"507 195 LINE",
"505 179 OFFCURVE",
"499 153 OFFCURVE",
"495 138 CURVE SMOOTH",
"492 128 OFFCURVE",
"486 113 OFFCURVE",
"476 95 CURVE",
"456 91 OFFCURVE",
"428 87 OFFCURVE",
"399 87 CURVE SMOOTH",
"277 87 LINE",
"275 119 OFFCURVE",
"271 164 OFFCURVE",
"271 193 CURVE SMOOTH",
"271 316 LINE",
"333 316 LINE SMOOTH",
"353 316 OFFCURVE",
"387 313 OFFCURVE",
"397 312 CURVE",
"406 250 LINE",
"470 256 LINE",
"470 256 OFFCURVE",
"467 333 OFFCURVE",
"467 383 CURVE SMOOTH",
"468 466 LINE",
"406 471 LINE",
"397 402 LINE",
"384 400 OFFCURVE",
"363 398 OFFCURVE",
"353 398 CURVE SMOOTH",
"271 398 LINE",
"271 512 LINE SMOOTH",
"271 544 OFFCURVE",
"274 592 OFFCURVE",
"276 623 CURVE",
"389 623 LINE SMOOTH",
"419 623 OFFCURVE",
"444 621 OFFCURVE",
"464 619 CURVE",
"477 583 LINE",
"483 537 LINE",
"555 542 LINE",
"548 692 LINE",
"529 710 LINE",
"499 708 OFFCURVE",
"434 705 OFFCURVE",
"414 705 CURVE SMOOTH",
"167 705 LINE SMOOTH",
"137 705 OFFCURVE",
"47 710 OFFCURVE",
"47 710 CURVE",
"42 635 LINE",
"107 623 LINE",
"109 607 OFFCURVE",
"116 562 OFFCURVE",
"116 542 CURVE SMOOTH",
"116 163 LINE SMOOTH",
"116 143 OFFCURVE",
"108 87 OFFCURVE",
"107 77 CURVE",
"41 65 LINE",
"46 -5 LINE",
"46 -5 OFFCURVE",
"166 0 OFFCURVE",
"196 0 CURVE SMOOTH",
"429 0 LINE SMOOTH",
"449 0 OFFCURVE",
"543 -4 OFFCURVE",
"543 -4 CURVE",
"562 14 LINE"
);
}
);
width = 622;
}
);
leftKerningGroup = B;
rightKerningGroup = AE;
unicode = 0112;
},
{
glyphname = Eng;
lastChange = "2015-07-04 08:47:36 +0000";
layers = (
{
layerId = "A04BFA18-C442-4494-B826-EAC83DBBD8AC";
name = Regular;
paths = (
{
closed = 1;
nodes = (
"730 651 LINE",
"652 644 LINE",
"649 630 OFFCURVE",
"637 580 OFFCURVE",
"637 538 CURVE SMOOTH",
"636 0 LINE",
"576 0 LINE",
"182 556 LINE",
"182 167 LINE SMOOTH",
"182 125 OFFCURVE",
"187 75 OFFCURVE",
"189 61 CURVE",
"270 54 LINE",
"263 0 LINE",
"154 0 LINE SMOOTH",
"129 0 OFFCURVE",
"33 -5 OFFCURVE",
"33 -5 CURVE",
"28 45 LINE",
"106 61 LINE",
"108 74 OFFCURVE",
"115 120 OFFCURVE",
"115 137 CURVE SMOOTH",
"115 568 LINE SMOOTH",
"115 584 OFFCURVE",
"108 629 OFFCURVE",
"106 644 CURVE",
"26 656 LINE",
"31 710 LINE",
"31 710 OFFCURVE",
"126 705 OFFCURVE",
"146 705 CURVE SMOOTH",
"191 706 LINE",
"211 685 LINE",
"211 685 OFFCURVE",
"292 552 OFFCURVE",
"308 530 CURVE SMOOTH",
"570 168 LINE",
"570 568 LINE SMOOTH",
"570 584 OFFCURVE",
"564 626 OFFCURVE",
"561 644 CURVE",
"483 656 LINE",
"488 710 LINE",
"516 708 OFFCURVE",
"575 705 OFFCURVE",
"595 705 CURVE SMOOTH",
"655 705 OFFCURVE",
"726 710 OFFCURVE",
"726 710 CURVE"
);
},
{
closed = 1;
nodes = (
"576 12 LINE",
"576 -14 OFFCURVE",
"495 -178 OFFCURVE",
"495 -178 CURVE",
"529 -200 LINE",
"623 -60 OFFCURVE",
"641 -27 OFFCURVE",
"641 0 CURVE"
);
}
);
width = 752;
},
{
layerId = "6AAAC2AB-C0B6-4874-B22A-447CC2571A39";
name = Bold;
paths = (
{
closed = 1;
nodes = (
"778 629 LINE",
"773 710 LINE",
"773 710 OFFCURVE",
"681 705 OFFCURVE",
"611 705 CURVE SMOOTH",
"591 705 OFFCURVE",
"542 708 OFFCURVE",
"507 710 CURVE",
"502 635 LINE",
"567 623 LINE",
"569 607 OFFCURVE",
"576 562 OFFCURVE",
"576 542 CURVE SMOOTH",
"576 230 LINE",
"356 537 LINE SMOOTH",
"341 559 OFFCURVE",
"268 685 OFFCURVE",
"268 685 CURVE",
"249 705 LINE",
"157 705 LINE SMOOTH",
"137 705 OFFCURVE",
"47 710 OFFCURVE",
"47 710 CURVE",
"42 635 LINE",
"107 623 LINE",
"109 612 OFFCURVE",
"116 562 OFFCURVE",
"116 542 CURVE SMOOTH",
"116 163 LINE SMOOTH",
"116 143 OFFCURVE",
"109 88 OFFCURVE",
"107 77 CURVE",
"41 65 LINE",
"46 -5 LINE",
"46 -5 OFFCURVE",
"146 0 OFFCURVE",
"176 0 CURVE SMOOTH",
"312 0 LINE",
"317 71 LINE",
"252 77 LINE",
"251 87 OFFCURVE",
"243 153 OFFCURVE",
"243 193 CURVE SMOOTH",
"243 450 LINE",
"568 0 LINE",
"564 -19 OFFCURVE",
"492 -169 OFFCURVE",
"492 -169 CURVE",
"546 -200 LINE",
"631 -115 OFFCURVE",
"703 -31 OFFCURVE",
"703 0 CURVE SMOOTH",
"703 512 LINE SMOOTH",
"703 552 OFFCURVE",
"710 611 OFFCURVE",
"712 623 CURVE"
);
}
);
width = 810;
}
);
leftKerningGroup = B;
unicode = 014A;
},
{
glyphname = Eogonek;
lastChange = "2015-07-04 08:47:36 +0000";
layers = (
{
layerId = "A04BFA18-C442-4494-B826-EAC83DBBD8AC";
name = Regular;
paths = (
{
closed = 1;
nodes = (
"530 14 LINE",
"545 165 LINE",
"490 170 LINE",
"488 154 OFFCURVE",
"478 118 OFFCURVE",
"475 103 CURVE SMOOTH",
"473 94 OFFCURVE",
"464 80 OFFCURVE",
"454 66 CURVE",
"432 62 OFFCURVE",
"398 57 OFFCURVE",
"367 57 CURVE SMOOTH",
"223 57 LINE",
"221 76 OFFCURVE",
"216 127 OFFCURVE",
"216 167 CURVE SMOOTH",
"216 338 LINE",
"312 338 LINE SMOOTH",
"332 338 OFFCURVE",
"383 333 OFFCURVE",
"392 332 CURVE",
"401 265 LINE",
"449 271 LINE",
"449 271 OFFCURVE",
"446 330 OFFCURVE",
"446 380 CURVE SMOOTH",
"447 464 LINE",
"401 469 LINE",
"392 400 LINE",
"387 399 OFFCURVE",
"352 394 OFFCURVE",
"332 394 CURVE SMOOTH",
"216 394 LINE",
"216 538 LINE SMOOTH",
"216 577 OFFCURVE",
"221 628 OFFCURVE",
"223 649 CURVE",
"354 649 LINE SMOOTH",
"382 649 OFFCURVE",
"413 646 OFFCURVE",
"435 644 CURVE",
"445 631 OFFCURVE",
"454 617 OFFCURVE",
"455 610 CURVE",
"459 595 OFFCURVE",
"464 572 OFFCURVE",
"466 556 CURVE",
"524 561 LINE",
"517 692 LINE",
"498 710 LINE",
"498 710 OFFCURVE",
"404 705 OFFCURVE",
"384 705 CURVE SMOOTH",
"159 705 LINE SMOOTH",
"139 705 OFFCURVE",
"44 710 OFFCURVE",
"44 710 CURVE",
"39 656 LINE",
"116 644 LINE",
"118 631 OFFCURVE",
"125 585 OFFCURVE",
"125 568 CURVE SMOOTH",
"125 137 LINE SMOOTH",
"125 120 OFFCURVE",
"118 74 OFFCURVE",
"116 61 CURVE",
"37 45 LINE",
"42 -5 LINE",
"42 -5 OFFCURVE",
"152 0 OFFCURVE",
"177 0 CURVE SMOOTH",
"397 0 LINE",
"431 -1 LINE",
"360 -38 OFFCURVE",
"334 -81 OFFCURVE",
"334 -124 CURVE SMOOTH",
"334 -193 OFFCURVE",
"398 -215 OFFCURVE",
"449 -215 CURVE SMOOTH",
"471 -215 OFFCURVE",
"495 -210 OFFCURVE",
"513 -203 CURVE",
"502 -160 LINE",
"491 -163 OFFCURVE",
"479 -165 OFFCURVE",
"468 -165 CURVE SMOOTH",
"428 -165 OFFCURVE",
"409 -145 OFFCURVE",
"409 -119 CURVE SMOOTH",
"409 -82 OFFCURVE",
"447 -30 OFFCURVE",
"511 -4 CURVE"
);
}
);
width = 586;
},
{
layerId = "6AAAC2AB-C0B6-4874-B22A-447CC2571A39";
name = Bold;
paths = (
{
closed = 1;
nodes = (
"577 190 LINE",
"507 195 LINE",
"505 179 OFFCURVE",
"499 153 OFFCURVE",
"495 138 CURVE SMOOTH",
"492 128 OFFCURVE",
"486 113 OFFCURVE",
"476 95 CURVE",
"456 91 OFFCURVE",
"428 87 OFFCURVE",
"399 87 CURVE SMOOTH",
"277 87 LINE",
"275 119 OFFCURVE",
"271 164 OFFCURVE",
"271 193 CURVE SMOOTH",
"271 316 LINE",
"333 316 LINE SMOOTH",
"353 316 OFFCURVE",
"387 313 OFFCURVE",
"397 312 CURVE",
"406 250 LINE",
"470 256 LINE",
"470 256 OFFCURVE",
"467 333 OFFCURVE",
"467 383 CURVE SMOOTH",
"468 466 LINE",
"406 471 LINE",
"397 402 LINE",
"384 400 OFFCURVE",
"363 398 OFFCURVE",
"353 398 CURVE SMOOTH",
"271 398 LINE",
"271 512 LINE SMOOTH",
"271 544 OFFCURVE",
"274 592 OFFCURVE",
"276 623 CURVE",
"389 623 LINE SMOOTH",
"419 623 OFFCURVE",
"444 621 OFFCURVE",
"464 619 CURVE",
"477 583 LINE",
"483 537 LINE",
"555 542 LINE",
"548 692 LINE",
"529 710 LINE",
"499 708 OFFCURVE",
"434 705 OFFCURVE",
"414 705 CURVE SMOOTH",
"167 705 LINE SMOOTH",
"137 705 OFFCURVE",
"47 710 OFFCURVE",
"47 710 CURVE",
"42 635 LINE",
"107 623 LINE",
"109 607 OFFCURVE",
"116 562 OFFCURVE",
"116 542 CURVE SMOOTH",
"116 163 LINE SMOOTH",
"116 143 OFFCURVE",
"108 87 OFFCURVE",
"107 77 CURVE",
"41 65 LINE",
"46 -5 LINE",
"46 -5 OFFCURVE",
"166 0 OFFCURVE",
"196 0 CURVE SMOOTH",
"428 0 LINE",
"364 -32 OFFCURVE",
"321 -82 OFFCURVE",
"321 -138 CURVE SMOOTH",
"321 -198 OFFCURVE",
"366 -227 OFFCURVE",
"430 -227 CURVE SMOOTH",
"471 -227 OFFCURVE",
"507 -213 OFFCURVE",
"525 -204 CURVE",
"507 -156 LINE",
"496 -160 OFFCURVE",
"485 -163 OFFCURVE",
"475 -163 CURVE SMOOTH",
"450 -163 OFFCURVE",
"431 -148 OFFCURVE",
"431 -115 CURVE SMOOTH",
"431 -80 OFFCURVE",
"467 -38 OFFCURVE",
"543 -4 CURVE",
"562 14 LINE"
);
}
);
width = 622;
}
);
unicode = 0118;
},
{
glyphname = Eth;
lastChange = "2015-07-04 08:47:36 +0000";
layers = (
{
layerId = "A04BFA18-C442-4494-B826-EAC83DBBD8AC";
name = Regular;
paths = (
{
closed = 1;
nodes = (
"265 710 OFFCURVE",
"225 705 OFFCURVE",
"161 705 CURVE SMOOTH",
"141 705 OFFCURVE",
"79 708 OFFCURVE",
"46 710 CURVE",
"41 656 LINE",
"118 644 LINE",
"120 631 OFFCURVE",
"127 585 OFFCURVE",
"127 568 CURVE SMOOTH",
"127 380 LINE",
"40 380 LINE",
"40 337 LINE",
"127 337 LINE",
"127 137 LINE SMOOTH",
"127 120 OFFCURVE",
"120 74 OFFCURVE",
"118 61 CURVE",
"39 45 LINE",
"44 -5 LINE",
"44 -5 OFFCURVE",
"154 0 OFFCURVE",
"179 0 CURVE SMOOTH",
"229 0 OFFCURVE",
"281 -4 OFFCURVE",
"331 -4 CURVE SMOOTH",
"547 -4 OFFCURVE",
"676 141 OFFCURVE",
"676 352 CURVE SMOOTH",
"676 570 OFFCURVE",
"554 710 OFFCURVE",
"331 710 CURVE SMOOTH"
);
},
{
closed = 1;
nodes = (
"288 55 OFFCURVE",
"251 57 OFFCURVE",
"225 58 CURVE",
"224 62 OFFCURVE",
"218 119 OFFCURVE",
"218 167 CURVE SMOOTH",
"218 337 LINE",
"357 337 LINE",
"362 380 LINE",
"218 380 LINE",
"218 538 LINE SMOOTH",
"218 578 OFFCURVE",
"223 631 OFFCURVE",
"225 650 CURVE",
"332 650 LINE SMOOTH",
"499 650 OFFCURVE",
"577 514 OFFCURVE",
"577 352 CURVE SMOOTH",
"577 189 OFFCURVE",
"499 55 OFFCURVE",
"332 55 CURVE SMOOTH"
);
}
);
width = 726;
},
{
layerId = "6AAAC2AB-C0B6-4874-B22A-447CC2571A39";
name = Bold;
paths = (
{
closed = 1;
nodes = (
"317 710 OFFCURVE",
"228 705 OFFCURVE",
"178 705 CURVE SMOOTH",
"148 705 OFFCURVE",
"58 710 OFFCURVE",
"58 710 CURVE",
"53 635 LINE",
"118 623 LINE",
"120 607 OFFCURVE",
"127 562 OFFCURVE",
"127 542 CURVE SMOOTH",
"127 395 LINE",
"58 395 LINE",
"58 322 LINE",
"127 322 LINE",
"127 163 LINE SMOOTH",
"127 143 OFFCURVE",
"119 87 OFFCURVE",
"118 77 CURVE",
"52 65 LINE",
"57 -5 LINE",
"57 -5 OFFCURVE",
"177 0 OFFCURVE",
"207 0 CURVE SMOOTH",
"257 0 OFFCURVE",
"317 -5 OFFCURVE",
"367 -5 CURVE SMOOTH",
"599 -5 OFFCURVE",
"719 142 OFFCURVE",
"719 352 CURVE SMOOTH",
"719 562 OFFCURVE",
"599 710 OFFCURVE",
"367 710 CURVE SMOOTH"
);
},
{
closed = 1;
nodes = (
"331 78 OFFCURVE",
"305 79 OFFCURVE",
"289 79 CURVE",
"286 111 OFFCURVE",
"282 162 OFFCURVE",
"282 193 CURVE SMOOTH",
"282 322 LINE",
"375 322 LINE",
"380 395 LINE",
"282 395 LINE",
"282 512 LINE SMOOTH",
"282 544 OFFCURVE",
"285 594 OFFCURVE",
"287 625 CURVE",
"309 626 OFFCURVE",
"336 627 OFFCURVE",
"353 627 CURVE SMOOTH",
"500 627 OFFCURVE",
"552 501 OFFCURVE",
"552 354 CURVE SMOOTH",
"552 200 OFFCURVE",
"501 78 OFFCURVE",
"351 78 CURVE SMOOTH"
);
}
);
width = 769;
}
);
unicode = 00D0;
},
{
glyphname = Etilde;
lastChange = "2015-07-04 08:47:36 +0000";
layers = (
{
layerId = "A04BFA18-C442-4494-B826-EAC83DBBD8AC";
name = Regular;
paths = (
{
closed = 1;
nodes = (
"250 786 OFFCURVE",
"334 745 OFFCURVE",
"374 745 CURVE SMOOTH",
"414 745 OFFCURVE",
"457 843 OFFCURVE",
"457 843 CURVE",
"421 864 LINE",
"421 864 OFFCURVE",
"395 813 OFFCURVE",
"368 813 CURVE SMOOTH",
"328 813 OFFCURVE",
"243 854 OFFCURVE",
"203 854 CURVE SMOOTH",
"163 854 OFFCURVE",
"121 753 OFFCURVE",
"121 753 CURVE",
"157 732 LINE",
"157 732 OFFCURVE",
"183 786 OFFCURVE",
"210 786 CURVE SMOOTH"
);
},
{
closed = 1;
nodes = (
"545 165 LINE",
"490 170 LINE",
"488 154 OFFCURVE",
"478 118 OFFCURVE",
"475 103 CURVE SMOOTH",
"473 94 OFFCURVE",
"464 80 OFFCURVE",
"454 66 CURVE",
"432 62 OFFCURVE",
"398 57 OFFCURVE",
"367 57 CURVE SMOOTH",
"223 57 LINE",
"221 76 OFFCURVE",
"216 127 OFFCURVE",
"216 167 CURVE SMOOTH",
"216 338 LINE",
"312 338 LINE SMOOTH",
"332 338 OFFCURVE",
"383 333 OFFCURVE",
"392 332 CURVE",
"401 265 LINE",
"449 271 LINE",
"449 271 OFFCURVE",
"446 330 OFFCURVE",
"446 380 CURVE SMOOTH",
"447 464 LINE",
"401 469 LINE",
"392 400 LINE",
"387 399 OFFCURVE",
"352 394 OFFCURVE",
"332 394 CURVE SMOOTH",
"216 394 LINE",
"216 538 LINE SMOOTH",
"216 577 OFFCURVE",
"221 628 OFFCURVE",
"223 649 CURVE",
"354 649 LINE SMOOTH",
"382 649 OFFCURVE",
"413 646 OFFCURVE",
"435 644 CURVE",
"445 631 OFFCURVE",
"454 617 OFFCURVE",
"455 610 CURVE",
"459 595 OFFCURVE",
"464 572 OFFCURVE",
"466 556 CURVE",
"524 561 LINE",
"517 692 LINE",
"498 710 LINE",
"498 710 OFFCURVE",
"404 705 OFFCURVE",
"384 705 CURVE SMOOTH",
"159 705 LINE SMOOTH",
"139 705 OFFCURVE",
"44 710 OFFCURVE",
"44 710 CURVE",
"39 656 LINE",
"116 644 LINE",
"118 631 OFFCURVE",
"125 585 OFFCURVE",
"125 568 CURVE SMOOTH",
"125 137 LINE SMOOTH",
"125 120 OFFCURVE",
"118 74 OFFCURVE",
"116 61 CURVE",
"37 45 LINE",
"42 -5 LINE",
"42 -5 OFFCURVE",
"152 0 OFFCURVE",
"177 0 CURVE SMOOTH",
"397 0 LINE SMOOTH",
"417 0 OFFCURVE",
"511 -4 OFFCURVE",
"511 -4 CURVE",
"530 14 LINE"
);
}
);
width = 586;
},
{
layerId = "6AAAC2AB-C0B6-4874-B22A-447CC2571A39";
name = Bold;
paths = (
{
closed = 1;
nodes = (
"256 773 OFFCURVE",
"355 735 OFFCURVE",
"398 735 CURVE SMOOTH",
"441 735 OFFCURVE",
"485 836 OFFCURVE",
"485 836 CURVE",
"436 864 LINE",
"436 864 OFFCURVE",
"415 826 OFFCURVE",
"391 826 CURVE SMOOTH",
"349 826 OFFCURVE",
"248 864 OFFCURVE",
"206 864 CURVE SMOOTH",
"163 864 OFFCURVE",
"117 759 OFFCURVE",
"117 759 CURVE",
"164 731 LINE",
"164 731 OFFCURVE",
"189 773 OFFCURVE",
"213 773 CURVE SMOOTH"
);
},
{
closed = 1;
nodes = (
"577 190 LINE",
"507 195 LINE",
"505 179 OFFCURVE",
"499 153 OFFCURVE",
"495 138 CURVE SMOOTH",
"492 128 OFFCURVE",
"486 113 OFFCURVE",
"476 95 CURVE",
"456 91 OFFCURVE",
"428 87 OFFCURVE",
"399 87 CURVE SMOOTH",
"277 87 LINE",
"275 119 OFFCURVE",
"271 164 OFFCURVE",
"271 193 CURVE SMOOTH",
"271 316 LINE",
"333 316 LINE SMOOTH",
"353 316 OFFCURVE",
"387 313 OFFCURVE",
"397 312 CURVE",
"406 250 LINE",
"470 256 LINE",
"470 256 OFFCURVE",
"467 333 OFFCURVE",
"467 383 CURVE SMOOTH",
"468 466 LINE",
"406 471 LINE",
"397 402 LINE",
"384 400 OFFCURVE",
"363 398 OFFCURVE",
"353 398 CURVE SMOOTH",
"271 398 LINE",
"271 512 LINE SMOOTH",
"271 544 OFFCURVE",
"274 592 OFFCURVE",
"276 623 CURVE",
"389 623 LINE SMOOTH",
"419 623 OFFCURVE",
"444 621 OFFCURVE",
"464 619 CURVE",
"477 583 LINE",
"483 537 LINE",
"555 542 LINE",
"548 692 LINE",
"529 710 LINE",
"499 708 OFFCURVE",
"434 705 OFFCURVE",
"414 705 CURVE SMOOTH",
"167 705 LINE SMOOTH",
"137 705 OFFCURVE",
"47 710 OFFCURVE",
"47 710 CURVE",
"42 635 LINE",
"107 623 LINE",
"109 607 OFFCURVE",
"116 562 OFFCURVE",
"116 542 CURVE SMOOTH",
"116 163 LINE SMOOTH",
"116 143 OFFCURVE",
"108 87 OFFCURVE",
"107 77 CURVE",
"41 65 LINE",
"46 -5 LINE",
"46 -5 OFFCURVE",
"166 0 OFFCURVE",
"196 0 CURVE SMOOTH",
"429 0 LINE SMOOTH",
"449 0 OFFCURVE",
"543 -4 OFFCURVE",
"543 -4 CURVE",
"562 14 LINE"
);
}
);
width = 622;
}
);
leftKerningGroup = B;
rightKerningGroup = AE;
unicode = 1EBC;
},
{
glyphname = F;
lastChange = "2015-07-04 08:47:36 +0000";
layers = (
{
layerId = "A04BFA18-C442-4494-B826-EAC83DBBD8AC";
name = Regular;
paths = (
{
closed = 1;
nodes = (
"524 561 LINE",
"517 692 LINE",
"498 710 LINE",
"498 710 OFFCURVE",
"404 705 OFFCURVE",
"384 705 CURVE SMOOTH",
"159 705 LINE SMOOTH",
"139 705 OFFCURVE",
"44 710 OFFCURVE",
"44 710 CURVE",
"39 656 LINE",
"116 644 LINE",
"118 631 OFFCURVE",
"125 585 OFFCURVE",
"125 568 CURVE SMOOTH",
"125 137 LINE SMOOTH",
"125 120 OFFCURVE",
"118 74 OFFCURVE",
"116 61 CURVE",
"37 45 LINE",
"42 -5 LINE",
"42 -5 OFFCURVE",
"152 0 OFFCURVE",
"177 0 CURVE SMOOTH",
"316 0 LINE",
"323 54 LINE",
"223 61 LINE",
"221 75 OFFCURVE",
"216 125 OFFCURVE",
"216 167 CURVE SMOOTH",
"216 330 LINE",
"312 330 LINE SMOOTH",
"332 330 OFFCURVE",
"383 325 OFFCURVE",
"392 324 CURVE",
"401 257 LINE",
"449 263 LINE",
"449 263 OFFCURVE",
"446 322 OFFCURVE",
"446 372 CURVE SMOOTH",
"447 456 LINE",
"401 461 LINE",
"392 392 LINE",
"387 391 OFFCURVE",
"352 386 OFFCURVE",
"332 386 CURVE SMOOTH",
"216 386 LINE",
"216 538 LINE SMOOTH",
"216 577 OFFCURVE",
"221 628 OFFCURVE",
"223 649 CURVE",
"354 649 LINE SMOOTH",
"382 649 OFFCURVE",
"413 646 OFFCURVE",
"435 644 CURVE",
"445 631 OFFCURVE",
"454 617 OFFCURVE",
"455 610 CURVE",
"459 595 OFFCURVE",
"464 572 OFFCURVE",
"466 556 CURVE"
);
}
);
width = 551;
},
{
layerId = "6AAAC2AB-C0B6-4874-B22A-447CC2571A39";
name = Bold;
paths = (
{
closed = 1;
nodes = (
"555 541 LINE",
"548 692 LINE",
"529 710 LINE",
"529 710 OFFCURVE",
"435 705 OFFCURVE",
"415 705 CURVE SMOOTH",
"167 705 LINE SMOOTH",
"137 705 OFFCURVE",
"47 710 OFFCURVE",
"47 710 CURVE",
"42 635 LINE",
"107 623 LINE",
"109 607 OFFCURVE",
"116 562 OFFCURVE",
"116 542 CURVE SMOOTH",
"116 163 LINE SMOOTH",
"116 143 OFFCURVE",
"108 87 OFFCURVE",
"107 77 CURVE",
"41 65 LINE",
"46 -5 LINE",
"46 -5 OFFCURVE",
"166 0 OFFCURVE",
"196 0 CURVE SMOOTH",
"370 0 LINE",
"375 71 LINE",
"280 77 LINE",
"278 91 OFFCURVE",
"271 153 OFFCURVE",
"271 193 CURVE SMOOTH",
"271 305 LINE",
"333 305 LINE SMOOTH",
"353 305 OFFCURVE",
"387 302 OFFCURVE",
"397 301 CURVE",
"406 239 LINE",
"470 245 LINE",
"470 245 OFFCURVE",
"467 322 OFFCURVE",
"467 372 CURVE SMOOTH",
"468 455 LINE",
"406 460 LINE",
"397 391 LINE",
"384 389 OFFCURVE",
"363 387 OFFCURVE",
"353 387 CURVE SMOOTH",
"271 387 LINE",
"271 512 LINE SMOOTH",
"271 544 OFFCURVE",
"274 592 OFFCURVE",
"276 623 CURVE",
"385 623 LINE SMOOTH",
"415 623 OFFCURVE",
"445 620 OFFCURVE",
"465 618 CURVE",
"469 608 OFFCURVE",
"473 599 OFFCURVE",
"474 595 CURVE SMOOTH",
"478 580 OFFCURVE",
"481 552 OFFCURVE",
"483 536 CURVE"
);
}
);
width = 582;
}
);
leftKerningGroup = B;
rightKerningGroup = F;
unicode = 0046;
},
{
glyphname = G;
lastChange = "2015-07-04 08:47:36 +0000";
layers = (
{
layerId = "A04BFA18-C442-4494-B826-EAC83DBBD8AC";
name = Regular;
paths = (
{
closed = 1;
nodes = (
"509 619 OFFCURVE",
"515 598 OFFCURVE",
"515 589 CURVE SMOOTH",
"515 542 LINE",
"574 538 LINE",
"584 686 LINE",
"517 702 OFFCURVE",
"451 720 OFFCURVE",
"364 720 CURVE SMOOTH",
"143 720 OFFCURVE",
"30 570 OFFCURVE",
"30 352 CURVE SMOOTH",
"30 134 OFFCURVE",
"143 -15 OFFCURVE",
"364 -15 CURVE SMOOTH",
"450 -15 OFFCURVE",
"526 3 OFFCURVE",
"593 19 CURVE",
"593 166 LINE SMOOTH",
"593 216 OFFCURVE",
"602 319 OFFCURVE",
"602 319 CURVE",
"584 336 LINE",
"584 336 OFFCURVE",
"533 333 OFFCURVE",
"513 333 CURVE SMOOTH",
"402 333 LINE",
"397 275 LINE",
"503 267 LINE",
"503 267 OFFCURVE",
"513 216 OFFCURVE",
"513 196 CURVE SMOOTH",
"513 128 LINE SMOOTH",
"513 117 OFFCURVE",
"507 89 OFFCURVE",
"501 63 CURVE",
"456 51 OFFCURVE",
"401 43 OFFCURVE",
"361 43 CURVE SMOOTH",
"206 43 OFFCURVE",
"131 180 OFFCURVE",
"131 353 CURVE SMOOTH",
"131 526 OFFCURVE",
"206 662 OFFCURVE",
"361 662 CURVE SMOOTH",
"404 662 OFFCURVE",
"459 652 OFFCURVE",
"503 639 CURVE"
);
}
);
width = 665;
},
{
layerId = "6AAAC2AB-C0B6-4874-B22A-447CC2571A39";
name = Bold;
paths = (
{
closed = 1;
nodes = (
"457 627 OFFCURVE",
"501 622 OFFCURVE",
"542 613 CURVE",
"547 600 OFFCURVE",
"554 578 OFFCURVE",
"554 572 CURVE",
"557 511 LINE",
"634 507 LINE",
"646 686 LINE",
"581 704 OFFCURVE",
"504 720 OFFCURVE",
"418 720 CURVE SMOOTH",
"175 720 OFFCURVE",
"51 570 OFFCURVE",
"51 352 CURVE SMOOTH",
"51 134 OFFCURVE",
"175 -15 OFFCURVE",
"418 -15 CURVE SMOOTH",
"508 -15 OFFCURVE",
"587 3 OFFCURVE",
"656 19 CURVE",
"656 196 LINE SMOOTH",
"656 246 OFFCURVE",
"665 341 OFFCURVE",
"665 341 CURVE",
"637 366 LINE",
"637 366 OFFCURVE",
"555 363 OFFCURVE",
"522 363 CURVE SMOOTH",
"411 363 LINE",
"406 265 LINE",
"512 257 LINE",
"512 257 OFFCURVE",
"522 216 OFFCURVE",
"522 196 CURVE SMOOTH",
"522 128 LINE SMOOTH",
"522 120 OFFCURVE",
"519 104 OFFCURVE",
"515 86 CURVE",
"482 81 OFFCURVE",
"451 78 OFFCURVE",
"417 78 CURVE SMOOTH",
"283 78 OFFCURVE",
"231 200 OFFCURVE",
"231 353 CURVE SMOOTH",
"231 506 OFFCURVE",
"284 627 OFFCURVE",
"418 627 CURVE SMOOTH"
);
}
);
width = 733;
}
);
leftKerningGroup = C;
rightKerningGroup = G;
unicode = 0047;
},
{
glyphname = Gbreve;
lastChange = "2015-07-04 08:47:36 +0000";
layers = (
{
layerId = "A04BFA18-C442-4494-B826-EAC83DBBD8AC";
name = Regular;
paths = (
{
closed = 1;
nodes = (
"241 850 LINE",
"259 771 OFFCURVE",
"318 731 OFFCURVE",
"378 731 CURVE SMOOTH",
"438 731 OFFCURVE",
"498 771 OFFCURVE",
"515 850 CURVE",
"477 862 LINE",
"456 818 OFFCURVE",
"417 795 OFFCURVE",
"378 795 CURVE SMOOTH",
"340 795 OFFCURVE",
"301 818 OFFCURVE",
"279 862 CURVE"
);
},
{
closed = 1;
nodes = (
"509 619 OFFCURVE",
"515 598 OFFCURVE",
"515 589 CURVE SMOOTH",
"515 542 LINE",
"574 538 LINE",
"584 686 LINE",
"517 702 OFFCURVE",
"451 720 OFFCURVE",
"364 720 CURVE SMOOTH",
"143 720 OFFCURVE",
"30 570 OFFCURVE",
"30 352 CURVE SMOOTH",
"30 134 OFFCURVE",
"143 -15 OFFCURVE",
"364 -15 CURVE SMOOTH",
"450 -15 OFFCURVE",
"526 3 OFFCURVE",
"593 19 CURVE",
"593 166 LINE SMOOTH",
"593 216 OFFCURVE",
"602 319 OFFCURVE",
"602 319 CURVE",
"584 336 LINE",
"584 336 OFFCURVE",
"533 333 OFFCURVE",
"513 333 CURVE SMOOTH",
"402 333 LINE",
"397 275 LINE",
"503 267 LINE",
"503 267 OFFCURVE",
"513 216 OFFCURVE",
"513 196 CURVE SMOOTH",
"513 128 LINE SMOOTH",
"513 117 OFFCURVE",
"507 89 OFFCURVE",
"501 63 CURVE",
"456 51 OFFCURVE",
"401 43 OFFCURVE",
"361 43 CURVE SMOOTH",
"206 43 OFFCURVE",
"131 180 OFFCURVE",
"131 353 CURVE SMOOTH",
"131 526 OFFCURVE",
"206 662 OFFCURVE",
"361 662 CURVE SMOOTH",
"404 662 OFFCURVE",
"459 652 OFFCURVE",
"503 639 CURVE"
);
}
);
width = 665;
},
{
layerId = "6AAAC2AB-C0B6-4874-B22A-447CC2571A39";
name = Bold;
paths = (
{
closed = 1;
nodes = (
"308 891 LINE",
"326 842 OFFCURVE",
"373 818 OFFCURVE",
"420 818 CURVE SMOOTH",
"467 818 OFFCURVE",
"515 842 OFFCURVE",
"532 891 CURVE",
"583 871 LINE",
"561 781 OFFCURVE",
"490 736 OFFCURVE",
"420 736 CURVE SMOOTH",
"350 736 OFFCURVE",
"280 781 OFFCURVE",
"257 871 CURVE"
);
},
{
closed = 1;
nodes = (
"457 627 OFFCURVE",
"501 622 OFFCURVE",
"542 613 CURVE",
"547 600 OFFCURVE",
"554 578 OFFCURVE",
"554 572 CURVE",
"557 511 LINE",
"634 507 LINE",
"646 686 LINE",
"581 704 OFFCURVE",
"504 720 OFFCURVE",
"418 720 CURVE SMOOTH",
"175 720 OFFCURVE",
"51 570 OFFCURVE",
"51 352 CURVE SMOOTH",
"51 134 OFFCURVE",
"175 -15 OFFCURVE",
"418 -15 CURVE SMOOTH",
"508 -15 OFFCURVE",
"587 3 OFFCURVE",
"656 19 CURVE",
"656 196 LINE SMOOTH",
"656 246 OFFCURVE",
"665 341 OFFCURVE",
"665 341 CURVE",
"637 366 LINE",
"637 366 OFFCURVE",
"555 363 OFFCURVE",
"522 363 CURVE SMOOTH",
"411 363 LINE",
"406 265 LINE",
"512 257 LINE",
"512 257 OFFCURVE",
"522 216 OFFCURVE",
"522 196 CURVE SMOOTH",
"522 128 LINE SMOOTH",
"522 120 OFFCURVE",
"519 104 OFFCURVE",
"515 86 CURVE",
"482 81 OFFCURVE",
"451 78 OFFCURVE",
"417 78 CURVE SMOOTH",
"283 78 OFFCURVE",
"231 200 OFFCURVE",
"231 353 CURVE SMOOTH",
"231 506 OFFCURVE",
"284 627 OFFCURVE",
"418 627 CURVE SMOOTH"
);
}
);
width = 733;
}
);
unicode = 011E;
},
{
glyphname = Gdotaccent;
lastChange = "2015-07-04 08:47:36 +0000";
layers = (
{
layerId = "A04BFA18-C442-4494-B826-EAC83DBBD8AC";
name = Regular;
paths = (
{
closed = 1;
nodes = (
"340 865 OFFCURVE",
"319 838 OFFCURVE",
"319 800 CURVE SMOOTH",
"319 762 OFFCURVE",
"340 736 OFFCURVE",
"378 736 CURVE SMOOTH",
"416 736 OFFCURVE",
"437 762 OFFCURVE",
"437 800 CURVE SMOOTH",
"437 841 OFFCURVE",
"415 865 OFFCURVE",
"378 865 CURVE SMOOTH"
);
},
{
closed = 1;
nodes = (
"509 619 OFFCURVE",
"515 598 OFFCURVE",
"515 589 CURVE SMOOTH",
"515 542 LINE",
"574 538 LINE",
"584 686 LINE",
"517 702 OFFCURVE",
"451 720 OFFCURVE",
"364 720 CURVE SMOOTH",
"143 720 OFFCURVE",
"30 570 OFFCURVE",
"30 352 CURVE SMOOTH",
"30 134 OFFCURVE",
"143 -15 OFFCURVE",
"364 -15 CURVE SMOOTH",
"450 -15 OFFCURVE",
"526 3 OFFCURVE",
"593 19 CURVE",
"593 166 LINE SMOOTH",
"593 216 OFFCURVE",
"602 319 OFFCURVE",
"602 319 CURVE",
"584 336 LINE",
"584 336 OFFCURVE",
"533 333 OFFCURVE",
"513 333 CURVE SMOOTH",
"402 333 LINE",
"397 275 LINE",
"503 267 LINE",
"503 267 OFFCURVE",
"513 216 OFFCURVE",
"513 196 CURVE SMOOTH",
"513 128 LINE SMOOTH",
"513 117 OFFCURVE",
"507 89 OFFCURVE",
"501 63 CURVE",
"456 51 OFFCURVE",
"401 43 OFFCURVE",
"361 43 CURVE SMOOTH",
"206 43 OFFCURVE",
"131 180 OFFCURVE",
"131 353 CURVE SMOOTH",
"131 526 OFFCURVE",
"206 662 OFFCURVE",
"361 662 CURVE SMOOTH",
"404 662 OFFCURVE",
"459 652 OFFCURVE",
"503 639 CURVE"
);
}
);
width = 665;
},
{
layerId = "6AAAC2AB-C0B6-4874-B22A-447CC2571A39";
name = Bold;
paths = (
{
closed = 1;
nodes = (
"368 889 OFFCURVE",
"341 857 OFFCURVE",
"341 812 CURVE SMOOTH",
"341 767 OFFCURVE",
"368 736 OFFCURVE",
"417 736 CURVE SMOOTH",
"466 736 OFFCURVE",
"493 767 OFFCURVE",
"493 812 CURVE SMOOTH",
"493 860 OFFCURVE",
"464 889 OFFCURVE",
"417 889 CURVE SMOOTH"
);
},
{
closed = 1;
nodes = (
"457 627 OFFCURVE",
"501 622 OFFCURVE",
"542 613 CURVE",
"547 600 OFFCURVE",
"554 578 OFFCURVE",
"554 572 CURVE",
"557 511 LINE",
"634 507 LINE",
"646 686 LINE",
"581 704 OFFCURVE",
"504 720 OFFCURVE",
"418 720 CURVE SMOOTH",
"175 720 OFFCURVE",
"51 570 OFFCURVE",
"51 352 CURVE SMOOTH",
"51 134 OFFCURVE",
"175 -15 OFFCURVE",
"418 -15 CURVE SMOOTH",
"508 -15 OFFCURVE",
"587 3 OFFCURVE",
"656 19 CURVE",
"656 196 LINE SMOOTH",
"656 246 OFFCURVE",
"665 341 OFFCURVE",
"665 341 CURVE",
"637 366 LINE",
"637 366 OFFCURVE",
"555 363 OFFCURVE",
"522 363 CURVE SMOOTH",
"411 363 LINE",
"406 265 LINE",
"512 257 LINE",
"512 257 OFFCURVE",
"522 216 OFFCURVE",
"522 196 CURVE SMOOTH",
"522 128 LINE SMOOTH",
"522 120 OFFCURVE",
"519 104 OFFCURVE",
"515 86 CURVE",
"482 81 OFFCURVE",
"451 78 OFFCURVE",
"417 78 CURVE SMOOTH",
"283 78 OFFCURVE",
"231 200 OFFCURVE",
"231 353 CURVE SMOOTH",
"231 506 OFFCURVE",
"284 627 OFFCURVE",
"418 627 CURVE SMOOTH"
);
}
);
width = 733;
}
);
leftKerningGroup = C;
rightKerningGroup = G;
unicode = 0120;
},
{
glyphname = H;
lastChange = "2015-07-04 08:47:36 +0000";
layers = (
{
layerId = "A04BFA18-C442-4494-B826-EAC83DBBD8AC";
name = Regular;
paths = (
{
closed = 1;
nodes = (
"725 54 LINE",
"635 61 LINE",
"633 75 OFFCURVE",
"628 125 OFFCURVE",
"628 167 CURVE SMOOTH",
"628 538 LINE SMOOTH",
"628 580 OFFCURVE",
"633 630 OFFCURVE",
"635 644 CURVE",
"713 651 LINE",
"709 710 LINE",
"709 710 OFFCURVE",
"631 705 OFFCURVE",
"571 705 CURVE SMOOTH",
"551 705 OFFCURVE",
"456 710 OFFCURVE",
"456 710 CURVE",
"451 656 LINE",
"528 644 LINE",
"530 631 OFFCURVE",
"537 585 OFFCURVE",
"537 568 CURVE SMOOTH",
"537 383 LINE",
"206 378 LINE",
"206 538 LINE SMOOTH",
"206 580 OFFCURVE",
"211 630 OFFCURVE",
"213 644 CURVE",
"291 651 LINE",
"287 710 LINE",
"287 710 OFFCURVE",
"209 705 OFFCURVE",
"149 705 CURVE SMOOTH",
"129 705 OFFCURVE",
"34 710 OFFCURVE",
"34 710 CURVE",
"29 656 LINE",
"106 644 LINE",
"108 631 OFFCURVE",
"115 585 OFFCURVE",
"115 568 CURVE SMOOTH",
"115 137 LINE SMOOTH",
"115 120 OFFCURVE",
"108 74 OFFCURVE",
"106 61 CURVE",
"27 45 LINE",
"32 -5 LINE",
"32 -5 OFFCURVE",
"142 0 OFFCURVE",
"167 0 CURVE SMOOTH",
"296 0 LINE",
"303 54 LINE",
"213 61 LINE",
"211 75 OFFCURVE",
"206 125 OFFCURVE",
"206 167 CURVE SMOOTH",
"206 327 LINE",
"537 327 LINE",
"537 137 LINE SMOOTH",
"537 120 OFFCURVE",
"530 74 OFFCURVE",
"528 61 CURVE",
"449 45 LINE",
"454 -5 LINE",
"454 -5 OFFCURVE",
"564 0 OFFCURVE",
"589 0 CURVE SMOOTH",
"718 0 LINE"
);
}
);
width = 745;
},
{
layerId = "6AAAC2AB-C0B6-4874-B22A-447CC2571A39";
name = Bold;
paths = (
{
closed = 1;
nodes = (
"703 512 LINE SMOOTH",
"703 552 OFFCURVE",
"709 608 OFFCURVE",
"712 623 CURVE",
"778 629 LINE",
"773 710 LINE",
"773 710 OFFCURVE",
"679 705 OFFCURVE",
"599 705 CURVE SMOOTH",
"569 705 OFFCURVE",
"479 710 OFFCURVE",
"479 710 CURVE",
"474 635 LINE",
"539 623 LINE",
"541 607 OFFCURVE",
"548 562 OFFCURVE",
"548 542 CURVE SMOOTH",
"548 393 LINE",
"271 389 LINE",
"271 512 LINE SMOOTH",
"271 552 OFFCURVE",
"277 608 OFFCURVE",
"280 623 CURVE",
"346 629 LINE",
"341 710 LINE",
"341 710 OFFCURVE",
"247 705 OFFCURVE",
"167 705 CURVE SMOOTH",
"137 705 OFFCURVE",
"47 710 OFFCURVE",
"47 710 CURVE",
"42 635 LINE",
"107 623 LINE",
"109 607 OFFCURVE",
"116 562 OFFCURVE",
"116 542 CURVE SMOOTH",
"116 163 LINE SMOOTH",
"116 143 OFFCURVE",
"108 87 OFFCURVE",
"107 77 CURVE",
"41 65 LINE",
"46 -5 LINE",
"46 -5 OFFCURVE",
"166 0 OFFCURVE",
"196 0 CURVE SMOOTH",
"340 0 LINE",
"345 71 LINE",
"280 77 LINE",
"278 91 OFFCURVE",
"271 153 OFFCURVE",
"271 193 CURVE SMOOTH",
"271 302 LINE",
"548 302 LINE",
"548 163 LINE SMOOTH",
"548 143 OFFCURVE",
"540 87 OFFCURVE",
"539 77 CURVE",
"473 65 LINE",
"478 -5 LINE",
"478 -5 OFFCURVE",
"598 0 OFFCURVE",
"628 0 CURVE SMOOTH",
"772 0 LINE",
"777 71 LINE",
"712 77 LINE",
"710 91 OFFCURVE",
"703 153 OFFCURVE",
"703 193 CURVE SMOOTH"
);
}
);
width = 820;
}
);
leftKerningGroup = B;
unicode = 0048;
},
{
glyphname = Hbar;
lastChange = "2015-07-04 08:47:36 +0000";
layers = (
{
layerId = "A04BFA18-C442-4494-B826-EAC83DBBD8AC";
name = Regular;
paths = (
{
closed = 1;
nodes = (
"725 54 LINE",
"635 61 LINE",
"633 75 OFFCURVE",
"628 125 OFFCURVE",
"628 167 CURVE SMOOTH",
"628 498 LINE",
"694 498 LINE",
"699 542 LINE",
"628 542 LINE",
"628 583 OFFCURVE",
"633 630 OFFCURVE",
"635 644 CURVE",
"713 651 LINE",
"709 710 LINE",
"709 710 OFFCURVE",
"631 705 OFFCURVE",
"571 705 CURVE SMOOTH",
"551 705 OFFCURVE",
"456 710 OFFCURVE",
"456 710 CURVE",
"451 656 LINE",
"528 644 LINE",
"530 631 OFFCURVE",
"537 585 OFFCURVE",
"537 568 CURVE SMOOTH",
"537 542 LINE",
"206 542 LINE",
"206 583 OFFCURVE",
"211 630 OFFCURVE",
"213 644 CURVE",
"291 651 LINE",
"287 710 LINE",
"287 710 OFFCURVE",
"209 705 OFFCURVE",
"149 705 CURVE SMOOTH",
"129 705 OFFCURVE",
"34 710 OFFCURVE",
"34 710 CURVE",
"29 656 LINE",
"106 644 LINE",
"108 631 OFFCURVE",
"115 585 OFFCURVE",
"115 568 CURVE SMOOTH",
"115 542 LINE",
"45 542 LINE",
"45 498 LINE",
"115 498 LINE",
"115 137 LINE SMOOTH",
"115 120 OFFCURVE",
"108 74 OFFCURVE",
"106 61 CURVE",
"27 45 LINE",
"32 -5 LINE",
"32 -5 OFFCURVE",
"142 0 OFFCURVE",
"167 0 CURVE SMOOTH",
"296 0 LINE",
"303 54 LINE",
"213 61 LINE",
"211 75 OFFCURVE",
"206 125 OFFCURVE",
"206 167 CURVE SMOOTH",
"206 327 LINE",
"537 327 LINE",
"537 137 LINE SMOOTH",
"537 120 OFFCURVE",
"530 74 OFFCURVE",
"528 61 CURVE",
"449 45 LINE",
"454 -5 LINE",
"454 -5 OFFCURVE",
"564 0 OFFCURVE",
"589 0 CURVE SMOOTH",
"718 0 LINE"
);
},
{
closed = 1;
nodes = (
"537 383 LINE",
"206 378 LINE",
"206 498 LINE",
"537 498 LINE"
);
}
);
width = 745;
},
{
layerId = "6AAAC2AB-C0B6-4874-B22A-447CC2571A39";
name = Bold;
paths = (
{
closed = 1;
nodes = (
"703 488 LINE",
"775 488 LINE",
"785 552 LINE",
"704 552 LINE",
"706 583 OFFCURVE",
"710 613 OFFCURVE",
"712 623 CURVE",
"778 629 LINE",
"773 710 LINE",
"773 710 OFFCURVE",
"679 705 OFFCURVE",
"599 705 CURVE SMOOTH",
"569 705 OFFCURVE",
"479 710 OFFCURVE",
"479 710 CURVE",
"474 635 LINE",
"539 623 LINE",
"541 609 OFFCURVE",
"546 574 OFFCURVE",
"548 552 CURVE",
"272 552 LINE",
"274 583 OFFCURVE",
"278 613 OFFCURVE",
"280 623 CURVE",
"346 629 LINE",
"341 710 LINE",
"341 710 OFFCURVE",
"247 705 OFFCURVE",
"167 705 CURVE SMOOTH",
"137 705 OFFCURVE",
"47 710 OFFCURVE",
"47 710 CURVE",
"42 635 LINE",
"107 623 LINE",
"109 609 OFFCURVE",
"114 574 OFFCURVE",
"116 552 CURVE",
"43 552 LINE",
"43 488 LINE",
"116 488 LINE",
"116 163 LINE SMOOTH",
"116 143 OFFCURVE",
"108 87 OFFCURVE",
"107 77 CURVE",
"41 65 LINE",
"46 -5 LINE",
"46 -5 OFFCURVE",
"166 0 OFFCURVE",
"196 0 CURVE SMOOTH",
"340 0 LINE",
"345 71 LINE",
"280 77 LINE",
"278 91 OFFCURVE",
"271 153 OFFCURVE",
"271 193 CURVE SMOOTH",
"271 302 LINE",
"548 302 LINE",
"548 163 LINE SMOOTH",
"548 143 OFFCURVE",
"540 87 OFFCURVE",
"539 77 CURVE",
"473 65 LINE",
"478 -5 LINE",
"478 -5 OFFCURVE",
"598 0 OFFCURVE",
"628 0 CURVE SMOOTH",
"772 0 LINE",
"777 71 LINE",
"712 77 LINE",
"710 91 OFFCURVE",
"703 153 OFFCURVE",
"703 193 CURVE SMOOTH"
);
},
{
closed = 1;
nodes = (
"548 393 LINE",
"271 389 LINE",
"271 488 LINE",
"548 488 LINE"
);
}
);
width = 820;
}
);
leftKerningGroup = B;
unicode = 0126;
},
{
glyphname = I;
lastChange = "2015-07-04 08:47:36 +0000";
layers = (
{
layerId = "A04BFA18-C442-4494-B826-EAC83DBBD8AC";
name = Regular;
paths = (
{
closed = 1;
nodes = (
"301 651 LINE",
"297 710 LINE",
"297 710 OFFCURVE",
"219 705 OFFCURVE",
"159 705 CURVE SMOOTH",
"139 705 OFFCURVE",
"44 710 OFFCURVE",
"44 710 CURVE",
"39 656 LINE",
"116 644 LINE",
"118 631 OFFCURVE",
"125 585 OFFCURVE",
"125 568 CURVE SMOOTH",
"125 137 LINE SMOOTH",
"125 120 OFFCURVE",
"118 74 OFFCURVE",
"116 61 CURVE",
"37 45 LINE",
"42 -5 LINE",
"42 -5 OFFCURVE",
"152 0 OFFCURVE",
"177 0 CURVE SMOOTH",
"307 0 LINE",
"313 54 LINE",
"223 61 LINE",
"221 75 OFFCURVE",
"216 125 OFFCURVE",
"216 167 CURVE SMOOTH",
"216 538 LINE SMOOTH",
"216 580 OFFCURVE",
"221 630 OFFCURVE",
"223 644 CURVE"
);
}
);
width = 343;
},
{
layerId = "6AAAC2AB-C0B6-4874-B22A-447CC2571A39";
name = Bold;
paths = (
{
closed = 1;
nodes = (
"346 629 LINE",
"341 710 LINE",
"341 710 OFFCURVE",
"247 705 OFFCURVE",
"167 705 CURVE SMOOTH",
"137 705 OFFCURVE",
"47 710 OFFCURVE",
"47 710 CURVE",
"42 635 LINE",
"107 623 LINE",
"109 607 OFFCURVE",
"116 562 OFFCURVE",
"116 542 CURVE SMOOTH",
"116 163 LINE SMOOTH",
"116 143 OFFCURVE",
"108 87 OFFCURVE",
"107 77 CURVE",
"41 65 LINE",
"46 -5 LINE",
"46 -5 OFFCURVE",
"166 0 OFFCURVE",
"196 0 CURVE SMOOTH",
"340 0 LINE",
"345 71 LINE",
"280 77 LINE",
"278 91 OFFCURVE",
"271 153 OFFCURVE",
"271 193 CURVE SMOOTH",
"271 512 LINE SMOOTH",
"271 552 OFFCURVE",
"277 608 OFFCURVE",
"280 623 CURVE"
);
}
);
width = 388;
}
);
leftKerningGroup = B;
unicode = 0049;
},
{
glyphname = IJ;
lastChange = "2015-07-04 08:47:36 +0000";
layers = (
{
layerId = "A04BFA18-C442-4494-B826-EAC83DBBD8AC";
name = Regular;
paths = (
{
closed = 1;
nodes = (
"564 651 LINE",
"560 710 LINE",
"560 710 OFFCURVE",
"482 705 OFFCURVE",
"422 705 CURVE SMOOTH",
"150 705 LINE SMOOTH",
"130 705 OFFCURVE",
"34 710 OFFCURVE",
"34 710 CURVE",
"29 656 LINE",
"106 644 LINE",
"108 631 OFFCURVE",
"115 585 OFFCURVE",
"115 568 CURVE SMOOTH",
"115 137 LINE SMOOTH",
"115 120 OFFCURVE",
"108 74 OFFCURVE",
"106 61 CURVE",
"27 45 LINE",
"32 -5 LINE",
"32 -5 OFFCURVE",
"130 0 OFFCURVE",
"150 0 CURVE SMOOTH",
"297 0 LINE",
"303 54 LINE",
"213 61 LINE",
"211 75 OFFCURVE",
"206 125 OFFCURVE",
"206 167 CURVE SMOOTH",
"206 538 LINE SMOOTH",
"206 580 OFFCURVE",
"211 630 OFFCURVE",
"213 644 CURVE",
"296 656 LINE",
"379 644 LINE",
"381 631 OFFCURVE",
"388 585 OFFCURVE",
"388 568 CURVE SMOOTH",
"388 11 LINE SMOOTH",
"388 -9 OFFCURVE",
"308 -178 OFFCURVE",
"308 -178 CURVE",
"342 -200 LINE",
"389 -144 OFFCURVE",
"479 -37 OFFCURVE",
"479 -10 CURVE SMOOTH",
"479 538 LINE SMOOTH",
"479 580 OFFCURVE",
"484 630 OFFCURVE",
"486 644 CURVE"
);
}
);
width = 585;
},
{
layerId = "6AAAC2AB-C0B6-4874-B22A-447CC2571A39";
name = Bold;
paths = (
{
closed = 1;
nodes = (
"684 629 LINE",
"679 710 LINE",
"679 710 OFFCURVE",
"585 705 OFFCURVE",
"505 705 CURVE SMOOTH",
"363 705 LINE",
"165 705 LINE SMOOTH",
"118 705 OFFCURVE",
"47 710 OFFCURVE",
"47 710 CURVE",
"42 635 LINE",
"107 623 LINE",
"110 604 OFFCURVE",
"116 562 OFFCURVE",
"116 512 CURVE SMOOTH",
"116 163 LINE SMOOTH",
"116 143 OFFCURVE",
"109 91 OFFCURVE",
"107 77 CURVE",
"41 65 LINE",
"46 -5 LINE",
"46 -5 OFFCURVE",
"166 0 OFFCURVE",
"196 0 CURVE SMOOTH",
"340 0 LINE",
"345 71 LINE",
"280 77 LINE",
"279 86 OFFCURVE",
"271 143 OFFCURVE",
"271 193 CURVE SMOOTH",
"271 542 LINE SMOOTH",
"271 562 OFFCURVE",
"277 609 OFFCURVE",
"280 623 CURVE",
"363 632 LINE",
"445 623 LINE",
"448 608 OFFCURVE",
"454 562 OFFCURVE",
"454 512 CURVE SMOOTH",
"454 11 LINE SMOOTH",
"454 -9 OFFCURVE",
"378 -169 OFFCURVE",
"378 -169 CURVE",
"432 -200 LINE",
"528 -111 OFFCURVE",
"609 -23 OFFCURVE",
"609 10 CURVE SMOOTH",
"609 542 LINE SMOOTH",
"609 562 OFFCURVE",
"616 614 OFFCURVE",
"618 623 CURVE"
);
}
);
width = 716;
}
);
leftKerningGroup = B;
rightKerningGroup = IJ;
unicode = 0132;
},
{
glyphname = Iacute;
lastChange = "2015-07-04 08:47:36 +0000";
layers = (
{
layerId = "A04BFA18-C442-4494-B826-EAC83DBBD8AC";
name = Regular;
paths = (
{
closed = 1;
nodes = (
"83 731 LINE",
"318 823 LINE",
"288 886 LINE",
"65 772 LINE"
);
},
{
closed = 1;
nodes = (
"301 651 LINE",
"297 710 LINE",
"297 710 OFFCURVE",
"219 705 OFFCURVE",
"159 705 CURVE SMOOTH",
"139 705 OFFCURVE",
"44 710 OFFCURVE",
"44 710 CURVE",
"39 656 LINE",
"116 644 LINE",
"118 631 OFFCURVE",
"125 585 OFFCURVE",
"125 568 CURVE SMOOTH",
"125 137 LINE SMOOTH",
"125 120 OFFCURVE",
"118 74 OFFCURVE",
"116 61 CURVE",
"37 45 LINE",
"42 -5 LINE",
"42 -5 OFFCURVE",
"152 0 OFFCURVE",
"177 0 CURVE SMOOTH",
"307 0 LINE",
"313 54 LINE",
"223 61 LINE",
"221 75 OFFCURVE",
"216 125 OFFCURVE",
"216 167 CURVE SMOOTH",
"216 538 LINE SMOOTH",
"216 580 OFFCURVE",
"221 630 OFFCURVE",
"223 644 CURVE"
);
}
);
width = 343;
},
{
layerId = "6AAAC2AB-C0B6-4874-B22A-447CC2571A39";
name = Bold;
paths = (
{
closed = 1;
nodes = (
"97 731 LINE",
"342 810 LINE",
"308 886 LINE",
"72 783 LINE"
);
},
{
closed = 1;
nodes = (
"346 629 LINE",
"341 710 LINE",
"341 710 OFFCURVE",
"247 705 OFFCURVE",
"167 705 CURVE SMOOTH",
"137 705 OFFCURVE",
"47 710 OFFCURVE",
"47 710 CURVE",
"42 635 LINE",
"107 623 LINE",
"109 607 OFFCURVE",
"116 562 OFFCURVE",
"116 542 CURVE SMOOTH",
"116 163 LINE SMOOTH",
"116 143 OFFCURVE",
"108 87 OFFCURVE",
"107 77 CURVE",
"41 65 LINE",
"46 -5 LINE",
"46 -5 OFFCURVE",
"166 0 OFFCURVE",
"196 0 CURVE SMOOTH",
"340 0 LINE",
"345 71 LINE",
"280 77 LINE",
"278 91 OFFCURVE",
"271 153 OFFCURVE",
"271 193 CURVE SMOOTH",
"271 512 LINE SMOOTH",
"271 552 OFFCURVE",
"277 608 OFFCURVE",
"280 623 CURVE"
);
}
);
width = 388;
}
);
unicode = 00CD;
},
{
glyphname = Icircumflex;
lastChange = "2015-07-04 08:47:36 +0000";
layers = (
{
layerId = "A04BFA18-C442-4494-B826-EAC83DBBD8AC";
name = Regular;
paths = (
{
closed = 1;
nodes = (
"344 767 LINE",
"204 857 LINE",
"138 857 LINE",
"-2 767 LINE",
"21 731 LINE",
"171 799 LINE",
"321 731 LINE"
);
},
{
closed = 1;
nodes = (
"216 538 LINE SMOOTH",
"216 580 OFFCURVE",
"221 630 OFFCURVE",
"223 644 CURVE",
"301 651 LINE",
"297 710 LINE",
"297 710 OFFCURVE",
"219 705 OFFCURVE",
"159 705 CURVE SMOOTH",
"139 705 OFFCURVE",
"44 710 OFFCURVE",
"44 710 CURVE",
"39 656 LINE",
"116 644 LINE",
"118 631 OFFCURVE",
"125 585 OFFCURVE",
"125 568 CURVE SMOOTH",
"125 137 LINE SMOOTH",
"125 120 OFFCURVE",
"118 74 OFFCURVE",
"116 61 CURVE",
"37 45 LINE",
"42 -5 LINE",
"42 -5 OFFCURVE",
"152 0 OFFCURVE",
"177 0 CURVE SMOOTH",
"307 0 LINE",
"313 54 LINE",
"223 61 LINE",
"221 75 OFFCURVE",
"216 125 OFFCURVE",
"216 167 CURVE SMOOTH"
);
}
);
width = 343;
},
{
layerId = "6AAAC2AB-C0B6-4874-B22A-447CC2571A39";
name = Bold;
paths = (
{
closed = 1;
nodes = (
"43 731 LINE",
"194 806 LINE",
"345 731 LINE",
"379 776 LINE",
"243 871 LINE",
"145 871 LINE",
"9 776 LINE"
);
},
{
closed = 1;
nodes = (
"346 629 LINE",
"341 710 LINE",
"341 710 OFFCURVE",
"247 705 OFFCURVE",
"167 705 CURVE SMOOTH",
"137 705 OFFCURVE",
"47 710 OFFCURVE",
"47 710 CURVE",
"42 635 LINE",
"107 623 LINE",
"109 607 OFFCURVE",
"116 562 OFFCURVE",
"116 542 CURVE SMOOTH",
"116 163 LINE SMOOTH",
"116 143 OFFCURVE",
"108 87 OFFCURVE",
"107 77 CURVE",
"41 65 LINE",
"46 -5 LINE",
"46 -5 OFFCURVE",
"166 0 OFFCURVE",
"196 0 CURVE SMOOTH",
"340 0 LINE",
"345 71 LINE",
"280 77 LINE",
"278 91 OFFCURVE",
"271 153 OFFCURVE",
"271 193 CURVE SMOOTH",
"271 512 LINE SMOOTH",
"271 552 OFFCURVE",
"277 608 OFFCURVE",
"280 623 CURVE"
);
}
);
width = 388;
}
);
unicode = 00CE;
},
{
glyphname = Idieresis;
lastChange = "2015-07-04 08:47:36 +0000";
layers = (
{
layerId = "A04BFA18-C442-4494-B826-EAC83DBBD8AC";
name = Regular;
paths = (
{
closed = 1;
nodes = (
"62 847 OFFCURVE",
"45 824 OFFCURVE",
"45 791 CURVE SMOOTH",
"45 758 OFFCURVE",
"62 736 OFFCURVE",
"95 736 CURVE SMOOTH",
"128 736 OFFCURVE",
"146 758 OFFCURVE",
"146 791 CURVE SMOOTH",
"146 827 OFFCURVE",
"127 847 OFFCURVE",
"95 847 CURVE SMOOTH"
);
},
{
closed = 1;
nodes = (
"217 847 OFFCURVE",
"200 824 OFFCURVE",
"200 791 CURVE SMOOTH",
"200 758 OFFCURVE",
"217 736 OFFCURVE",
"250 736 CURVE SMOOTH",
"283 736 OFFCURVE",
"301 758 OFFCURVE",
"301 791 CURVE SMOOTH",
"301 827 OFFCURVE",
"282 847 OFFCURVE",
"250 847 CURVE SMOOTH"
);
},
{
closed = 1;
nodes = (
"301 651 LINE",
"297 710 LINE",
"297 710 OFFCURVE",
"219 705 OFFCURVE",
"159 705 CURVE SMOOTH",
"139 705 OFFCURVE",
"44 710 OFFCURVE",
"44 710 CURVE",
"39 656 LINE",
"116 644 LINE",
"118 631 OFFCURVE",
"125 585 OFFCURVE",
"125 568 CURVE SMOOTH",
"125 137 LINE SMOOTH",
"125 120 OFFCURVE",
"118 74 OFFCURVE",
"116 61 CURVE",
"37 45 LINE",
"42 -5 LINE",
"42 -5 OFFCURVE",
"152 0 OFFCURVE",
"177 0 CURVE SMOOTH",
"307 0 LINE",
"313 54 LINE",
"223 61 LINE",
"221 75 OFFCURVE",
"216 125 OFFCURVE",
"216 167 CURVE SMOOTH",
"216 538 LINE SMOOTH",
"216 580 OFFCURVE",
"221 630 OFFCURVE",
"223 644 CURVE"
);
}
);
width = 343;
},
{
layerId = "6AAAC2AB-C0B6-4874-B22A-447CC2571A39";
name = Bold;
paths = (
{
closed = 1;
nodes = (
"71 857 OFFCURVE",
"50 831 OFFCURVE",
"50 796 CURVE SMOOTH",
"50 761 OFFCURVE",
"71 736 OFFCURVE",
"110 736 CURVE SMOOTH",
"148 736 OFFCURVE",
"169 761 OFFCURVE",
"169 796 CURVE SMOOTH",
"169 834 OFFCURVE",
"146 857 OFFCURVE",
"110 857 CURVE SMOOTH"
);
},
{
closed = 1;
nodes = (
"238 857 OFFCURVE",
"217 831 OFFCURVE",
"217 796 CURVE SMOOTH",
"217 761 OFFCURVE",
"238 736 OFFCURVE",
"277 736 CURVE SMOOTH",
"315 736 OFFCURVE",
"336 761 OFFCURVE",
"336 796 CURVE SMOOTH",
"336 834 OFFCURVE",
"313 857 OFFCURVE",
"277 857 CURVE SMOOTH"
);
},
{
closed = 1;
nodes = (
"346 629 LINE",
"341 710 LINE",
"341 710 OFFCURVE",
"247 705 OFFCURVE",
"167 705 CURVE SMOOTH",
"137 705 OFFCURVE",
"47 710 OFFCURVE",
"47 710 CURVE",
"42 635 LINE",
"107 623 LINE",
"109 607 OFFCURVE",
"116 562 OFFCURVE",
"116 542 CURVE SMOOTH",
"116 163 LINE SMOOTH",
"116 143 OFFCURVE",
"108 87 OFFCURVE",
"107 77 CURVE",
"41 65 LINE",
"46 -5 LINE",
"46 -5 OFFCURVE",
"166 0 OFFCURVE",
"196 0 CURVE SMOOTH",
"340 0 LINE",
"345 71 LINE",
"280 77 LINE",
"278 91 OFFCURVE",
"271 153 OFFCURVE",
"271 193 CURVE SMOOTH",
"271 512 LINE SMOOTH",
"271 552 OFFCURVE",
"277 608 OFFCURVE",
"280 623 CURVE"
);
}
);
width = 388;
}
);
leftKerningGroup = B;
unicode = 00CF;
},
{
glyphname = Idotaccent;
lastChange = "2015-07-04 08:47:36 +0000";
layers = (
{
layerId = "A04BFA18-C442-4494-B826-EAC83DBBD8AC";
name = Regular;
paths = (
{
closed = 1;
nodes = (
"133 865 OFFCURVE",
"112 838 OFFCURVE",
"112 800 CURVE SMOOTH",
"112 762 OFFCURVE",
"133 736 OFFCURVE",
"171 736 CURVE SMOOTH",
"209 736 OFFCURVE",
"230 762 OFFCURVE",
"230 800 CURVE SMOOTH",
"230 841 OFFCURVE",
"208 865 OFFCURVE",
"171 865 CURVE SMOOTH"
);
},
{
closed = 1;
nodes = (
"301 651 LINE",
"297 710 LINE",
"297 710 OFFCURVE",
"219 705 OFFCURVE",
"159 705 CURVE SMOOTH",
"139 705 OFFCURVE",
"44 710 OFFCURVE",
"44 710 CURVE",
"39 656 LINE",
"116 644 LINE",
"118 631 OFFCURVE",
"125 585 OFFCURVE",
"125 568 CURVE SMOOTH",
"125 137 LINE SMOOTH",
"125 120 OFFCURVE",
"118 74 OFFCURVE",
"116 61 CURVE",
"37 45 LINE",
"42 -5 LINE",
"42 -5 OFFCURVE",
"152 0 OFFCURVE",
"177 0 CURVE SMOOTH",
"307 0 LINE",
"313 54 LINE",
"223 61 LINE",
"221 75 OFFCURVE",
"216 125 OFFCURVE",
"216 167 CURVE SMOOTH",
"216 538 LINE SMOOTH",
"216 580 OFFCURVE",
"221 630 OFFCURVE",
"223 644 CURVE"
);
}
);
width = 343;
},
{
layerId = "6AAAC2AB-C0B6-4874-B22A-447CC2571A39";
name = Bold;
paths = (
{
closed = 1;
nodes = (
"145 889 OFFCURVE",
"118 857 OFFCURVE",
"118 812 CURVE SMOOTH",
"118 767 OFFCURVE",
"145 736 OFFCURVE",
"194 736 CURVE SMOOTH",
"243 736 OFFCURVE",
"270 767 OFFCURVE",
"270 812 CURVE SMOOTH",
"270 860 OFFCURVE",
"241 889 OFFCURVE",
"194 889 CURVE SMOOTH"
);
},
{
closed = 1;
nodes = (
"346 629 LINE",
"341 710 LINE",
"341 710 OFFCURVE",
"247 705 OFFCURVE",
"167 705 CURVE SMOOTH",
"137 705 OFFCURVE",
"47 710 OFFCURVE",
"47 710 CURVE",
"42 635 LINE",
"107 623 LINE",
"109 607 OFFCURVE",
"116 562 OFFCURVE",
"116 542 CURVE SMOOTH",
"116 163 LINE SMOOTH",
"116 143 OFFCURVE",
"108 87 OFFCURVE",
"107 77 CURVE",
"41 65 LINE",
"46 -5 LINE",
"46 -5 OFFCURVE",
"166 0 OFFCURVE",
"196 0 CURVE SMOOTH",
"340 0 LINE",
"345 71 LINE",
"280 77 LINE",
"278 91 OFFCURVE",
"271 153 OFFCURVE",
"271 193 CURVE SMOOTH",
"271 512 LINE SMOOTH",
"271 552 OFFCURVE",
"277 608 OFFCURVE",
"280 623 CURVE"
);
}
);
width = 388;
}
);
leftKerningGroup = B;
unicode = 0130;
},
{
glyphname = Igrave;
lastChange = "2015-07-04 08:47:36 +0000";
layers = (
{
layerId = "A04BFA18-C442-4494-B826-EAC83DBBD8AC";
name = Regular;
paths = (
{
closed = 1;
nodes = (
"67 886 LINE",
"37 823 LINE",
"272 731 LINE",
"290 772 LINE"
);
},
{
closed = 1;
nodes = (
"301 651 LINE",
"297 710 LINE",
"297 710 OFFCURVE",
"219 705 OFFCURVE",
"159 705 CURVE SMOOTH",
"139 705 OFFCURVE",
"44 710 OFFCURVE",
"44 710 CURVE",
"39 656 LINE",
"116 644 LINE",
"118 631 OFFCURVE",
"125 585 OFFCURVE",
"125 568 CURVE SMOOTH",
"125 137 LINE SMOOTH",
"125 120 OFFCURVE",
"118 74 OFFCURVE",
"116 61 CURVE",
"37 45 LINE",
"42 -5 LINE",
"42 -5 OFFCURVE",
"152 0 OFFCURVE",
"177 0 CURVE SMOOTH",
"307 0 LINE",
"313 54 LINE",
"223 61 LINE",
"221 75 OFFCURVE",
"216 125 OFFCURVE",
"216 167 CURVE SMOOTH",
"216 538 LINE SMOOTH",
"216 580 OFFCURVE",
"221 630 OFFCURVE",
"223 644 CURVE"
);
}
);
width = 343;
},
{
layerId = "6AAAC2AB-C0B6-4874-B22A-447CC2571A39";
name = Bold;
paths = (
{
closed = 1;
nodes = (
"74 886 LINE",
"40 810 LINE",
"285 731 LINE",
"310 783 LINE"
);
},
{
closed = 1;
nodes = (
"346 629 LINE",
"341 710 LINE",
"341 710 OFFCURVE",
"247 705 OFFCURVE",
"167 705 CURVE SMOOTH",
"137 705 OFFCURVE",
"47 710 OFFCURVE",
"47 710 CURVE",
"42 635 LINE",
"107 623 LINE",
"109 607 OFFCURVE",
"116 562 OFFCURVE",
"116 542 CURVE SMOOTH",
"116 163 LINE SMOOTH",
"116 143 OFFCURVE",
"108 87 OFFCURVE",
"107 77 CURVE",
"41 65 LINE",
"46 -5 LINE",
"46 -5 OFFCURVE",
"166 0 OFFCURVE",
"196 0 CURVE SMOOTH",
"340 0 LINE",
"345 71 LINE",
"280 77 LINE",
"278 91 OFFCURVE",
"271 153 OFFCURVE",
"271 193 CURVE SMOOTH",
"271 512 LINE SMOOTH",
"271 552 OFFCURVE",
"277 608 OFFCURVE",
"280 623 CURVE"
);
}
);
width = 388;
}
);
leftKerningGroup = B;
unicode = 00CC;
},
{
glyphname = Imacron;
lastChange = "2015-07-04 08:47:36 +0000";
layers = (
{
layerId = "A04BFA18-C442-4494-B826-EAC83DBBD8AC";
name = Regular;
paths = (
{
closed = 1;
nodes = (
"52 795 LINE",
"52 740 LINE",
"284 740 LINE",
"290 795 LINE"
);
},
{
closed = 1;
nodes = (
"301 651 LINE",
"297 710 LINE",
"297 710 OFFCURVE",
"219 705 OFFCURVE",
"159 705 CURVE SMOOTH",
"139 705 OFFCURVE",
"44 710 OFFCURVE",
"44 710 CURVE",
"39 656 LINE",
"116 644 LINE",
"118 631 OFFCURVE",
"125 585 OFFCURVE",
"125 568 CURVE SMOOTH",
"125 137 LINE SMOOTH",
"125 120 OFFCURVE",
"118 74 OFFCURVE",
"116 61 CURVE",
"37 45 LINE",
"42 -5 LINE",
"42 -5 OFFCURVE",
"152 0 OFFCURVE",
"177 0 CURVE SMOOTH",
"307 0 LINE",
"313 54 LINE",
"223 61 LINE",
"221 75 OFFCURVE",
"216 125 OFFCURVE",
"216 167 CURVE SMOOTH",
"216 538 LINE SMOOTH",
"216 580 OFFCURVE",
"221 630 OFFCURVE",
"223 644 CURVE"
);
}
);
width = 343;
},
{
layerId = "6AAAC2AB-C0B6-4874-B22A-447CC2571A39";
name = Bold;
paths = (
{
closed = 1;
nodes = (
"40 827 LINE",
"40 757 LINE",
"338 757 LINE",
"348 827 LINE"
);
},
{
closed = 1;
nodes = (
"346 629 LINE",
"341 710 LINE",
"341 710 OFFCURVE",
"247 705 OFFCURVE",
"167 705 CURVE SMOOTH",
"137 705 OFFCURVE",
"47 710 OFFCURVE",
"47 710 CURVE",
"42 635 LINE",
"107 623 LINE",
"109 607 OFFCURVE",
"116 562 OFFCURVE",
"116 542 CURVE SMOOTH",
"116 163 LINE SMOOTH",
"116 143 OFFCURVE",
"108 87 OFFCURVE",
"107 77 CURVE",
"41 65 LINE",
"46 -5 LINE",
"46 -5 OFFCURVE",
"166 0 OFFCURVE",
"196 0 CURVE SMOOTH",
"340 0 LINE",
"345 71 LINE",
"280 77 LINE",
"278 91 OFFCURVE",
"271 153 OFFCURVE",
"271 193 CURVE SMOOTH",
"271 512 LINE SMOOTH",
"271 552 OFFCURVE",
"277 608 OFFCURVE",
"280 623 CURVE"
);
}
);
width = 388;
}
);
leftKerningGroup = B;
unicode = 012A;
},
{
glyphname = Iogonek;
lastChange = "2015-07-04 08:47:36 +0000";
layers = (
{
layerId = "A04BFA18-C442-4494-B826-EAC83DBBD8AC";
name = Regular;
paths = (
{
closed = 1;
nodes = (
"223 -161 OFFCURVE",
"204 -141 OFFCURVE",
"204 -115 CURVE SMOOTH",
"204 -78 OFFCURVE",
"242 -26 OFFCURVE",
"306 0 CURVE",
"307 0 LINE",
"313 54 LINE",
"223 61 LINE",
"221 75 OFFCURVE",
"216 125 OFFCURVE",
"216 167 CURVE SMOOTH",
"216 538 LINE SMOOTH",
"216 580 OFFCURVE",
"221 630 OFFCURVE",
"223 644 CURVE",
"301 651 LINE",
"297 710 LINE",
"297 710 OFFCURVE",
"219 705 OFFCURVE",
"159 705 CURVE SMOOTH",
"139 705 OFFCURVE",
"44 710 OFFCURVE",
"44 710 CURVE",
"39 656 LINE",
"116 644 LINE",
"118 631 OFFCURVE",
"125 585 OFFCURVE",
"125 568 CURVE SMOOTH",
"125 137 LINE SMOOTH",
"125 120 OFFCURVE",
"118 74 OFFCURVE",
"116 61 CURVE",
"37 45 LINE",
"42 -5 LINE",
"42 -5 OFFCURVE",
"152 0 OFFCURVE",
"177 0 CURVE SMOOTH",
"220 0 LINE",
"153 -37 OFFCURVE",
"129 -78 OFFCURVE",
"129 -120 CURVE SMOOTH",
"129 -189 OFFCURVE",
"193 -211 OFFCURVE",
"244 -211 CURVE SMOOTH",
"266 -211 OFFCURVE",
"290 -206 OFFCURVE",
"308 -199 CURVE",
"297 -156 LINE",
"286 -159 OFFCURVE",
"274 -161 OFFCURVE",
"263 -161 CURVE SMOOTH"
);
}
);
width = 343;
},
{
layerId = "6AAAC2AB-C0B6-4874-B22A-447CC2571A39";
name = Bold;
paths = (
{
closed = 1;
nodes = (
"271 512 LINE SMOOTH",
"271 552 OFFCURVE",
"277 608 OFFCURVE",
"280 623 CURVE",
"346 629 LINE",
"341 710 LINE",
"341 710 OFFCURVE",
"247 705 OFFCURVE",
"167 705 CURVE SMOOTH",
"137 705 OFFCURVE",
"47 710 OFFCURVE",
"47 710 CURVE",
"42 635 LINE",
"107 623 LINE",
"109 607 OFFCURVE",
"116 562 OFFCURVE",
"116 542 CURVE SMOOTH",
"116 163 LINE SMOOTH",
"116 143 OFFCURVE",
"108 87 OFFCURVE",
"107 77 CURVE",
"41 65 LINE",
"46 -5 LINE",
"46 -5 OFFCURVE",
"166 0 OFFCURVE",
"196 0 CURVE SMOOTH",
"217 0 LINE",
"157 -32 OFFCURVE",
"118 -81 OFFCURVE",
"118 -134 CURVE SMOOTH",
"118 -194 OFFCURVE",
"163 -223 OFFCURVE",
"227 -223 CURVE SMOOTH",
"268 -223 OFFCURVE",
"304 -209 OFFCURVE",
"322 -200 CURVE",
"304 -152 LINE",
"293 -156 OFFCURVE",
"282 -159 OFFCURVE",
"272 -159 CURVE SMOOTH",
"247 -159 OFFCURVE",
"228 -144 OFFCURVE",
"228 -111 CURVE SMOOTH",
"228 -76 OFFCURVE",
"264 -34 OFFCURVE",
"340 0 CURVE",
"345 71 LINE",
"280 77 LINE",
"278 91 OFFCURVE",
"271 153 OFFCURVE",
"271 193 CURVE SMOOTH"
);
}
);
width = 388;
}
);
unicode = 012E;
},
{
glyphname = Itilde;
lastChange = "2015-07-04 08:47:36 +0000";
layers = (
{
layerId = "A04BFA18-C442-4494-B826-EAC83DBBD8AC";
name = Regular;
paths = (
{
closed = 1;
nodes = (
"303 864 LINE",
"303 864 OFFCURVE",
"277 813 OFFCURVE",
"250 813 CURVE SMOOTH",
"210 813 OFFCURVE",
"125 854 OFFCURVE",
"85 854 CURVE SMOOTH",
"45 854 OFFCURVE",
"3 753 OFFCURVE",
"3 753 CURVE",
"39 732 LINE",
"39 732 OFFCURVE",
"65 786 OFFCURVE",
"92 786 CURVE SMOOTH",
"132 786 OFFCURVE",
"216 745 OFFCURVE",
"256 745 CURVE SMOOTH",
"296 745 OFFCURVE",
"339 843 OFFCURVE",
"339 843 CURVE"
);
},
{
closed = 1;
nodes = (
"301 651 LINE",
"297 710 LINE",
"297 710 OFFCURVE",
"219 705 OFFCURVE",
"159 705 CURVE SMOOTH",
"139 705 OFFCURVE",
"44 710 OFFCURVE",
"44 710 CURVE",
"39 656 LINE",
"116 644 LINE",
"118 631 OFFCURVE",
"125 585 OFFCURVE",
"125 568 CURVE SMOOTH",
"125 137 LINE SMOOTH",
"125 120 OFFCURVE",
"118 74 OFFCURVE",
"116 61 CURVE",
"37 45 LINE",
"42 -5 LINE",
"42 -5 OFFCURVE",
"152 0 OFFCURVE",
"177 0 CURVE SMOOTH",
"307 0 LINE",
"313 54 LINE",
"223 61 LINE",
"221 75 OFFCURVE",
"216 125 OFFCURVE",
"216 167 CURVE SMOOTH",
"216 538 LINE SMOOTH",
"216 580 OFFCURVE",
"221 630 OFFCURVE",
"223 644 CURVE"
);
}
);
width = 343;
},
{
layerId = "6AAAC2AB-C0B6-4874-B22A-447CC2571A39";
name = Bold;
paths = (
{
closed = 1;
nodes = (
"329 864 LINE",
"329 864 OFFCURVE",
"308 826 OFFCURVE",
"284 826 CURVE SMOOTH",
"242 826 OFFCURVE",
"141 864 OFFCURVE",
"99 864 CURVE SMOOTH",
"56 864 OFFCURVE",
"10 759 OFFCURVE",
"10 759 CURVE",
"57 731 LINE",
"57 731 OFFCURVE",
"82 773 OFFCURVE",
"106 773 CURVE SMOOTH",
"149 773 OFFCURVE",
"248 735 OFFCURVE",
"291 735 CURVE SMOOTH",
"334 735 OFFCURVE",
"378 836 OFFCURVE",
"378 836 CURVE"
);
},
{
closed = 1;
nodes = (
"346 629 LINE",
"341 710 LINE",
"341 710 OFFCURVE",
"247 705 OFFCURVE",
"167 705 CURVE SMOOTH",
"137 705 OFFCURVE",
"47 710 OFFCURVE",
"47 710 CURVE",
"42 635 LINE",
"107 623 LINE",
"109 607 OFFCURVE",
"116 562 OFFCURVE",
"116 542 CURVE SMOOTH",
"116 163 LINE SMOOTH",
"116 143 OFFCURVE",
"108 87 OFFCURVE",
"107 77 CURVE",
"41 65 LINE",
"46 -5 LINE",
"46 -5 OFFCURVE",
"166 0 OFFCURVE",
"196 0 CURVE SMOOTH",
"340 0 LINE",
"345 71 LINE",
"280 77 LINE",
"278 91 OFFCURVE",
"271 153 OFFCURVE",
"271 193 CURVE SMOOTH",
"271 512 LINE SMOOTH",
"271 552 OFFCURVE",
"277 608 OFFCURVE",
"280 623 CURVE"
);
}
);
width = 388;
}
);
leftKerningGroup = B;
unicode = 0128;
},
{
glyphname = J;
lastChange = "2015-07-04 08:47:36 +0000";
layers = (
{
layerId = "A04BFA18-C442-4494-B826-EAC83DBBD8AC";
name = Regular;
paths = (
{
closed = 1;
nodes = (
"119 705 OFFCURVE",
"24 710 OFFCURVE",
"24 710 CURVE",
"19 656 LINE",
"96 644 LINE",
"98 631 OFFCURVE",
"105 585 OFFCURVE",
"105 568 CURVE SMOOTH",
"105 11 LINE SMOOTH",
"105 -9 OFFCURVE",
"25 -178 OFFCURVE",
"25 -178 CURVE",
"59 -200 LINE",
"106 -144 OFFCURVE",
"196 -37 OFFCURVE",
"196 -10 CURVE SMOOTH",
"196 538 LINE SMOOTH",
"196 580 OFFCURVE",
"201 630 OFFCURVE",
"203 644 CURVE",
"281 651 LINE",
"277 710 LINE",
"277 710 OFFCURVE",
"199 705 OFFCURVE",
"139 705 CURVE SMOOTH"
);
}
);
width = 302;
},
{
layerId = "6AAAC2AB-C0B6-4874-B22A-447CC2571A39";
name = Bold;
paths = (
{
closed = 1;
nodes = (
"127 705 OFFCURVE",
"37 710 OFFCURVE",
"37 710 CURVE",
"32 635 LINE",
"97 623 LINE",
"100 608 OFFCURVE",
"106 562 OFFCURVE",
"106 542 CURVE SMOOTH",
"106 11 LINE SMOOTH",
"106 -9 OFFCURVE",
"30 -169 OFFCURVE",
"30 -169 CURVE",
"84 -200 LINE",
"180 -111 OFFCURVE",
"261 -23 OFFCURVE",
"261 10 CURVE SMOOTH",
"261 512 LINE SMOOTH",
"261 552 OFFCURVE",
"268 614 OFFCURVE",
"270 623 CURVE",
"336 629 LINE",
"331 710 LINE",
"331 710 OFFCURVE",
"237 705 OFFCURVE",
"157 705 CURVE SMOOTH"
);
}
);
width = 368;
}
);
leftKerningGroup = J;
rightKerningGroup = IJ;
unicode = 004A;
},
{
glyphname = K;
lastChange = "2015-07-04 08:47:36 +0000";
layers = (
{
layerId = "A04BFA18-C442-4494-B826-EAC83DBBD8AC";
name = Regular;
paths = (
{
closed = 1;
nodes = (
"301 651 LINE",
"297 710 LINE",
"297 710 OFFCURVE",
"219 705 OFFCURVE",
"159 705 CURVE SMOOTH",
"139 705 OFFCURVE",
"44 710 OFFCURVE",
"44 710 CURVE",
"39 656 LINE",
"116 644 LINE",
"118 631 OFFCURVE",
"125 585 OFFCURVE",
"125 568 CURVE SMOOTH",
"125 137 LINE SMOOTH",
"125 120 OFFCURVE",
"118 74 OFFCURVE",
"116 61 CURVE",
"37 45 LINE",
"42 -5 LINE",
"42 -5 OFFCURVE",
"152 0 OFFCURVE",
"177 0 CURVE SMOOTH",
"306 0 LINE",
"313 54 LINE",
"223 61 LINE",
"221 75 OFFCURVE",
"216 125 OFFCURVE",
"216 167 CURVE SMOOTH",
"216 538 LINE SMOOTH",
"216 580 OFFCURVE",
"221 630 OFFCURVE",
"223 644 CURVE"
);
},
{
closed = 1;
nodes = (
"473 705 OFFCURVE",
"398 710 OFFCURVE",
"398 710 CURVE",
"393 656 LINE",
"447 645 LINE",
"408 577 LINE",
"226 353 LINE",
"391 164 LINE",
"408 142 OFFCURVE",
"445 85 OFFCURVE",
"461 59 CURVE",
"402 45 LINE",
"407 -5 LINE",
"407 -5 OFFCURVE",
"520 0 OFFCURVE",
"545 0 CURVE SMOOTH",
"676 0 LINE",
"683 54 LINE",
"613 61 LINE",
"589 81 OFFCURVE",
"551 113 OFFCURVE",
"536 129 CURVE",
"467 209 OFFCURVE",
"395 290 OFFCURVE",
"325 370 CURVE",
"457 546 LINE",
"487 576 OFFCURVE",
"533 620 OFFCURVE",
"559 644 CURVE",
"635 651 LINE",
"631 710 LINE",
"631 710 OFFCURVE",
"553 705 OFFCURVE",
"493 705 CURVE SMOOTH"
);
}
);
width = 696;
},
{
layerId = "6AAAC2AB-C0B6-4874-B22A-447CC2571A39";
name = Bold;
paths = (
{
closed = 1;
nodes = (
"346 629 LINE",
"341 710 LINE",
"341 710 OFFCURVE",
"247 705 OFFCURVE",
"167 705 CURVE SMOOTH",
"137 705 OFFCURVE",
"47 710 OFFCURVE",
"47 710 CURVE",
"42 635 LINE",
"107 623 LINE",
"109 607 OFFCURVE",
"116 562 OFFCURVE",
"116 542 CURVE SMOOTH",
"116 163 LINE SMOOTH",
"116 143 OFFCURVE",
"108 87 OFFCURVE",
"107 77 CURVE",
"41 65 LINE",
"46 -5 LINE",
"46 -5 OFFCURVE",
"166 0 OFFCURVE",
"196 0 CURVE SMOOTH",
"340 0 LINE",
"345 71 LINE",
"280 77 LINE",
"278 91 OFFCURVE",
"271 153 OFFCURVE",
"271 193 CURVE SMOOTH",
"271 512 LINE SMOOTH",
"271 552 OFFCURVE",
"277 608 OFFCURVE",
"280 623 CURVE"
);
},
{
closed = 1;
nodes = (
"506 705 OFFCURVE",
"439 710 OFFCURVE",
"439 710 CURVE",
"434 635 LINE",
"465 629 LINE",
"437 577 LINE",
"275 353 LINE",
"275 353 OFFCURVE",
"404 188 OFFCURVE",
"425 164 CURVE",
"439 145 OFFCURVE",
"466 102 OFFCURVE",
"484 73 CURVE",
"445 65 LINE",
"450 -5 LINE",
"450 -5 OFFCURVE",
"560 0 OFFCURVE",
"610 0 CURVE SMOOTH",
"747 0 LINE",
"752 71 LINE",
"704 77 LINE",
"684 95 OFFCURVE",
"659 117 OFFCURVE",
"649 129 CURVE SMOOTH",
"582 209 OFFCURVE",
"512 290 OFFCURVE",
"444 370 CURVE",
"573 546 LINE",
"594 569 OFFCURVE",
"624 599 OFFCURVE",
"649 623 CURVE",
"707 629 LINE",
"702 710 LINE",
"702 710 OFFCURVE",
"616 705 OFFCURVE",
"536 705 CURVE SMOOTH"
);
}
);
width = 771;
}
);
leftKerningGroup = B;
rightKerningGroup = K;
unicode = 004B;
},
{
glyphname = Kcommaaccent;
lastChange = "2015-07-04 08:47:36 +0000";
layers = (
{
layerId = "A04BFA18-C442-4494-B826-EAC83DBBD8AC";
name = Regular;
paths = (
{
closed = 1;
nodes = (
"301 651 LINE",
"297 710 LINE",
"297 710 OFFCURVE",
"219 705 OFFCURVE",
"159 705 CURVE SMOOTH",
"139 705 OFFCURVE",
"44 710 OFFCURVE",
"44 710 CURVE",
"39 656 LINE",
"116 644 LINE",
"118 631 OFFCURVE",
"125 585 OFFCURVE",
"125 568 CURVE SMOOTH",
"125 137 LINE SMOOTH",
"125 120 OFFCURVE",
"118 74 OFFCURVE",
"116 61 CURVE",
"37 45 LINE",
"42 -5 LINE",
"42 -5 OFFCURVE",
"152 0 OFFCURVE",
"177 0 CURVE SMOOTH",
"306 0 LINE",
"313 54 LINE",
"223 61 LINE",
"221 75 OFFCURVE",
"216 125 OFFCURVE",
"216 167 CURVE SMOOTH",
"216 538 LINE SMOOTH",
"216 580 OFFCURVE",
"221 630 OFFCURVE",
"223 644 CURVE"
);
},
{
closed = 1;
nodes = (
"473 705 OFFCURVE",
"398 710 OFFCURVE",
"398 710 CURVE",
"393 656 LINE",
"447 645 LINE",
"408 577 LINE",
"226 353 LINE",
"391 164 LINE",
"408 142 OFFCURVE",
"445 85 OFFCURVE",
"461 59 CURVE",
"402 45 LINE",
"407 -5 LINE",
"407 -5 OFFCURVE",
"520 0 OFFCURVE",
"545 0 CURVE SMOOTH",
"676 0 LINE",
"683 54 LINE",
"613 61 LINE",
"589 81 OFFCURVE",
"551 113 OFFCURVE",
"536 129 CURVE",
"467 209 OFFCURVE",
"395 290 OFFCURVE",
"325 370 CURVE",
"457 546 LINE",
"487 576 OFFCURVE",
"533 620 OFFCURVE",
"559 644 CURVE",
"635 651 LINE",
"631 710 LINE",
"631 710 OFFCURVE",
"553 705 OFFCURVE",
"493 705 CURVE SMOOTH"
);
},
{
closed = 1;
nodes = (
"296 -67 OFFCURVE",
"322 -50 OFFCURVE",
"346 -50 CURVE SMOOTH",
"379 -50 OFFCURVE",
"398 -72 OFFCURVE",
"398 -114 CURVE SMOOTH",
"398 -169 OFFCURVE",
"351 -249 OFFCURVE",
"351 -249 CURVE",
"314 -237 LINE",
"314 -237 OFFCURVE",
"329 -184 OFFCURVE",
"329 -158 CURVE",
"319 -154 OFFCURVE",
"296 -140 OFFCURVE",
"296 -106 CURVE SMOOTH"
);
}
);
width = 696;
},
{
layerId = "6AAAC2AB-C0B6-4874-B22A-447CC2571A39";
name = Bold;
paths = (
{
closed = 1;
nodes = (
"346 629 LINE",
"341 710 LINE",
"341 710 OFFCURVE",
"247 705 OFFCURVE",
"167 705 CURVE SMOOTH",
"137 705 OFFCURVE",
"47 710 OFFCURVE",
"47 710 CURVE",
"42 635 LINE",
"107 623 LINE",
"109 607 OFFCURVE",
"116 562 OFFCURVE",
"116 542 CURVE SMOOTH",
"116 163 LINE SMOOTH",
"116 143 OFFCURVE",
"108 87 OFFCURVE",
"107 77 CURVE",
"41 65 LINE",
"46 -5 LINE",
"46 -5 OFFCURVE",
"166 0 OFFCURVE",
"196 0 CURVE SMOOTH",
"340 0 LINE",
"345 71 LINE",
"280 77 LINE",
"278 91 OFFCURVE",
"271 153 OFFCURVE",
"271 193 CURVE SMOOTH",
"271 512 LINE SMOOTH",
"271 552 OFFCURVE",
"277 608 OFFCURVE",
"280 623 CURVE"
);
},
{
closed = 1;
nodes = (
"506 705 OFFCURVE",
"439 710 OFFCURVE",
"439 710 CURVE",
"434 635 LINE",
"465 629 LINE",
"437 577 LINE",
"275 353 LINE",
"275 353 OFFCURVE",
"404 188 OFFCURVE",
"425 164 CURVE",
"439 145 OFFCURVE",
"466 102 OFFCURVE",
"484 73 CURVE",
"445 65 LINE",
"450 -5 LINE",
"450 -5 OFFCURVE",
"560 0 OFFCURVE",
"610 0 CURVE SMOOTH",
"747 0 LINE",
"752 71 LINE",
"704 77 LINE",
"684 95 OFFCURVE",
"659 117 OFFCURVE",
"649 129 CURVE SMOOTH",
"582 209 OFFCURVE",
"512 290 OFFCURVE",
"444 370 CURVE",
"573 546 LINE",
"594 569 OFFCURVE",
"624 599 OFFCURVE",
"649 623 CURVE",
"707 629 LINE",
"702 710 LINE",
"702 710 OFFCURVE",
"616 705 OFFCURVE",
"536 705 CURVE SMOOTH"
);
},
{
closed = 1;
nodes = (
"314 -70 OFFCURVE",
"347 -50 OFFCURVE",
"378 -50 CURVE SMOOTH",
"420 -50 OFFCURVE",
"444 -76 OFFCURVE",
"444 -124 CURVE SMOOTH",
"444 -181 OFFCURVE",
"383 -264 OFFCURVE",
"383 -264 CURVE",
"337 -252 LINE",
"337 -252 OFFCURVE",
"355 -197 OFFCURVE",
"355 -170 CURVE",
"343 -166 OFFCURVE",
"314 -151 OFFCURVE",
"314 -116 CURVE SMOOTH"
);
}
);
width = 771;
}
);
leftKerningGroup = B;
rightKerningGroup = K;
unicode = 0136;
},
{
glyphname = L;
lastChange = "2015-07-04 08:47:36 +0000";
layers = (
{
layerId = "A04BFA18-C442-4494-B826-EAC83DBBD8AC";
name = Regular;
paths = (
{
closed = 1;
nodes = (
"139 705 OFFCURVE",
"44 710 OFFCURVE",
"44 710 CURVE",
"39 656 LINE",
"116 644 LINE",
"118 631 OFFCURVE",
"125 585 OFFCURVE",
"125 568 CURVE SMOOTH",
"125 137 LINE SMOOTH",
"125 120 OFFCURVE",
"118 74 OFFCURVE",
"116 61 CURVE",
"37 45 LINE",
"42 -5 LINE",
"42 -5 OFFCURVE",
"152 0 OFFCURVE",
"177 0 CURVE SMOOTH",
"371 0 LINE SMOOTH",
"391 0 OFFCURVE",
"485 -4 OFFCURVE",
"485 -4 CURVE",
"504 14 LINE",
"519 165 LINE",
"464 170 LINE",
"462 154 OFFCURVE",
"453 118 OFFCURVE",
"449 103 CURVE",
"448 96 OFFCURVE",
"438 80 OFFCURVE",
"428 66 CURVE",
"406 62 OFFCURVE",
"372 57 OFFCURVE",
"341 57 CURVE SMOOTH",
"223 57 LINE",
"221 72 OFFCURVE",
"216 126 OFFCURVE",
"216 167 CURVE SMOOTH",
"216 538 LINE SMOOTH",
"216 580 OFFCURVE",
"221 630 OFFCURVE",
"223 644 CURVE",
"311 651 LINE",
"307 710 LINE",
"307 710 OFFCURVE",
"219 705 OFFCURVE",
"159 705 CURVE SMOOTH"
);
}
);
width = 542;
},
{
layerId = "6AAAC2AB-C0B6-4874-B22A-447CC2571A39";
name = Bold;
paths = (
{
closed = 1;
nodes = (
"551 190 LINE",
"481 195 LINE",
"479 179 OFFCURVE",
"473 153 OFFCURVE",
"469 138 CURVE",
"468 132 OFFCURVE",
"459 114 OFFCURVE",
"450 95 CURVE",
"431 91 OFFCURVE",
"402 87 OFFCURVE",
"373 87 CURVE SMOOTH",
"279 87 LINE",
"276 110 OFFCURVE",
"271 159 OFFCURVE",
"271 193 CURVE SMOOTH",
"271 512 LINE SMOOTH",
"271 552 OFFCURVE",
"277 608 OFFCURVE",
"280 623 CURVE",
"356 629 LINE",
"351 710 LINE",
"351 710 OFFCURVE",
"247 705 OFFCURVE",
"167 705 CURVE SMOOTH",
"137 705 OFFCURVE",
"47 710 OFFCURVE",
"47 710 CURVE",
"42 635 LINE",
"107 623 LINE",
"109 607 OFFCURVE",
"116 562 OFFCURVE",
"116 542 CURVE SMOOTH",
"116 163 LINE SMOOTH",
"116 143 OFFCURVE",
"108 87 OFFCURVE",
"107 77 CURVE",
"41 65 LINE",
"46 -5 LINE",
"46 -5 OFFCURVE",
"166 0 OFFCURVE",
"196 0 CURVE SMOOTH",
"403 0 LINE SMOOTH",
"423 0 OFFCURVE",
"517 -4 OFFCURVE",
"517 -4 CURVE",
"536 14 LINE"
);
}
);
width = 577;
}
);
leftKerningGroup = B;
rightKerningGroup = L;
unicode = 004C;
},
{
glyphname = Lacute;
lastChange = "2015-07-04 08:47:36 +0000";
layers = (
{
layerId = "A04BFA18-C442-4494-B826-EAC83DBBD8AC";
name = Regular;
paths = (
{
closed = 1;
nodes = (
"85 731 LINE",
"320 823 LINE",
"290 886 LINE",
"67 772 LINE"
);
},
{
closed = 1;
nodes = (
"139 705 OFFCURVE",
"44 710 OFFCURVE",
"44 710 CURVE",
"39 656 LINE",
"116 644 LINE",
"118 631 OFFCURVE",
"125 585 OFFCURVE",
"125 568 CURVE SMOOTH",
"125 137 LINE SMOOTH",
"125 120 OFFCURVE",
"118 74 OFFCURVE",
"116 61 CURVE",
"37 45 LINE",
"42 -5 LINE",
"42 -5 OFFCURVE",
"152 0 OFFCURVE",
"177 0 CURVE SMOOTH",
"371 0 LINE SMOOTH",
"391 0 OFFCURVE",
"485 -4 OFFCURVE",
"485 -4 CURVE",
"504 14 LINE",
"519 165 LINE",
"464 170 LINE",
"462 154 OFFCURVE",
"453 118 OFFCURVE",
"449 103 CURVE",
"448 96 OFFCURVE",
"438 80 OFFCURVE",
"428 66 CURVE",
"406 62 OFFCURVE",
"372 57 OFFCURVE",
"341 57 CURVE SMOOTH",
"223 57 LINE",
"221 72 OFFCURVE",
"216 126 OFFCURVE",
"216 167 CURVE SMOOTH",
"216 538 LINE SMOOTH",
"216 580 OFFCURVE",
"221 630 OFFCURVE",
"223 644 CURVE",
"311 651 LINE",
"307 710 LINE",
"307 710 OFFCURVE",
"219 705 OFFCURVE",
"159 705 CURVE SMOOTH"
);
}
);
width = 542;
},
{
layerId = "6AAAC2AB-C0B6-4874-B22A-447CC2571A39";
name = Bold;
paths = (
{
closed = 1;
nodes = (
"82 731 LINE",
"327 810 LINE",
"293 886 LINE",
"57 783 LINE"
);
},
{
closed = 1;
nodes = (
"551 190 LINE",
"481 195 LINE",
"479 179 OFFCURVE",
"473 153 OFFCURVE",
"469 138 CURVE",
"468 132 OFFCURVE",
"459 114 OFFCURVE",
"450 95 CURVE",
"431 91 OFFCURVE",
"402 87 OFFCURVE",
"373 87 CURVE SMOOTH",
"279 87 LINE",
"276 110 OFFCURVE",
"271 159 OFFCURVE",
"271 193 CURVE SMOOTH",
"271 512 LINE SMOOTH",
"271 552 OFFCURVE",
"277 608 OFFCURVE",
"280 623 CURVE",
"356 629 LINE",
"351 710 LINE",
"351 710 OFFCURVE",
"247 705 OFFCURVE",
"167 705 CURVE SMOOTH",
"137 705 OFFCURVE",
"47 710 OFFCURVE",
"47 710 CURVE",
"42 635 LINE",
"107 623 LINE",
"109 607 OFFCURVE",
"116 562 OFFCURVE",
"116 542 CURVE SMOOTH",
"116 163 LINE SMOOTH",
"116 143 OFFCURVE",
"108 87 OFFCURVE",
"107 77 CURVE",
"41 65 LINE",
"46 -5 LINE",
"46 -5 OFFCURVE",
"166 0 OFFCURVE",
"196 0 CURVE SMOOTH",
"403 0 LINE SMOOTH",
"423 0 OFFCURVE",
"517 -4 OFFCURVE",
"517 -4 CURVE",
"536 14 LINE"
);
}
);
width = 577;
}
);
unicode = 0139;
},
{
glyphname = Lcaron;
lastChange = "2015-07-04 08:47:36 +0000";
layers = (
{
layerId = "A04BFA18-C442-4494-B826-EAC83DBBD8AC";
name = Regular;
paths = (
{
closed = 1;
nodes = (
"139 705 OFFCURVE",
"44 710 OFFCURVE",
"44 710 CURVE",
"39 656 LINE",
"116 644 LINE",
"118 631 OFFCURVE",
"125 585 OFFCURVE",
"125 568 CURVE SMOOTH",
"125 137 LINE SMOOTH",
"125 120 OFFCURVE",
"118 74 OFFCURVE",
"116 61 CURVE",
"37 45 LINE",
"42 -5 LINE",
"42 -5 OFFCURVE",
"152 0 OFFCURVE",
"177 0 CURVE SMOOTH",
"371 0 LINE SMOOTH",
"391 0 OFFCURVE",
"485 -4 OFFCURVE",
"485 -4 CURVE",
"504 14 LINE",
"519 165 LINE",
"464 170 LINE",
"462 154 OFFCURVE",
"453 118 OFFCURVE",
"449 103 CURVE",
"448 96 OFFCURVE",
"438 80 OFFCURVE",
"428 66 CURVE",
"406 62 OFFCURVE",
"372 57 OFFCURVE",
"341 57 CURVE SMOOTH",
"223 57 LINE",
"221 72 OFFCURVE",
"216 126 OFFCURVE",
"216 167 CURVE SMOOTH",
"216 538 LINE SMOOTH",
"216 580 OFFCURVE",
"221 630 OFFCURVE",
"223 644 CURVE",
"311 651 LINE",
"307 710 LINE",
"307 710 OFFCURVE",
"219 705 OFFCURVE",
"159 705 CURVE SMOOTH"
);
},
{
closed = 1;
nodes = (
"396 465 LINE",
"388 705 LINE",
"465 705 LINE",
"452 462 LINE"
);
}
);
width = 542;
},
{
layerId = "6AAAC2AB-C0B6-4874-B22A-447CC2571A39";
name = Bold;
paths = (
{
closed = 1;
nodes = (
"551 190 LINE",
"481 195 LINE",
"479 179 OFFCURVE",
"473 153 OFFCURVE",
"469 138 CURVE",
"468 132 OFFCURVE",
"459 114 OFFCURVE",
"450 95 CURVE",
"431 91 OFFCURVE",
"402 87 OFFCURVE",
"373 87 CURVE SMOOTH",
"279 87 LINE",
"276 110 OFFCURVE",
"271 159 OFFCURVE",
"271 193 CURVE SMOOTH",
"271 512 LINE SMOOTH",
"271 552 OFFCURVE",
"277 608 OFFCURVE",
"280 623 CURVE",
"356 629 LINE",
"351 710 LINE",
"351 710 OFFCURVE",
"247 705 OFFCURVE",
"167 705 CURVE SMOOTH",
"137 705 OFFCURVE",
"47 710 OFFCURVE",
"47 710 CURVE",
"42 635 LINE",
"107 623 LINE",
"109 607 OFFCURVE",
"116 562 OFFCURVE",
"116 542 CURVE SMOOTH",
"116 163 LINE SMOOTH",
"116 143 OFFCURVE",
"108 87 OFFCURVE",
"107 77 CURVE",
"41 65 LINE",
"46 -5 LINE",
"46 -5 OFFCURVE",
"166 0 OFFCURVE",
"196 0 CURVE SMOOTH",
"403 0 LINE SMOOTH",
"423 0 OFFCURVE",
"517 -4 OFFCURVE",
"517 -4 CURVE",
"536 14 LINE"
);
},
{
closed = 1;
nodes = (
"405 465 LINE",
"479 460 LINE",
"492 705 LINE",
"397 705 LINE"
);
}
);
width = 577;
}
);
leftKerningGroup = B;
rightKerningGroup = L;
unicode = 013D;
},
{
glyphname = Lcommaaccent;
lastChange = "2015-07-04 08:47:36 +0000";
layers = (
{
layerId = "A04BFA18-C442-4494-B826-EAC83DBBD8AC";
name = Regular;
paths = (
{
closed = 1;
nodes = (
"139 705 OFFCURVE",
"44 710 OFFCURVE",
"44 710 CURVE",
"39 656 LINE",
"116 644 LINE",
"118 631 OFFCURVE",
"125 585 OFFCURVE",
"125 568 CURVE SMOOTH",
"125 137 LINE SMOOTH",
"125 120 OFFCURVE",
"118 74 OFFCURVE",
"116 61 CURVE",
"37 45 LINE",
"42 -5 LINE",
"42 -5 OFFCURVE",
"152 0 OFFCURVE",
"177 0 CURVE SMOOTH",
"371 0 LINE SMOOTH",
"391 0 OFFCURVE",
"485 -4 OFFCURVE",
"485 -4 CURVE",
"504 14 LINE",
"519 165 LINE",
"464 170 LINE",
"462 154 OFFCURVE",
"453 118 OFFCURVE",
"449 103 CURVE",
"448 96 OFFCURVE",
"438 80 OFFCURVE",
"428 66 CURVE",
"406 62 OFFCURVE",
"372 57 OFFCURVE",
"341 57 CURVE SMOOTH",
"223 57 LINE",
"221 72 OFFCURVE",
"216 126 OFFCURVE",
"216 167 CURVE SMOOTH",
"216 538 LINE SMOOTH",
"216 580 OFFCURVE",
"221 630 OFFCURVE",
"223 644 CURVE",
"311 651 LINE",
"307 710 LINE",
"307 710 OFFCURVE",
"219 705 OFFCURVE",
"159 705 CURVE SMOOTH"
);
},
{
closed = 1;
nodes = (
"214 -67 OFFCURVE",
"240 -50 OFFCURVE",
"264 -50 CURVE SMOOTH",
"297 -50 OFFCURVE",
"316 -72 OFFCURVE",
"316 -114 CURVE SMOOTH",
"316 -169 OFFCURVE",
"269 -249 OFFCURVE",
"269 -249 CURVE",
"232 -237 LINE",
"232 -237 OFFCURVE",
"247 -184 OFFCURVE",
"247 -158 CURVE",
"237 -154 OFFCURVE",
"214 -140 OFFCURVE",
"214 -106 CURVE SMOOTH"
);
}
);
width = 542;
},
{
layerId = "6AAAC2AB-C0B6-4874-B22A-447CC2571A39";
name = Bold;
paths = (
{
closed = 1;
nodes = (
"551 190 LINE",
"481 195 LINE",
"479 179 OFFCURVE",
"473 153 OFFCURVE",
"469 138 CURVE",
"468 132 OFFCURVE",
"459 114 OFFCURVE",
"450 95 CURVE",
"431 91 OFFCURVE",
"402 87 OFFCURVE",
"373 87 CURVE SMOOTH",
"279 87 LINE",
"276 110 OFFCURVE",
"271 159 OFFCURVE",
"271 193 CURVE SMOOTH",
"271 512 LINE SMOOTH",
"271 552 OFFCURVE",
"277 608 OFFCURVE",
"280 623 CURVE",
"356 629 LINE",
"351 710 LINE",
"351 710 OFFCURVE",
"247 705 OFFCURVE",
"167 705 CURVE SMOOTH",
"137 705 OFFCURVE",
"47 710 OFFCURVE",
"47 710 CURVE",
"42 635 LINE",
"107 623 LINE",
"109 607 OFFCURVE",
"116 562 OFFCURVE",
"116 542 CURVE SMOOTH",
"116 163 LINE SMOOTH",
"116 143 OFFCURVE",
"108 87 OFFCURVE",
"107 77 CURVE",
"41 65 LINE",
"46 -5 LINE",
"46 -5 OFFCURVE",
"166 0 OFFCURVE",
"196 0 CURVE SMOOTH",
"403 0 LINE SMOOTH",
"423 0 OFFCURVE",
"517 -4 OFFCURVE",
"517 -4 CURVE",
"536 14 LINE"
);
},
{
closed = 1;
nodes = (
"254 -50 OFFCURVE",
"221 -70 OFFCURVE",
"221 -116 CURVE SMOOTH",
"221 -151 OFFCURVE",
"250 -166 OFFCURVE",
"262 -170 CURVE",
"262 -197 OFFCURVE",
"244 -252 OFFCURVE",
"244 -252 CURVE",
"290 -264 LINE",
"290 -264 OFFCURVE",
"351 -181 OFFCURVE",
"351 -124 CURVE SMOOTH",
"351 -76 OFFCURVE",
"327 -50 OFFCURVE",
"285 -50 CURVE SMOOTH"
);
}
);
width = 577;
}
);
leftKerningGroup = B;
rightKerningGroup = L;
unicode = 013B;
},
{
glyphname = Ldot;
lastChange = "2015-07-04 08:47:36 +0000";
layers = (
{
layerId = "A04BFA18-C442-4494-B826-EAC83DBBD8AC";
name = Regular;
paths = (
{
closed = 1;
nodes = (
"139 705 OFFCURVE",
"44 710 OFFCURVE",
"44 710 CURVE",
"39 656 LINE",
"116 644 LINE",
"118 631 OFFCURVE",
"125 585 OFFCURVE",
"125 568 CURVE SMOOTH",
"125 137 LINE SMOOTH",
"125 120 OFFCURVE",
"118 74 OFFCURVE",
"116 61 CURVE",
"37 45 LINE",
"42 -5 LINE",
"42 -5 OFFCURVE",
"152 0 OFFCURVE",
"177 0 CURVE SMOOTH",
"371 0 LINE SMOOTH",
"391 0 OFFCURVE",
"485 -4 OFFCURVE",
"485 -4 CURVE",
"504 14 LINE",
"519 165 LINE",
"464 170 LINE",
"462 154 OFFCURVE",
"453 118 OFFCURVE",
"449 103 CURVE",
"448 96 OFFCURVE",
"438 80 OFFCURVE",
"428 66 CURVE",
"406 62 OFFCURVE",
"372 57 OFFCURVE",
"341 57 CURVE SMOOTH",
"223 57 LINE",
"221 72 OFFCURVE",
"216 126 OFFCURVE",
"216 167 CURVE SMOOTH",
"216 538 LINE SMOOTH",
"216 580 OFFCURVE",
"221 630 OFFCURVE",
"223 644 CURVE",
"311 651 LINE",
"307 710 LINE",
"307 710 OFFCURVE",
"219 705 OFFCURVE",
"159 705 CURVE SMOOTH"
);
},
{
closed = 1;
nodes = (
"344 447 OFFCURVE",
"323 420 OFFCURVE",
"323 382 CURVE SMOOTH",
"323 344 OFFCURVE",
"344 318 OFFCURVE",
"382 318 CURVE SMOOTH",
"420 318 OFFCURVE",
"441 344 OFFCURVE",
"441 382 CURVE SMOOTH",
"441 423 OFFCURVE",
"419 447 OFFCURVE",
"382 447 CURVE SMOOTH"
);
}
);
width = 542;
},
{
layerId = "6AAAC2AB-C0B6-4874-B22A-447CC2571A39";
name = Bold;
paths = (
{
closed = 1;
nodes = (
"551 190 LINE",
"481 195 LINE",
"479 179 OFFCURVE",
"473 153 OFFCURVE",
"469 138 CURVE",
"468 132 OFFCURVE",
"459 114 OFFCURVE",
"450 95 CURVE",
"431 91 OFFCURVE",
"402 87 OFFCURVE",
"373 87 CURVE SMOOTH",
"279 87 LINE",
"276 110 OFFCURVE",
"271 159 OFFCURVE",
"271 193 CURVE SMOOTH",
"271 512 LINE SMOOTH",
"271 552 OFFCURVE",
"277 608 OFFCURVE",
"280 623 CURVE",
"356 629 LINE",
"351 710 LINE",
"351 710 OFFCURVE",
"247 705 OFFCURVE",
"167 705 CURVE SMOOTH",
"137 705 OFFCURVE",
"47 710 OFFCURVE",
"47 710 CURVE",
"42 635 LINE",
"107 623 LINE",
"109 607 OFFCURVE",
"116 562 OFFCURVE",
"116 542 CURVE SMOOTH",
"116 163 LINE SMOOTH",
"116 143 OFFCURVE",
"108 87 OFFCURVE",
"107 77 CURVE",
"41 65 LINE",
"46 -5 LINE",
"46 -5 OFFCURVE",
"166 0 OFFCURVE",
"196 0 CURVE SMOOTH",
"403 0 LINE SMOOTH",
"423 0 OFFCURVE",
"517 -4 OFFCURVE",
"517 -4 CURVE",
"536 14 LINE"
);
},
{
closed = 1;
nodes = (
"481 303 OFFCURVE",
"508 334 OFFCURVE",
"508 379 CURVE SMOOTH",
"508 427 OFFCURVE",
"479 456 OFFCURVE",
"432 456 CURVE SMOOTH",
"383 456 OFFCURVE",
"356 424 OFFCURVE",
"356 379 CURVE SMOOTH",
"356 334 OFFCURVE",
"383 303 OFFCURVE",
"432 303 CURVE SMOOTH"
);
}
);
width = 577;
}
);
leftKerningGroup = B;
rightKerningGroup = L;
unicode = 013F;
},
{
glyphname = Lslash;
lastChange = "2015-07-04 08:47:36 +0000";
layers = (
{
layerId = "A04BFA18-C442-4494-B826-EAC83DBBD8AC";
name = Regular;
paths = (
{
closed = 1;
nodes = (
"520 165 LINE",
"465 170 LINE",
"463 154 OFFCURVE",
"454 118 OFFCURVE",
"450 103 CURVE",
"449 96 OFFCURVE",
"439 80 OFFCURVE",
"429 66 CURVE",
"407 62 OFFCURVE",
"373 57 OFFCURVE",
"342 57 CURVE SMOOTH",
"224 57 LINE",
"222 72 OFFCURVE",
"217 126 OFFCURVE",
"217 167 CURVE SMOOTH",
"217 390 LINE",
"367 445 LINE",
"357 488 LINE",
"217 437 LINE",
"217 538 LINE SMOOTH",
"217 580 OFFCURVE",
"222 630 OFFCURVE",
"224 644 CURVE",
"312 651 LINE",
"308 710 LINE",
"308 710 OFFCURVE",
"220 705 OFFCURVE",
"160 705 CURVE SMOOTH",
"140 705 OFFCURVE",
"45 710 OFFCURVE",
"45 710 CURVE",
"40 656 LINE",
"117 644 LINE",
"119 631 OFFCURVE",
"126 585 OFFCURVE",
"126 568 CURVE SMOOTH",
"126 404 LINE",
"34 371 LINE",
"49 329 LINE",
"126 357 LINE",
"126 137 LINE SMOOTH",
"126 120 OFFCURVE",
"119 74 OFFCURVE",
"117 61 CURVE",
"38 45 LINE",
"43 -5 LINE",
"43 -5 OFFCURVE",
"153 0 OFFCURVE",
"178 0 CURVE SMOOTH",
"372 0 LINE SMOOTH",
"392 0 OFFCURVE",
"486 -4 OFFCURVE",
"486 -4 CURVE",
"505 14 LINE"
);
}
);
width = 543;
},
{
layerId = "6AAAC2AB-C0B6-4874-B22A-447CC2571A39";
name = Bold;
paths = (
{
closed = 1;
nodes = (
"584 190 LINE",
"514 195 LINE",
"512 179 OFFCURVE",
"506 153 OFFCURVE",
"502 138 CURVE",
"501 132 OFFCURVE",
"492 114 OFFCURVE",
"483 95 CURVE",
"464 91 OFFCURVE",
"435 87 OFFCURVE",
"406 87 CURVE SMOOTH",
"312 87 LINE",
"309 110 OFFCURVE",
"304 159 OFFCURVE",
"304 193 CURVE SMOOTH",
"304 409 LINE",
"442 459 LINE",
"429 523 LINE",
"304 477 LINE",
"304 512 LINE SMOOTH",
"304 552 OFFCURVE",
"310 608 OFFCURVE",
"313 623 CURVE",
"389 629 LINE",
"384 710 LINE",
"384 710 OFFCURVE",
"280 705 OFFCURVE",
"200 705 CURVE SMOOTH",
"170 705 OFFCURVE",
"80 710 OFFCURVE",
"80 710 CURVE",
"75 635 LINE",
"140 623 LINE",
"142 607 OFFCURVE",
"149 562 OFFCURVE",
"149 542 CURVE SMOOTH",
"149 421 LINE",
"23 375 LINE",
"45 315 LINE",
"149 353 LINE",
"149 163 LINE SMOOTH",
"149 143 OFFCURVE",
"141 87 OFFCURVE",
"140 77 CURVE",
"74 65 LINE",
"79 -5 LINE",
"79 -5 OFFCURVE",
"199 0 OFFCURVE",
"229 0 CURVE SMOOTH",
"436 0 LINE SMOOTH",
"456 0 OFFCURVE",
"550 -4 OFFCURVE",
"550 -4 CURVE",
"569 14 LINE"
);
}
);
width = 610;
}
);
leftKerningGroup = B;
rightKerningGroup = L;
unicode = 0141;
},
{
glyphname = M;
lastChange = "2015-07-04 08:47:36 +0000";
layers = (
{
layerId = "A04BFA18-C442-4494-B826-EAC83DBBD8AC";
name = Regular;
paths = (
{
closed = 1;
nodes = (
"662 705 LINE",
"642 685 LINE",
"642 685 OFFCURVE",
"599 559 OFFCURVE",
"589 537 CURVE",
"453 175 LINE",
"320 529 LINE SMOOTH",
"311 553 OFFCURVE",
"268 684 OFFCURVE",
"268 684 CURVE",
"249 705 LINE",
"170 705 LINE SMOOTH",
"150 705 OFFCURVE",
"55 710 OFFCURVE",
"55 710 CURVE",
"50 656 LINE",
"132 644 LINE",
"134 630 OFFCURVE",
"137 586 OFFCURVE",
"136 569 CURVE SMOOTH",
"110 137 LINE SMOOTH",
"109 120 OFFCURVE",
"96 74 OFFCURVE",
"93 61 CURVE",
"15 45 LINE",
"20 -5 LINE",
"20 -5 OFFCURVE",
"121 0 OFFCURVE",
"141 0 CURVE SMOOTH",
"256 0 LINE",
"263 54 LINE",
"182 61 LINE",
"181 77 OFFCURVE",
"175 139 OFFCURVE",
"177 167 CURVE SMOOTH",
"201 584 LINE",
"420 0 LINE",
"456 0 LINE",
"675 584 LINE",
"703 137 LINE SMOOTH",
"705 109 OFFCURVE",
"698 76 OFFCURVE",
"697 61 CURVE",
"620 45 LINE",
"625 -5 LINE",
"625 -5 OFFCURVE",
"735 0 OFFCURVE",
"760 0 CURVE SMOOTH",
"889 0 LINE",
"896 54 LINE",
"814 61 LINE",
"811 74 OFFCURVE",
"796 150 OFFCURVE",
"795 167 CURVE SMOOTH",
"766 538 LINE SMOOTH",
"765 555 OFFCURVE",
"766 602 OFFCURVE",
"767 644 CURVE",
"847 651 LINE",
"843 710 LINE",
"843 710 OFFCURVE",
"748 705 OFFCURVE",
"688 705 CURVE SMOOTH"
);
}
);
width = 910;
},
{
layerId = "6AAAC2AB-C0B6-4874-B22A-447CC2571A39";
name = Bold;
paths = (
{
closed = 1;
nodes = (
"650 705 LINE",
"630 685 LINE",
"630 685 OFFCURVE",
"597 572 OFFCURVE",
"589 549 CURVE SMOOTH",
"477 221 LINE",
"374 534 LINE SMOOTH",
"362 571 OFFCURVE",
"331 685 OFFCURVE",
"331 685 CURVE",
"311 705 LINE",
"184 705 LINE SMOOTH",
"164 705 OFFCURVE",
"64 710 OFFCURVE",
"64 710 CURVE",
"59 635 LINE",
"126 623 LINE",
"127 605 OFFCURVE",
"131 562 OFFCURVE",
"130 542 CURVE SMOOTH",
"106 163 LINE SMOOTH",
"105 143 OFFCURVE",
"96 95 OFFCURVE",
"91 77 CURVE",
"22 65 LINE",
"27 -5 LINE",
"27 -5 OFFCURVE",
"117 0 OFFCURVE",
"147 0 CURVE SMOOTH",
"282 0 LINE",
"288 71 LINE",
"220 77 LINE",
"218 100 OFFCURVE",
"216 153 OFFCURVE",
"218 193 CURVE SMOOTH",
"235 518 LINE",
"414 0 LINE",
"506 0 LINE",
"690 518 LINE",
"706 163 LINE SMOOTH",
"707 143 OFFCURVE",
"704 100 OFFCURVE",
"702 77 CURVE",
"636 65 LINE",
"641 -5 LINE",
"641 -5 OFFCURVE",
"751 0 OFFCURVE",
"781 0 CURVE SMOOTH",
"923 0 LINE",
"928 71 LINE",
"861 77 LINE",
"857 95 OFFCURVE",
"847 152 OFFCURVE",
"844 192 CURVE SMOOTH",
"820 512 LINE SMOOTH",
"817 552 OFFCURVE",
"818 595 OFFCURVE",
"819 623 CURVE",
"884 629 LINE",
"879 710 LINE",
"879 710 OFFCURVE",
"802 705 OFFCURVE",
"747 705 CURVE SMOOTH"
);
}
);
width = 951;
}
);
leftKerningGroup = M;
rightKerningGroup = M;
unicode = 004D;
},
{
glyphname = N;
lastChange = "2015-07-04 08:47:36 +0000";
layers = (
{
layerId = "A04BFA18-C442-4494-B826-EAC83DBBD8AC";
name = Regular;
paths = (
{
closed = 1;
nodes = (
"730 651 LINE",
"652 644 LINE",
"649 630 OFFCURVE",
"637 580 OFFCURVE",
"637 538 CURVE SMOOTH",
"636 0 LINE",
"576 0 LINE",
"182 556 LINE",
"182 167 LINE SMOOTH",
"182 125 OFFCURVE",
"187 75 OFFCURVE",
"189 61 CURVE",
"270 54 LINE",
"263 0 LINE",
"154 0 LINE SMOOTH",
"129 0 OFFCURVE",
"33 -5 OFFCURVE",
"33 -5 CURVE",
"28 45 LINE",
"106 61 LINE",
"108 74 OFFCURVE",
"115 120 OFFCURVE",
"115 137 CURVE SMOOTH",
"115 568 LINE SMOOTH",
"115 584 OFFCURVE",
"108 629 OFFCURVE",
"106 644 CURVE",
"26 656 LINE",
"31 710 LINE",
"31 710 OFFCURVE",
"126 705 OFFCURVE",
"146 705 CURVE SMOOTH",
"191 706 LINE",
"211 685 LINE",
"211 685 OFFCURVE",
"292 552 OFFCURVE",
"308 530 CURVE SMOOTH",
"570 168 LINE",
"570 568 LINE SMOOTH",
"570 584 OFFCURVE",
"564 626 OFFCURVE",
"561 644 CURVE",
"483 656 LINE",
"488 710 LINE",
"516 708 OFFCURVE",
"575 705 OFFCURVE",
"595 705 CURVE SMOOTH",
"655 705 OFFCURVE",
"726 710 OFFCURVE",
"726 710 CURVE"
);
}
);
width = 744;
},
{
layerId = "6AAAC2AB-C0B6-4874-B22A-447CC2571A39";
name = Bold;
paths = (
{
closed = 1;
nodes = (
"778 629 LINE",
"712 623 LINE",
"710 611 OFFCURVE",
"703 552 OFFCURVE",
"703 512 CURVE SMOOTH",
"703 0 LINE",
"568 0 LINE",
"243 450 LINE",
"243 193 LINE SMOOTH",
"243 153 OFFCURVE",
"251 87 OFFCURVE",
"252 77 CURVE",
"317 71 LINE",
"312 0 LINE",
"176 0 LINE SMOOTH",
"146 0 OFFCURVE",
"46 -5 OFFCURVE",
"46 -5 CURVE",
"41 65 LINE",
"107 77 LINE",
"109 88 OFFCURVE",
"116 143 OFFCURVE",
"116 163 CURVE SMOOTH",
"116 542 LINE SMOOTH",
"116 562 OFFCURVE",
"109 612 OFFCURVE",
"107 623 CURVE",
"42 635 LINE",
"47 710 LINE",
"47 710 OFFCURVE",
"137 705 OFFCURVE",
"157 705 CURVE SMOOTH",
"249 705 LINE",
"268 685 LINE",
"268 685 OFFCURVE",
"341 559 OFFCURVE",
"356 537 CURVE SMOOTH",
"576 230 LINE",
"576 542 LINE SMOOTH",
"576 562 OFFCURVE",
"569 607 OFFCURVE",
"567 623 CURVE",
"502 635 LINE",
"507 710 LINE",
"542 708 OFFCURVE",
"591 705 OFFCURVE",
"611 705 CURVE SMOOTH",
"681 705 OFFCURVE",
"773 710 OFFCURVE",
"773 710 CURVE"
);
}
);
width = 810;
}
);
leftKerningGroup = B;
unicode = 004E;
},
{
glyphname = Nacute;
lastChange = "2015-07-04 08:47:36 +0000";
layers = (
{
layerId = "A04BFA18-C442-4494-B826-EAC83DBBD8AC";
name = Regular;
paths = (
{
closed = 1;
nodes = (
"278 731 LINE",
"513 823 LINE",
"483 886 LINE",
"260 772 LINE"
);
},
{
closed = 1;
nodes = (
"730 651 LINE",
"652 644 LINE",
"649 630 OFFCURVE",
"637 580 OFFCURVE",
"637 538 CURVE SMOOTH",
"636 0 LINE",
"576 0 LINE",
"182 556 LINE",
"182 167 LINE SMOOTH",
"182 125 OFFCURVE",
"187 75 OFFCURVE",
"189 61 CURVE",
"270 54 LINE",
"263 0 LINE",
"154 0 LINE SMOOTH",
"129 0 OFFCURVE",
"33 -5 OFFCURVE",
"33 -5 CURVE",
"28 45 LINE",
"106 61 LINE",
"108 74 OFFCURVE",
"115 120 OFFCURVE",
"115 137 CURVE SMOOTH",
"115 568 LINE SMOOTH",
"115 584 OFFCURVE",
"108 629 OFFCURVE",
"106 644 CURVE",
"26 656 LINE",
"31 710 LINE",
"31 710 OFFCURVE",
"126 705 OFFCURVE",
"146 705 CURVE SMOOTH",
"191 706 LINE",
"211 685 LINE",
"211 685 OFFCURVE",
"292 552 OFFCURVE",
"308 530 CURVE SMOOTH",
"570 168 LINE",
"570 568 LINE SMOOTH",
"570 584 OFFCURVE",
"564 626 OFFCURVE",
"561 644 CURVE",
"483 656 LINE",
"488 710 LINE",
"516 708 OFFCURVE",
"575 705 OFFCURVE",
"595 705 CURVE SMOOTH",
"655 705 OFFCURVE",
"726 710 OFFCURVE",
"726 710 CURVE"
);
}
);
width = 744;
},
{
layerId = "6AAAC2AB-C0B6-4874-B22A-447CC2571A39";
name = Bold;
paths = (
{
closed = 1;
nodes = (
"300 731 LINE",
"545 810 LINE",
"511 886 LINE",
"275 783 LINE"
);
},
{
closed = 1;
nodes = (
"778 629 LINE",
"712 623 LINE",
"710 611 OFFCURVE",
"703 552 OFFCURVE",
"703 512 CURVE SMOOTH",
"703 0 LINE",
"568 0 LINE",
"243 450 LINE",
"243 193 LINE SMOOTH",
"243 153 OFFCURVE",
"251 87 OFFCURVE",
"252 77 CURVE",
"317 71 LINE",
"312 0 LINE",
"176 0 LINE SMOOTH",
"146 0 OFFCURVE",
"46 -5 OFFCURVE",
"46 -5 CURVE",
"41 65 LINE",
"107 77 LINE",
"109 88 OFFCURVE",
"116 143 OFFCURVE",
"116 163 CURVE SMOOTH",
"116 542 LINE SMOOTH",
"116 562 OFFCURVE",
"109 612 OFFCURVE",
"107 623 CURVE",
"42 635 LINE",
"47 710 LINE",
"47 710 OFFCURVE",
"137 705 OFFCURVE",
"157 705 CURVE SMOOTH",
"249 705 LINE",
"268 685 LINE",
"268 685 OFFCURVE",
"341 559 OFFCURVE",
"356 537 CURVE SMOOTH",
"576 230 LINE",
"576 542 LINE SMOOTH",
"576 562 OFFCURVE",
"569 607 OFFCURVE",
"567 623 CURVE",
"502 635 LINE",
"507 710 LINE",
"542 708 OFFCURVE",
"591 705 OFFCURVE",
"611 705 CURVE SMOOTH",
"681 705 OFFCURVE",
"773 710 OFFCURVE",
"773 710 CURVE"
);
}
);
width = 810;
}
);
unicode = 0143;
},
{
glyphname = Ncaron;
lastChange = "2015-07-04 08:47:36 +0000";
layers = (
{
layerId = "A04BFA18-C442-4494-B826-EAC83DBBD8AC";
name = Regular;
paths = (
{
closed = 1;
nodes = (
"330 736 LINE",
"396 736 LINE",
"536 826 LINE",
"513 862 LINE",
"363 794 LINE",
"213 862 LINE",
"190 826 LINE"
);
},
{
closed = 1;
nodes = (
"730 651 LINE",
"726 710 LINE",
"726 710 OFFCURVE",
"655 705 OFFCURVE",
"595 705 CURVE SMOOTH",
"575 705 OFFCURVE",
"516 708 OFFCURVE",
"488 710 CURVE",
"483 656 LINE",
"561 644 LINE",
"564 626 OFFCURVE",
"570 584 OFFCURVE",
"570 568 CURVE SMOOTH",
"570 168 LINE",
"308 530 LINE SMOOTH",
"292 552 OFFCURVE",
"211 685 OFFCURVE",
"211 685 CURVE",
"191 706 LINE",
"146 705 LINE SMOOTH",
"126 705 OFFCURVE",
"31 710 OFFCURVE",
"31 710 CURVE",
"26 656 LINE",
"106 644 LINE",
"108 629 OFFCURVE",
"115 584 OFFCURVE",
"115 568 CURVE SMOOTH",
"115 137 LINE SMOOTH",
"115 120 OFFCURVE",
"108 74 OFFCURVE",
"106 61 CURVE",
"28 45 LINE",
"33 -5 LINE",
"33 -5 OFFCURVE",
"129 0 OFFCURVE",
"154 0 CURVE SMOOTH",
"263 0 LINE",
"270 54 LINE",
"189 61 LINE",
"187 75 OFFCURVE",
"182 125 OFFCURVE",
"182 167 CURVE SMOOTH",
"182 556 LINE",
"576 0 LINE",
"636 0 LINE",
"637 538 LINE SMOOTH",
"637 580 OFFCURVE",
"649 630 OFFCURVE",
"652 644 CURVE"
);
}
);
width = 744;
},
{
layerId = "6AAAC2AB-C0B6-4874-B22A-447CC2571A39";
name = Bold;
paths = (
{
closed = 1;
nodes = (
"354 736 LINE",
"452 736 LINE",
"588 831 LINE",
"554 876 LINE",
"403 801 LINE",
"252 876 LINE",
"218 831 LINE"
);
},
{
closed = 1;
nodes = (
"778 629 LINE",
"773 710 LINE",
"773 710 OFFCURVE",
"681 705 OFFCURVE",
"611 705 CURVE SMOOTH",
"591 705 OFFCURVE",
"542 708 OFFCURVE",
"507 710 CURVE",
"502 635 LINE",
"567 623 LINE",
"569 607 OFFCURVE",
"576 562 OFFCURVE",
"576 542 CURVE SMOOTH",
"576 230 LINE",
"356 537 LINE SMOOTH",
"341 559 OFFCURVE",
"268 685 OFFCURVE",
"268 685 CURVE",
"249 705 LINE",
"157 705 LINE SMOOTH",
"137 705 OFFCURVE",
"47 710 OFFCURVE",
"47 710 CURVE",
"42 635 LINE",
"107 623 LINE",
"109 612 OFFCURVE",
"116 562 OFFCURVE",
"116 542 CURVE SMOOTH",
"116 163 LINE SMOOTH",
"116 143 OFFCURVE",
"109 88 OFFCURVE",
"107 77 CURVE",
"41 65 LINE",
"46 -5 LINE",
"46 -5 OFFCURVE",
"146 0 OFFCURVE",
"176 0 CURVE SMOOTH",
"312 0 LINE",
"317 71 LINE",
"252 77 LINE",
"251 87 OFFCURVE",
"243 153 OFFCURVE",
"243 193 CURVE SMOOTH",
"243 450 LINE",
"568 0 LINE",
"703 0 LINE",
"703 512 LINE SMOOTH",
"703 552 OFFCURVE",
"710 611 OFFCURVE",
"712 623 CURVE"
);
}
);
width = 810;
}
);
unicode = 0147;
},
{
glyphname = Ntilde;
lastChange = "2015-07-04 08:47:36 +0000";
layers = (
{
layerId = "A04BFA18-C442-4494-B826-EAC83DBBD8AC";
name = Regular;
paths = (
{
closed = 1;
nodes = (
"498 864 LINE",
"498 864 OFFCURVE",
"472 813 OFFCURVE",
"445 813 CURVE SMOOTH",
"405 813 OFFCURVE",
"320 854 OFFCURVE",
"280 854 CURVE SMOOTH",
"240 854 OFFCURVE",
"198 753 OFFCURVE",
"198 753 CURVE",
"234 732 LINE",
"234 732 OFFCURVE",
"260 786 OFFCURVE",
"287 786 CURVE SMOOTH",
"327 786 OFFCURVE",
"411 745 OFFCURVE",
"451 745 CURVE SMOOTH",
"491 745 OFFCURVE",
"534 843 OFFCURVE",
"534 843 CURVE"
);
},
{
closed = 1;
nodes = (
"730 651 LINE",
"652 644 LINE",
"649 630 OFFCURVE",
"637 580 OFFCURVE",
"637 538 CURVE SMOOTH",
"636 0 LINE",
"576 0 LINE",
"182 556 LINE",
"182 167 LINE SMOOTH",
"182 125 OFFCURVE",
"187 75 OFFCURVE",
"189 61 CURVE",
"270 54 LINE",
"263 0 LINE",
"154 0 LINE SMOOTH",
"129 0 OFFCURVE",
"33 -5 OFFCURVE",
"33 -5 CURVE",
"28 45 LINE",
"106 61 LINE",
"108 74 OFFCURVE",
"115 120 OFFCURVE",
"115 137 CURVE SMOOTH",
"115 568 LINE SMOOTH",
"115 584 OFFCURVE",
"108 629 OFFCURVE",
"106 644 CURVE",
"26 656 LINE",
"31 710 LINE",
"31 710 OFFCURVE",
"126 705 OFFCURVE",
"146 705 CURVE SMOOTH",
"191 706 LINE",
"211 685 LINE",
"211 685 OFFCURVE",
"292 552 OFFCURVE",
"308 530 CURVE SMOOTH",
"570 168 LINE",
"570 568 LINE SMOOTH",
"570 584 OFFCURVE",
"564 626 OFFCURVE",
"561 644 CURVE",
"483 656 LINE",
"488 710 LINE",
"516 708 OFFCURVE",
"575 705 OFFCURVE",
"595 705 CURVE SMOOTH",
"655 705 OFFCURVE",
"726 710 OFFCURVE",
"726 710 CURVE"
);
}
);
width = 744;
},
{
layerId = "6AAAC2AB-C0B6-4874-B22A-447CC2571A39";
name = Bold;
paths = (
{
closed = 1;
nodes = (
"532 864 LINE",
"532 864 OFFCURVE",
"511 826 OFFCURVE",
"487 826 CURVE SMOOTH",
"445 826 OFFCURVE",
"344 864 OFFCURVE",
"302 864 CURVE SMOOTH",
"259 864 OFFCURVE",
"213 759 OFFCURVE",
"213 759 CURVE",
"260 731 LINE",
"260 731 OFFCURVE",
"285 773 OFFCURVE",
"309 773 CURVE SMOOTH",
"352 773 OFFCURVE",
"451 735 OFFCURVE",
"494 735 CURVE SMOOTH",
"537 735 OFFCURVE",
"581 836 OFFCURVE",
"581 836 CURVE"
);
},
{
closed = 1;
nodes = (
"778 629 LINE",
"712 623 LINE",
"710 611 OFFCURVE",
"703 552 OFFCURVE",
"703 512 CURVE SMOOTH",
"703 0 LINE",
"568 0 LINE",
"243 450 LINE",
"243 193 LINE SMOOTH",
"243 153 OFFCURVE",
"251 87 OFFCURVE",
"252 77 CURVE",
"317 71 LINE",
"312 0 LINE",
"176 0 LINE SMOOTH",
"146 0 OFFCURVE",
"46 -5 OFFCURVE",
"46 -5 CURVE",
"41 65 LINE",
"107 77 LINE",
"109 88 OFFCURVE",
"116 143 OFFCURVE",
"116 163 CURVE SMOOTH",
"116 542 LINE SMOOTH",
"116 562 OFFCURVE",
"109 612 OFFCURVE",
"107 623 CURVE",
"42 635 LINE",
"47 710 LINE",
"47 710 OFFCURVE",
"137 705 OFFCURVE",
"157 705 CURVE SMOOTH",
"249 705 LINE",
"268 685 LINE",
"268 685 OFFCURVE",
"341 559 OFFCURVE",
"356 537 CURVE SMOOTH",
"576 230 LINE",
"576 542 LINE SMOOTH",
"576 562 OFFCURVE",
"569 607 OFFCURVE",
"567 623 CURVE",
"502 635 LINE",
"507 710 LINE",
"542 708 OFFCURVE",
"591 705 OFFCURVE",
"611 705 CURVE SMOOTH",
"681 705 OFFCURVE",
"773 710 OFFCURVE",
"773 710 CURVE"
);
}
);
width = 810;
}
);
leftKerningGroup = B;
unicode = 00D1;
},
{
glyphname = O;
lastChange = "2015-07-04 08:47:36 +0000";
layers = (
{
layerId = "A04BFA18-C442-4494-B826-EAC83DBBD8AC";
name = Regular;
paths = (
{
closed = 1;
nodes = (
"709 570 OFFCURVE",
"598 720 OFFCURVE",
"381 720 CURVE SMOOTH",
"164 720 OFFCURVE",
"53 570 OFFCURVE",
"53 352 CURVE SMOOTH",
"53 135 OFFCURVE",
"164 -15 OFFCURVE",
"381 -15 CURVE SMOOTH",
"598 -15 OFFCURVE",
"709 135 OFFCURVE",
"709 352 CURVE SMOOTH"
);
},
{
closed = 1;
nodes = (
"160 527 OFFCURVE",
"232 667 OFFCURVE",
"381 667 CURVE SMOOTH",
"530 667 OFFCURVE",
"602 527 OFFCURVE",
"602 352 CURVE SMOOTH",
"602 178 OFFCURVE",
"530 38 OFFCURVE",
"381 38 CURVE SMOOTH",
"232 38 OFFCURVE",
"160 178 OFFCURVE",
"160 352 CURVE SMOOTH"
);
}
);
width = 762;
},
{
layerId = "6AAAC2AB-C0B6-4874-B22A-447CC2571A39";
name = Bold;
paths = (
{
closed = 1;
nodes = (
"763 574 OFFCURVE",
"623 720 OFFCURVE",
"406 720 CURVE SMOOTH",
"189 720 OFFCURVE",
"49 574 OFFCURVE",
"49 352 CURVE SMOOTH",
"49 131 OFFCURVE",
"189 -15 OFFCURVE",
"406 -15 CURVE SMOOTH",
"623 -15 OFFCURVE",
"763 131 OFFCURVE",
"763 352 CURVE SMOOTH"
);
},
{
closed = 1;
nodes = (
"229 535 OFFCURVE",
"286 623 OFFCURVE",
"406 623 CURVE SMOOTH",
"526 623 OFFCURVE",
"583 535 OFFCURVE",
"583 352 CURVE SMOOTH",
"583 170 OFFCURVE",
"526 82 OFFCURVE",
"406 82 CURVE SMOOTH",
"286 82 OFFCURVE",
"229 170 OFFCURVE",
"229 352 CURVE SMOOTH"
);
}
);
width = 812;
}
);
leftKerningGroup = C;
rightKerningGroup = D;
unicode = 004F;
},
{
glyphname = OE;
lastChange = "2015-07-04 08:47:36 +0000";
layers = (
{
layerId = "A04BFA18-C442-4494-B826-EAC83DBBD8AC";
name = Regular;
paths = (
{
closed = 1;
nodes = (
"916 165 LINE",
"861 170 LINE",
"859 154 OFFCURVE",
"849 118 OFFCURVE",
"846 103 CURVE SMOOTH",
"844 94 OFFCURVE",
"835 80 OFFCURVE",
"825 66 CURVE",
"803 62 OFFCURVE",
"769 57 OFFCURVE",
"738 57 CURVE SMOOTH",
"614 57 LINE",
"612 76 OFFCURVE",
"607 127 OFFCURVE",
"607 167 CURVE SMOOTH",
"607 338 LINE",
"683 338 LINE SMOOTH",
"703 338 OFFCURVE",
"754 333 OFFCURVE",
"763 332 CURVE",
"772 265 LINE",
"820 271 LINE",
"820 271 OFFCURVE",
"817 330 OFFCURVE",
"817 380 CURVE SMOOTH",
"818 464 LINE",
"772 469 LINE",
"763 400 LINE",
"758 399 OFFCURVE",
"723 394 OFFCURVE",
"703 394 CURVE SMOOTH",
"607 394 LINE",
"607 538 LINE SMOOTH",
"607 577 OFFCURVE",
"612 628 OFFCURVE",
"614 649 CURVE",
"725 649 LINE SMOOTH",
"753 649 OFFCURVE",
"784 646 OFFCURVE",
"806 644 CURVE",
"816 631 OFFCURVE",
"825 617 OFFCURVE",
"826 610 CURVE",
"830 595 OFFCURVE",
"835 572 OFFCURVE",
"837 556 CURVE",
"895 561 LINE",
"888 697 LINE",
"869 715 LINE",
"869 715 OFFCURVE",
"775 705 OFFCURVE",
"755 705 CURVE SMOOTH",
"428 705 LINE",
"398 715 OFFCURVE",
"364 720 OFFCURVE",
"328 720 CURVE SMOOTH",
"132 720 OFFCURVE",
"30 570 OFFCURVE",
"30 352 CURVE SMOOTH",
"30 135 OFFCURVE",
"132 -15 OFFCURVE",
"328 -15 CURVE SMOOTH",
"364 -15 OFFCURVE",
"398 -10 OFFCURVE",
"428 0 CURVE",
"768 0 LINE SMOOTH",
"788 0 OFFCURVE",
"882 -4 OFFCURVE",
"882 -4 CURVE",
"901 14 LINE"
);
},
{
closed = 1;
nodes = (
"137 527 OFFCURVE",
"200 667 OFFCURVE",
"328 667 CURVE SMOOTH",
"456 667 OFFCURVE",
"519 527 OFFCURVE",
"519 352 CURVE SMOOTH",
"519 178 OFFCURVE",
"456 38 OFFCURVE",
"328 38 CURVE SMOOTH",
"200 38 OFFCURVE",
"137 178 OFFCURVE",
"137 352 CURVE SMOOTH"
);
}
);
width = 957;
},
{
layerId = "6AAAC2AB-C0B6-4874-B22A-447CC2571A39";
name = Bold;
paths = (
{
closed = 1;
nodes = (
"996 190 LINE",
"926 195 LINE",
"924 179 OFFCURVE",
"918 153 OFFCURVE",
"914 138 CURVE SMOOTH",
"911 128 OFFCURVE",
"905 113 OFFCURVE",
"895 95 CURVE",
"875 91 OFFCURVE",
"847 87 OFFCURVE",
"818 87 CURVE SMOOTH",
"693 87 LINE",
"692 107 OFFCURVE",
"690 155 OFFCURVE",
"690 193 CURVE SMOOTH",
"690 316 LINE",
"752 316 LINE SMOOTH",
"772 316 OFFCURVE",
"806 313 OFFCURVE",
"816 312 CURVE",
"825 250 LINE",
"889 256 LINE",
"889 256 OFFCURVE",
"886 333 OFFCURVE",
"886 383 CURVE SMOOTH",
"887 466 LINE",
"825 471 LINE",
"816 402 LINE",
"803 400 OFFCURVE",
"782 398 OFFCURVE",
"772 398 CURVE SMOOTH",
"690 398 LINE",
"690 542 LINE SMOOTH",
"690 558 OFFCURVE",
"693 605 OFFCURVE",
"694 623 CURVE",
"808 623 LINE SMOOTH",
"838 623 OFFCURVE",
"863 621 OFFCURVE",
"883 619 CURVE",
"896 583 LINE",
"902 537 LINE",
"974 542 LINE",
"967 697 LINE",
"948 715 LINE",
"910 710 OFFCURVE",
"853 705 OFFCURVE",
"833 705 CURVE SMOOTH",
"493 705 LINE",
"460 715 OFFCURVE",
"424 720 OFFCURVE",
"386 720 CURVE SMOOTH",
"181 720 OFFCURVE",
"49 574 OFFCURVE",
"49 352 CURVE SMOOTH",
"49 131 OFFCURVE",
"181 -15 OFFCURVE",
"386 -15 CURVE SMOOTH",
"424 -15 OFFCURVE",
"460 -10 OFFCURVE",
"493 0 CURVE",
"848 0 LINE SMOOTH",
"868 0 OFFCURVE",
"962 -4 OFFCURVE",
"962 -4 CURVE",
"981 14 LINE"
);
},
{
closed = 1;
nodes = (
"229 535 OFFCURVE",
"280 623 OFFCURVE",
"386 623 CURVE SMOOTH",
"492 623 OFFCURVE",
"543 535 OFFCURVE",
"543 352 CURVE SMOOTH",
"543 170 OFFCURVE",
"492 82 OFFCURVE",
"386 82 CURVE SMOOTH",
"280 82 OFFCURVE",
"229 170 OFFCURVE",
"229 352 CURVE SMOOTH"
);
}
);
width = 1042;
}
);
leftKerningGroup = C;
rightKerningGroup = AE;
unicode = 0152;
},
{
glyphname = Oacute;
lastChange = "2015-07-04 08:47:36 +0000";
layers = (
{
layerId = "A04BFA18-C442-4494-B826-EAC83DBBD8AC";
name = Regular;
paths = (
{
closed = 1;
nodes = (
"293 731 LINE",
"528 823 LINE",
"498 886 LINE",
"275 772 LINE"
);
},
{
closed = 1;
nodes = (
"709 570 OFFCURVE",
"598 720 OFFCURVE",
"381 720 CURVE SMOOTH",
"164 720 OFFCURVE",
"53 570 OFFCURVE",
"53 352 CURVE SMOOTH",
"53 135 OFFCURVE",
"164 -15 OFFCURVE",
"381 -15 CURVE SMOOTH",
"598 -15 OFFCURVE",
"709 135 OFFCURVE",
"709 352 CURVE SMOOTH"
);
},
{
closed = 1;
nodes = (
"160 527 OFFCURVE",
"232 667 OFFCURVE",
"381 667 CURVE SMOOTH",
"530 667 OFFCURVE",
"602 527 OFFCURVE",
"602 352 CURVE SMOOTH",
"602 178 OFFCURVE",
"530 38 OFFCURVE",
"381 38 CURVE SMOOTH",
"232 38 OFFCURVE",
"160 178 OFFCURVE",
"160 352 CURVE SMOOTH"
);
}
);
width = 762;
},
{
layerId = "6AAAC2AB-C0B6-4874-B22A-447CC2571A39";
name = Bold;
paths = (
{
closed = 1;
nodes = (
"308 731 LINE",
"553 810 LINE",
"519 886 LINE",
"283 783 LINE"
);
},
{
closed = 1;
nodes = (
"763 574 OFFCURVE",
"623 720 OFFCURVE",
"406 720 CURVE SMOOTH",
"189 720 OFFCURVE",
"49 574 OFFCURVE",
"49 352 CURVE SMOOTH",
"49 131 OFFCURVE",
"189 -15 OFFCURVE",
"406 -15 CURVE SMOOTH",
"623 -15 OFFCURVE",
"763 131 OFFCURVE",
"763 352 CURVE SMOOTH"
);
},
{
closed = 1;
nodes = (
"229 535 OFFCURVE",
"286 623 OFFCURVE",
"406 623 CURVE SMOOTH",
"526 623 OFFCURVE",
"583 535 OFFCURVE",
"583 352 CURVE SMOOTH",
"583 170 OFFCURVE",
"526 82 OFFCURVE",
"406 82 CURVE SMOOTH",
"286 82 OFFCURVE",
"229 170 OFFCURVE",
"229 352 CURVE SMOOTH"
);
}
);
width = 812;
}
);
unicode = 00D3;
},
{
glyphname = Ocaron;
lastChange = "2015-07-04 08:47:36 +0000";
layers = (
{
layerId = "A04BFA18-C442-4494-B826-EAC83DBBD8AC";
name = Regular;
paths = (
{
closed = 1;
nodes = (
"345 736 LINE",
"411 736 LINE",
"551 826 LINE",
"528 862 LINE",
"378 794 LINE",
"228 862 LINE",
"205 826 LINE"
);
},
{
closed = 1;
nodes = (
"164 720 OFFCURVE",
"53 570 OFFCURVE",
"53 352 CURVE SMOOTH",
"53 135 OFFCURVE",
"164 -15 OFFCURVE",
"381 -15 CURVE SMOOTH",
"598 -15 OFFCURVE",
"709 135 OFFCURVE",
"709 352 CURVE SMOOTH",
"709 570 OFFCURVE",
"598 720 OFFCURVE",
"381 720 CURVE SMOOTH"
);
},
{
closed = 1;
nodes = (
"232 38 OFFCURVE",
"160 178 OFFCURVE",
"160 352 CURVE SMOOTH",
"160 527 OFFCURVE",
"232 667 OFFCURVE",
"381 667 CURVE SMOOTH",
"530 667 OFFCURVE",
"602 527 OFFCURVE",
"602 352 CURVE SMOOTH",
"602 178 OFFCURVE",
"530 38 OFFCURVE",
"381 38 CURVE SMOOTH"
);
}
);
width = 762;
},
{
layerId = "6AAAC2AB-C0B6-4874-B22A-447CC2571A39";
name = Bold;
paths = (
{
closed = 1;
nodes = (
"362 736 LINE",
"460 736 LINE",
"596 831 LINE",
"562 876 LINE",
"411 801 LINE",
"260 876 LINE",
"226 831 LINE"
);
},
{
closed = 1;
nodes = (
"189 720 OFFCURVE",
"49 574 OFFCURVE",
"49 352 CURVE SMOOTH",
"49 131 OFFCURVE",
"189 -15 OFFCURVE",
"406 -15 CURVE SMOOTH",
"623 -15 OFFCURVE",
"763 131 OFFCURVE",
"763 352 CURVE SMOOTH",
"763 574 OFFCURVE",
"623 720 OFFCURVE",
"406 720 CURVE SMOOTH"
);
},
{
closed = 1;
nodes = (
"286 82 OFFCURVE",
"229 170 OFFCURVE",
"229 352 CURVE SMOOTH",
"229 535 OFFCURVE",
"286 623 OFFCURVE",
"406 623 CURVE SMOOTH",
"526 623 OFFCURVE",
"583 535 OFFCURVE",
"583 352 CURVE SMOOTH",
"583 170 OFFCURVE",
"526 82 OFFCURVE",
"406 82 CURVE SMOOTH"
);
}
);
width = 812;
}
);
unicode = 01D1;
},
{
glyphname = Ocircumflex;
lastChange = "2015-07-04 08:47:36 +0000";
layers = (
{
layerId = "A04BFA18-C442-4494-B826-EAC83DBBD8AC";
name = Regular;
paths = (
{
closed = 1;
nodes = (
"231 731 LINE",
"381 799 LINE",
"531 731 LINE",
"554 767 LINE",
"414 857 LINE",
"348 857 LINE",
"208 767 LINE"
);
},
{
closed = 1;
nodes = (
"164 720 OFFCURVE",
"53 570 OFFCURVE",
"53 352 CURVE SMOOTH",
"53 135 OFFCURVE",
"164 -15 OFFCURVE",
"381 -15 CURVE SMOOTH",
"598 -15 OFFCURVE",
"709 135 OFFCURVE",
"709 352 CURVE SMOOTH",
"709 570 OFFCURVE",
"598 720 OFFCURVE",
"381 720 CURVE SMOOTH"
);
},
{
closed = 1;
nodes = (
"232 38 OFFCURVE",
"160 178 OFFCURVE",
"160 352 CURVE SMOOTH",
"160 527 OFFCURVE",
"232 667 OFFCURVE",
"381 667 CURVE SMOOTH",
"530 667 OFFCURVE",
"602 527 OFFCURVE",
"602 352 CURVE SMOOTH",
"602 178 OFFCURVE",
"530 38 OFFCURVE",
"381 38 CURVE SMOOTH"
);
}
);
width = 762;
},
{
layerId = "6AAAC2AB-C0B6-4874-B22A-447CC2571A39";
name = Bold;
paths = (
{
closed = 1;
nodes = (
"254 731 LINE",
"405 806 LINE",
"556 731 LINE",
"590 776 LINE",
"454 871 LINE",
"356 871 LINE",
"220 776 LINE"
);
},
{
closed = 1;
nodes = (
"189 720 OFFCURVE",
"49 574 OFFCURVE",
"49 352 CURVE SMOOTH",
"49 131 OFFCURVE",
"189 -15 OFFCURVE",
"406 -15 CURVE SMOOTH",
"623 -15 OFFCURVE",
"763 131 OFFCURVE",
"763 352 CURVE SMOOTH",
"763 574 OFFCURVE",
"623 720 OFFCURVE",
"406 720 CURVE SMOOTH"
);
},
{
closed = 1;
nodes = (
"286 82 OFFCURVE",
"229 170 OFFCURVE",
"229 352 CURVE SMOOTH",
"229 535 OFFCURVE",
"286 623 OFFCURVE",
"406 623 CURVE SMOOTH",
"526 623 OFFCURVE",
"583 535 OFFCURVE",
"583 352 CURVE SMOOTH",
"583 170 OFFCURVE",
"526 82 OFFCURVE",
"406 82 CURVE SMOOTH"
);
}
);
width = 812;
}
);
unicode = 00D4;
},
{
glyphname = Odieresis;
lastChange = "2015-07-04 08:47:36 +0000";
layers = (
{
layerId = "A04BFA18-C442-4494-B826-EAC83DBBD8AC";
name = Regular;
paths = (
{
closed = 1;
nodes = (
"268 847 OFFCURVE",
"251 824 OFFCURVE",
"251 791 CURVE SMOOTH",
"251 758 OFFCURVE",
"268 736 OFFCURVE",
"301 736 CURVE SMOOTH",
"334 736 OFFCURVE",
"352 758 OFFCURVE",
"352 791 CURVE SMOOTH",
"352 827 OFFCURVE",
"333 847 OFFCURVE",
"301 847 CURVE SMOOTH"
);
},
{
closed = 1;
nodes = (
"443 847 OFFCURVE",
"426 824 OFFCURVE",
"426 791 CURVE SMOOTH",
"426 758 OFFCURVE",
"443 736 OFFCURVE",
"476 736 CURVE SMOOTH",
"509 736 OFFCURVE",
"527 758 OFFCURVE",
"527 791 CURVE SMOOTH",
"527 827 OFFCURVE",
"508 847 OFFCURVE",
"476 847 CURVE SMOOTH"
);
},
{
closed = 1;
nodes = (
"709 570 OFFCURVE",
"598 720 OFFCURVE",
"381 720 CURVE SMOOTH",
"164 720 OFFCURVE",
"53 570 OFFCURVE",
"53 352 CURVE SMOOTH",
"53 135 OFFCURVE",
"164 -15 OFFCURVE",
"381 -15 CURVE SMOOTH",
"598 -15 OFFCURVE",
"709 135 OFFCURVE",
"709 352 CURVE SMOOTH"
);
},
{
closed = 1;
nodes = (
"160 527 OFFCURVE",
"232 667 OFFCURVE",
"381 667 CURVE SMOOTH",
"530 667 OFFCURVE",
"602 527 OFFCURVE",
"602 352 CURVE SMOOTH",
"602 178 OFFCURVE",
"530 38 OFFCURVE",
"381 38 CURVE SMOOTH",
"232 38 OFFCURVE",
"160 178 OFFCURVE",
"160 352 CURVE SMOOTH"
);
}
);
width = 762;
},
{
layerId = "6AAAC2AB-C0B6-4874-B22A-447CC2571A39";
name = Bold;
paths = (
{
closed = 1;
nodes = (
"267 857 OFFCURVE",
"246 831 OFFCURVE",
"246 796 CURVE SMOOTH",
"246 761 OFFCURVE",
"267 736 OFFCURVE",
"306 736 CURVE SMOOTH",
"344 736 OFFCURVE",
"365 761 OFFCURVE",
"365 796 CURVE SMOOTH",
"365 834 OFFCURVE",
"342 857 OFFCURVE",
"306 857 CURVE SMOOTH"
);
},
{
closed = 1;
nodes = (
"460 857 OFFCURVE",
"439 831 OFFCURVE",
"439 796 CURVE SMOOTH",
"439 761 OFFCURVE",
"460 736 OFFCURVE",
"499 736 CURVE SMOOTH",
"537 736 OFFCURVE",
"558 761 OFFCURVE",
"558 796 CURVE SMOOTH",
"558 834 OFFCURVE",
"535 857 OFFCURVE",
"499 857 CURVE SMOOTH"
);
},
{
closed = 1;
nodes = (
"763 574 OFFCURVE",
"623 720 OFFCURVE",
"406 720 CURVE SMOOTH",
"189 720 OFFCURVE",
"49 574 OFFCURVE",
"49 352 CURVE SMOOTH",
"49 131 OFFCURVE",
"189 -15 OFFCURVE",
"406 -15 CURVE SMOOTH",
"623 -15 OFFCURVE",
"763 131 OFFCURVE",
"763 352 CURVE SMOOTH"
);
},
{
closed = 1;
nodes = (
"229 535 OFFCURVE",
"286 623 OFFCURVE",
"406 623 CURVE SMOOTH",
"526 623 OFFCURVE",
"583 535 OFFCURVE",
"583 352 CURVE SMOOTH",
"583 170 OFFCURVE",
"526 82 OFFCURVE",
"406 82 CURVE SMOOTH",
"286 82 OFFCURVE",
"229 170 OFFCURVE",
"229 352 CURVE SMOOTH"
);
}
);
width = 812;
}
);
leftKerningGroup = C;
rightKerningGroup = D;
unicode = 00D6;
},
{
glyphname = Ograve;
lastChange = "2015-07-04 08:47:36 +0000";
layers = (
{
layerId = "A04BFA18-C442-4494-B826-EAC83DBBD8AC";
name = Regular;
paths = (
{
closed = 1;
nodes = (
"277 886 LINE",
"247 823 LINE",
"482 731 LINE",
"500 772 LINE"
);
},
{
closed = 1;
nodes = (
"709 570 OFFCURVE",
"598 720 OFFCURVE",
"381 720 CURVE SMOOTH",
"164 720 OFFCURVE",
"53 570 OFFCURVE",
"53 352 CURVE SMOOTH",
"53 135 OFFCURVE",
"164 -15 OFFCURVE",
"381 -15 CURVE SMOOTH",
"598 -15 OFFCURVE",
"709 135 OFFCURVE",
"709 352 CURVE SMOOTH"
);
},
{
closed = 1;
nodes = (
"160 527 OFFCURVE",
"232 667 OFFCURVE",
"381 667 CURVE SMOOTH",
"530 667 OFFCURVE",
"602 527 OFFCURVE",
"602 352 CURVE SMOOTH",
"602 178 OFFCURVE",
"530 38 OFFCURVE",
"381 38 CURVE SMOOTH",
"232 38 OFFCURVE",
"160 178 OFFCURVE",
"160 352 CURVE SMOOTH"
);
}
);
width = 762;
},
{
layerId = "6AAAC2AB-C0B6-4874-B22A-447CC2571A39";
name = Bold;
paths = (
{
closed = 1;
nodes = (
"285 886 LINE",
"251 810 LINE",
"496 731 LINE",
"521 783 LINE"
);
},
{
closed = 1;
nodes = (
"763 574 OFFCURVE",
"623 720 OFFCURVE",
"406 720 CURVE SMOOTH",
"189 720 OFFCURVE",
"49 574 OFFCURVE",
"49 352 CURVE SMOOTH",
"49 131 OFFCURVE",
"189 -15 OFFCURVE",
"406 -15 CURVE SMOOTH",
"623 -15 OFFCURVE",
"763 131 OFFCURVE",
"763 352 CURVE SMOOTH"
);
},
{
closed = 1;
nodes = (
"229 535 OFFCURVE",
"286 623 OFFCURVE",
"406 623 CURVE SMOOTH",
"526 623 OFFCURVE",
"583 535 OFFCURVE",
"583 352 CURVE SMOOTH",
"583 170 OFFCURVE",
"526 82 OFFCURVE",
"406 82 CURVE SMOOTH",
"286 82 OFFCURVE",
"229 170 OFFCURVE",
"229 352 CURVE SMOOTH"
);
}
);
width = 812;
}
);
leftKerningGroup = C;
rightKerningGroup = D;
unicode = 00D2;
},
{
glyphname = Ohungarumlaut;
lastChange = "2015-07-04 08:47:36 +0000";
layers = (
{
layerId = "A04BFA18-C442-4494-B826-EAC83DBBD8AC";
name = Regular;
paths = (
{
closed = 1;
nodes = (
"264 734 LINE",
"484 858 LINE",
"446 916 LINE",
"241 772 LINE"
);
},
{
closed = 1;
nodes = (
"442 732 LINE",
"670 840 LINE",
"636 901 LINE",
"421 772 LINE"
);
},
{
closed = 1;
nodes = (
"709 570 OFFCURVE",
"598 720 OFFCURVE",
"381 720 CURVE SMOOTH",
"164 720 OFFCURVE",
"53 570 OFFCURVE",
"53 352 CURVE SMOOTH",
"53 135 OFFCURVE",
"164 -15 OFFCURVE",
"381 -15 CURVE SMOOTH",
"598 -15 OFFCURVE",
"709 135 OFFCURVE",
"709 352 CURVE SMOOTH"
);
},
{
closed = 1;
nodes = (
"160 527 OFFCURVE",
"232 667 OFFCURVE",
"381 667 CURVE SMOOTH",
"530 667 OFFCURVE",
"602 527 OFFCURVE",
"602 352 CURVE SMOOTH",
"602 178 OFFCURVE",
"530 38 OFFCURVE",
"381 38 CURVE SMOOTH",
"232 38 OFFCURVE",
"160 178 OFFCURVE",
"160 352 CURVE SMOOTH"
);
}
);
width = 762;
},
{
layerId = "6AAAC2AB-C0B6-4874-B22A-447CC2571A39";
name = Bold;
paths = (
{
closed = 1;
nodes = (
"277 734 LINE",
"510 843 LINE",
"467 914 LINE",
"246 783 LINE"
);
},
{
closed = 1;
nodes = (
"485 731 LINE",
"720 810 LINE",
"686 886 LINE",
"460 783 LINE"
);
},
{
closed = 1;
nodes = (
"763 574 OFFCURVE",
"623 720 OFFCURVE",
"406 720 CURVE SMOOTH",
"189 720 OFFCURVE",
"49 574 OFFCURVE",
"49 352 CURVE SMOOTH",
"49 131 OFFCURVE",
"189 -15 OFFCURVE",
"406 -15 CURVE SMOOTH",
"623 -15 OFFCURVE",
"763 131 OFFCURVE",
"763 352 CURVE SMOOTH"
);
},
{
closed = 1;
nodes = (
"229 535 OFFCURVE",
"286 623 OFFCURVE",
"406 623 CURVE SMOOTH",
"526 623 OFFCURVE",
"583 535 OFFCURVE",
"583 352 CURVE SMOOTH",
"583 170 OFFCURVE",
"526 82 OFFCURVE",
"406 82 CURVE SMOOTH",
"286 82 OFFCURVE",
"229 170 OFFCURVE",
"229 352 CURVE SMOOTH"
);
}
);
width = 812;
}
);
leftKerningGroup = C;
rightKerningGroup = D;
unicode = 0150;
},
{
glyphname = Omacron;
lastChange = "2015-07-04 08:47:36 +0000";
layers = (
{
layerId = "A04BFA18-C442-4494-B826-EAC83DBBD8AC";
name = Regular;
paths = (
{
closed = 1;
nodes = (
"210 795 LINE",
"210 740 LINE",
"546 740 LINE",
"552 795 LINE"
);
},
{
closed = 1;
nodes = (
"709 570 OFFCURVE",
"598 720 OFFCURVE",
"381 720 CURVE SMOOTH",
"164 720 OFFCURVE",
"53 570 OFFCURVE",
"53 352 CURVE SMOOTH",
"53 135 OFFCURVE",
"164 -15 OFFCURVE",
"381 -15 CURVE SMOOTH",
"598 -15 OFFCURVE",
"709 135 OFFCURVE",
"709 352 CURVE SMOOTH"
);
},
{
closed = 1;
nodes = (
"160 527 OFFCURVE",
"232 667 OFFCURVE",
"381 667 CURVE SMOOTH",
"530 667 OFFCURVE",
"602 527 OFFCURVE",
"602 352 CURVE SMOOTH",
"602 178 OFFCURVE",
"530 38 OFFCURVE",
"381 38 CURVE SMOOTH",
"232 38 OFFCURVE",
"160 178 OFFCURVE",
"160 352 CURVE SMOOTH"
);
}
);
width = 762;
},
{
layerId = "6AAAC2AB-C0B6-4874-B22A-447CC2571A39";
name = Bold;
paths = (
{
closed = 1;
nodes = (
"234 827 LINE",
"234 757 LINE",
"566 757 LINE",
"576 827 LINE"
);
},
{
closed = 1;
nodes = (
"763 574 OFFCURVE",
"623 720 OFFCURVE",
"406 720 CURVE SMOOTH",
"189 720 OFFCURVE",
"49 574 OFFCURVE",
"49 352 CURVE SMOOTH",
"49 131 OFFCURVE",
"189 -15 OFFCURVE",
"406 -15 CURVE SMOOTH",
"623 -15 OFFCURVE",
"763 131 OFFCURVE",
"763 352 CURVE SMOOTH"
);
},
{
closed = 1;
nodes = (
"229 535 OFFCURVE",
"286 623 OFFCURVE",
"406 623 CURVE SMOOTH",
"526 623 OFFCURVE",
"583 535 OFFCURVE",
"583 352 CURVE SMOOTH",
"583 170 OFFCURVE",
"526 82 OFFCURVE",
"406 82 CURVE SMOOTH",
"286 82 OFFCURVE",
"229 170 OFFCURVE",
"229 352 CURVE SMOOTH"
);
}
);
width = 812;
}
);
leftKerningGroup = C;
rightKerningGroup = D;
unicode = 014C;
},
{
glyphname = Oslash;
lastChange = "2015-07-04 08:47:36 +0000";
layers = (
{
layerId = "A04BFA18-C442-4494-B826-EAC83DBBD8AC";
name = Regular;
paths = (
{
closed = 1;
nodes = (
"653 815 LINE",
"611 838 LINE",
"533 689 LINE",
"490 709 OFFCURVE",
"439 720 OFFCURVE",
"381 720 CURVE SMOOTH",
"164 720 OFFCURVE",
"53 570 OFFCURVE",
"53 352 CURVE SMOOTH",
"53 212 OFFCURVE",
"99 100 OFFCURVE",
"190 38 CURVE",
"111 -113 LINE",
"151 -136 LINE",
"231 15 LINE",
"273 -4 OFFCURVE",
"323 -15 OFFCURVE",
"381 -15 CURVE SMOOTH",
"598 -15 OFFCURVE",
"709 135 OFFCURVE",
"709 352 CURVE SMOOTH",
"709 491 OFFCURVE",
"664 603 OFFCURVE",
"574 665 CURVE"
);
},
{
closed = 1;
nodes = (
"160 527 OFFCURVE",
"232 667 OFFCURVE",
"381 667 CURVE SMOOTH",
"429 667 OFFCURVE",
"468 653 OFFCURVE",
"500 628 CURVE",
"228 110 LINE",
"183 168 OFFCURVE",
"160 255 OFFCURVE",
"160 352 CURVE SMOOTH"
);
},
{
closed = 1;
nodes = (
"334 38 OFFCURVE",
"295 52 OFFCURVE",
"263 76 CURVE",
"535 592 LINE",
"580 535 OFFCURVE",
"602 449 OFFCURVE",
"602 352 CURVE SMOOTH",
"602 178 OFFCURVE",
"530 38 OFFCURVE",
"381 38 CURVE SMOOTH"
);
}
);
width = 762;
},
{
layerId = "6AAAC2AB-C0B6-4874-B22A-447CC2571A39";
name = Bold;
paths = (
{
closed = 1;
nodes = (
"686 809 LINE",
"627 838 LINE",
"552 694 LINE",
"508 711 OFFCURVE",
"460 720 OFFCURVE",
"406 720 CURVE SMOOTH",
"189 720 OFFCURVE",
"49 574 OFFCURVE",
"49 352 CURVE SMOOTH",
"49 210 OFFCURVE",
"107 98 OFFCURVE",
"206 37 CURVE",
"130 -108 LINE",
"187 -137 LINE",
"264 9 LINE",
"306 -7 OFFCURVE",
"354 -15 OFFCURVE",
"406 -15 CURVE SMOOTH",
"623 -15 OFFCURVE",
"763 131 OFFCURVE",
"763 352 CURVE SMOOTH",
"763 493 OFFCURVE",
"707 603 OFFCURVE",
"610 665 CURVE"
);
},
{
closed = 1;
nodes = (
"229 535 OFFCURVE",
"286 623 OFFCURVE",
"406 623 CURVE SMOOTH",
"444 623 OFFCURVE",
"475 614 OFFCURVE",
"500 597 CURVE",
"268 155 LINE",
"242 200 OFFCURVE",
"229 265 OFFCURVE",
"229 352 CURVE SMOOTH"
);
},
{
closed = 1;
nodes = (
"370 82 OFFCURVE",
"340 90 OFFCURVE",
"315 106 CURVE",
"546 544 LINE",
"571 500 OFFCURVE",
"583 436 OFFCURVE",
"583 352 CURVE SMOOTH",
"583 170 OFFCURVE",
"526 82 OFFCURVE",
"406 82 CURVE SMOOTH"
);
}
);
width = 812;
}
);
leftKerningGroup = C;
rightKerningGroup = D;
unicode = 00D8;
},
{
glyphname = Otilde;
lastChange = "2015-07-04 08:47:36 +0000";
layers = (
{
layerId = "A04BFA18-C442-4494-B826-EAC83DBBD8AC";
name = Regular;
paths = (
{
closed = 1;
nodes = (
"513 864 LINE",
"513 864 OFFCURVE",
"487 813 OFFCURVE",
"460 813 CURVE SMOOTH",
"420 813 OFFCURVE",
"335 854 OFFCURVE",
"295 854 CURVE SMOOTH",
"255 854 OFFCURVE",
"213 753 OFFCURVE",
"213 753 CURVE",
"249 732 LINE",
"249 732 OFFCURVE",
"275 786 OFFCURVE",
"302 786 CURVE SMOOTH",
"342 786 OFFCURVE",
"426 745 OFFCURVE",
"466 745 CURVE SMOOTH",
"506 745 OFFCURVE",
"549 843 OFFCURVE",
"549 843 CURVE"
);
},
{
closed = 1;
nodes = (
"709 570 OFFCURVE",
"598 720 OFFCURVE",
"381 720 CURVE SMOOTH",
"164 720 OFFCURVE",
"53 570 OFFCURVE",
"53 352 CURVE SMOOTH",
"53 135 OFFCURVE",
"164 -15 OFFCURVE",
"381 -15 CURVE SMOOTH",
"598 -15 OFFCURVE",
"709 135 OFFCURVE",
"709 352 CURVE SMOOTH"
);
},
{
closed = 1;
nodes = (
"160 527 OFFCURVE",
"232 667 OFFCURVE",
"381 667 CURVE SMOOTH",
"530 667 OFFCURVE",
"602 527 OFFCURVE",
"602 352 CURVE SMOOTH",
"602 178 OFFCURVE",
"530 38 OFFCURVE",
"381 38 CURVE SMOOTH",
"232 38 OFFCURVE",
"160 178 OFFCURVE",
"160 352 CURVE SMOOTH"
);
}
);
width = 762;
},
{
layerId = "6AAAC2AB-C0B6-4874-B22A-447CC2571A39";
name = Bold;
paths = (
{
closed = 1;
nodes = (
"540 864 LINE",
"540 864 OFFCURVE",
"519 826 OFFCURVE",
"495 826 CURVE SMOOTH",
"453 826 OFFCURVE",
"352 864 OFFCURVE",
"310 864 CURVE SMOOTH",
"267 864 OFFCURVE",
"221 759 OFFCURVE",
"221 759 CURVE",
"268 731 LINE",
"268 731 OFFCURVE",
"293 773 OFFCURVE",
"317 773 CURVE SMOOTH",
"360 773 OFFCURVE",
"459 735 OFFCURVE",
"502 735 CURVE SMOOTH",
"545 735 OFFCURVE",
"589 836 OFFCURVE",
"589 836 CURVE"
);
},
{
closed = 1;
nodes = (
"763 574 OFFCURVE",
"623 720 OFFCURVE",
"406 720 CURVE SMOOTH",
"189 720 OFFCURVE",
"49 574 OFFCURVE",
"49 352 CURVE SMOOTH",
"49 131 OFFCURVE",
"189 -15 OFFCURVE",
"406 -15 CURVE SMOOTH",
"623 -15 OFFCURVE",
"763 131 OFFCURVE",
"763 352 CURVE SMOOTH"
);
},
{
closed = 1;
nodes = (
"229 535 OFFCURVE",
"286 623 OFFCURVE",
"406 623 CURVE SMOOTH",
"526 623 OFFCURVE",
"583 535 OFFCURVE",
"583 352 CURVE SMOOTH",
"583 170 OFFCURVE",
"526 82 OFFCURVE",
"406 82 CURVE SMOOTH",
"286 82 OFFCURVE",
"229 170 OFFCURVE",
"229 352 CURVE SMOOTH"
);
}
);
width = 812;
}
);
leftKerningGroup = C;
rightKerningGroup = D;
unicode = 00D5;
},
{
glyphname = P;
lastChange = "2015-07-04 08:47:36 +0000";
layers = (
{
layerId = "A04BFA18-C442-4494-B826-EAC83DBBD8AC";
name = Regular;
paths = (
{
closed = 1;
nodes = (
"439 291 OFFCURVE",
"551 367 OFFCURVE",
"551 502 CURVE SMOOTH",
"551 639 OFFCURVE",
"466 710 OFFCURVE",
"328 710 CURVE SMOOTH",
"273 710 OFFCURVE",
"214 705 OFFCURVE",
"159 705 CURVE SMOOTH",
"121 705 OFFCURVE",
"91 707 OFFCURVE",
"44 710 CURVE",
"39 656 LINE",
"116 644 LINE",
"118 631 OFFCURVE",
"125 585 OFFCURVE",
"125 568 CURVE SMOOTH",
"125 137 LINE SMOOTH",
"125 120 OFFCURVE",
"118 74 OFFCURVE",
"116 61 CURVE",
"37 45 LINE",
"42 -5 LINE",
"42 -5 OFFCURVE",
"152 0 OFFCURVE",
"177 0 CURVE SMOOTH",
"316 0 LINE",
"323 54 LINE",
"223 61 LINE",
"221 75 OFFCURVE",
"216 125 OFFCURVE",
"216 167 CURVE SMOOTH",
"216 293 LINE",
"244 292 OFFCURVE",
"276 291 OFFCURVE",
"305 291 CURVE SMOOTH"
);
},
{
closed = 1;
nodes = (
"457 394 OFFCURVE",
"389 341 OFFCURVE",
"285 341 CURVE SMOOTH",
"268 341 OFFCURVE",
"241 343 OFFCURVE",
"216 346 CURVE",
"216 538 LINE SMOOTH",
"216 575 OFFCURVE",
"221 634 OFFCURVE",
"224 657 CURVE",
"247 659 OFFCURVE",
"272 660 OFFCURVE",
"286 660 CURVE SMOOTH",
"390 660 OFFCURVE",
"457 605 OFFCURVE",
"457 502 CURVE SMOOTH"
);
}
);
width = 584;
},
{
layerId = "6AAAC2AB-C0B6-4874-B22A-447CC2571A39";
name = Bold;
paths = (
{
closed = 1;
nodes = (
"326 271 LINE SMOOTH",
"468 271 OFFCURVE",
"597 354 OFFCURVE",
"597 496 CURVE SMOOTH",
"597 631 OFFCURVE",
"501 710 OFFCURVE",
"361 710 CURVE SMOOTH",
"306 710 OFFCURVE",
"222 705 OFFCURVE",
"167 705 CURVE SMOOTH",
"137 705 OFFCURVE",
"47 710 OFFCURVE",
"47 710 CURVE",
"42 635 LINE",
"107 623 LINE",
"109 607 OFFCURVE",
"116 562 OFFCURVE",
"116 542 CURVE SMOOTH",
"116 163 LINE SMOOTH",
"116 143 OFFCURVE",
"108 87 OFFCURVE",
"107 77 CURVE",
"41 65 LINE",
"46 -5 LINE",
"46 -5 OFFCURVE",
"166 0 OFFCURVE",
"196 0 CURVE SMOOTH",
"350 0 LINE",
"355 71 LINE",
"280 77 LINE",
"278 91 OFFCURVE",
"271 153 OFFCURVE",
"271 193 CURVE SMOOTH",
"271 271 LINE"
);
},
{
closed = 1;
nodes = (
"436 405 OFFCURVE",
"379 353 OFFCURVE",
"288 353 CURVE SMOOTH",
"271 353 LINE",
"271 512 LINE SMOOTH",
"271 545 OFFCURVE",
"274 596 OFFCURVE",
"276 627 CURVE",
"303 628 LINE",
"396 628 OFFCURVE",
"436 586 OFFCURVE",
"436 497 CURVE SMOOTH"
);
}
);
width = 630;
}
);
leftKerningGroup = B;
rightKerningGroup = P;
unicode = 0050;
},
{
glyphname = Q;
lastChange = "2015-07-04 08:47:36 +0000";
layers = (
{
layerId = "A04BFA18-C442-4494-B826-EAC83DBBD8AC";
name = Regular;
paths = (
{
closed = 1;
nodes = (
"680 -224 LINE",
"739 -132 LINE",
"739 -132 OFFCURVE",
"597 -71 OFFCURVE",
"581 -60 CURVE SMOOTH",
"494 1 LINE",
"636 45 OFFCURVE",
"709 177 OFFCURVE",
"709 352 CURVE SMOOTH",
"709 570 OFFCURVE",
"598 720 OFFCURVE",
"381 720 CURVE SMOOTH",
"164 720 OFFCURVE",
"53 570 OFFCURVE",
"53 352 CURVE SMOOTH",
"53 135 OFFCURVE",
"164 -15 OFFCURVE",
"381 -15 CURVE SMOOTH",
"394 -15 OFFCURVE",
"406 -14 OFFCURVE",
"419 -13 CURVE"
);
},
{
closed = 1;
nodes = (
"160 527 OFFCURVE",
"232 667 OFFCURVE",
"381 667 CURVE SMOOTH",
"530 667 OFFCURVE",
"602 527 OFFCURVE",
"602 352 CURVE SMOOTH",
"602 178 OFFCURVE",
"530 38 OFFCURVE",
"381 38 CURVE SMOOTH",
"232 38 OFFCURVE",
"160 178 OFFCURVE",
"160 352 CURVE SMOOTH"
);
}
);
width = 762;
},
{
layerId = "6AAAC2AB-C0B6-4874-B22A-447CC2571A39";
name = Bold;
paths = (
{
closed = 1;
nodes = (
"706 -224 LINE",
"796 -100 LINE",
"796 -100 OFFCURVE",
"653 -42 OFFCURVE",
"638 -32 CURVE SMOOTH",
"566 17 LINE",
"689 71 OFFCURVE",
"763 192 OFFCURVE",
"763 352 CURVE SMOOTH",
"763 574 OFFCURVE",
"623 720 OFFCURVE",
"406 720 CURVE SMOOTH",
"189 720 OFFCURVE",
"49 574 OFFCURVE",
"49 352 CURVE SMOOTH",
"49 131 OFFCURVE",
"189 -15 OFFCURVE",
"406 -15 CURVE SMOOTH",
"422 -15 LINE"
);
},
{
closed = 1;
nodes = (
"229 535 OFFCURVE",
"286 623 OFFCURVE",
"406 623 CURVE SMOOTH",
"526 623 OFFCURVE",
"583 535 OFFCURVE",
"583 352 CURVE SMOOTH",
"583 170 OFFCURVE",
"526 82 OFFCURVE",
"406 82 CURVE SMOOTH",
"286 82 OFFCURVE",
"229 170 OFFCURVE",
"229 352 CURVE SMOOTH"
);
}
);
width = 812;
}
);
leftKerningGroup = C;
rightKerningGroup = D;
unicode = 0051;
},
{
glyphname = R;
lastChange = "2015-07-04 08:47:36 +0000";
layers = (
{
layerId = "A04BFA18-C442-4494-B826-EAC83DBBD8AC";
name = Regular;
paths = (
{
closed = 1;
nodes = (
"629 54 LINE",
"557 61 LINE",
"541 83 OFFCURVE",
"517 116 OFFCURVE",
"508 131 CURVE SMOOTH",
"503 139 OFFCURVE",
"451 223 OFFCURVE",
"403 316 CURVE",
"488 344 OFFCURVE",
"548 411 OFFCURVE",
"548 508 CURVE SMOOTH",
"548 641 OFFCURVE",
"464 710 OFFCURVE",
"327 710 CURVE SMOOTH",
"272 710 OFFCURVE",
"214 705 OFFCURVE",
"159 705 CURVE SMOOTH",
"139 705 OFFCURVE",
"44 710 OFFCURVE",
"44 710 CURVE",
"39 656 LINE",
"116 644 LINE",
"118 631 OFFCURVE",
"125 585 OFFCURVE",
"125 568 CURVE SMOOTH",
"125 137 LINE SMOOTH",
"125 120 OFFCURVE",
"118 74 OFFCURVE",
"116 61 CURVE",
"37 45 LINE",
"42 -5 LINE",
"42 -5 OFFCURVE",
"152 0 OFFCURVE",
"177 0 CURVE SMOOTH",
"306 0 LINE",
"313 54 LINE",
"223 61 LINE",
"221 75 OFFCURVE",
"216 125 OFFCURVE",
"216 167 CURVE SMOOTH",
"216 303 LINE",
"244 302 OFFCURVE",
"276 301 OFFCURVE",
"304 301 CURVE SMOOTH",
"311 301 LINE",
"409 116 LINE SMOOTH",
"422 92 OFFCURVE",
"464 0 OFFCURVE",
"464 0 CURVE",
"622 0 LINE"
);
},
{
closed = 1;
nodes = (
"216 538 LINE SMOOTH",
"216 572 OFFCURVE",
"221 629 OFFCURVE",
"223 656 CURVE",
"247 658 OFFCURVE",
"271 660 OFFCURVE",
"285 660 CURVE SMOOTH",
"388 660 OFFCURVE",
"454 607 OFFCURVE",
"454 507 CURVE SMOOTH",
"454 402 OFFCURVE",
"387 351 OFFCURVE",
"284 351 CURVE SMOOTH",
"267 351 OFFCURVE",
"241 353 OFFCURVE",
"216 356 CURVE"
);
}
);
width = 641;
},
{
layerId = "6AAAC2AB-C0B6-4874-B22A-447CC2571A39";
name = Bold;
paths = (
{
closed = 1;
nodes = (
"658 71 LINE",
"610 75 LINE",
"597 96 OFFCURVE",
"582 119 OFFCURVE",
"575 131 CURVE",
"571 139 OFFCURVE",
"515 221 OFFCURVE",
"469 314 CURVE",
"540 353 OFFCURVE",
"590 419 OFFCURVE",
"590 504 CURVE SMOOTH",
"590 631 OFFCURVE",
"495 710 OFFCURVE",
"356 710 CURVE SMOOTH",
"301 710 OFFCURVE",
"222 705 OFFCURVE",
"167 705 CURVE SMOOTH",
"137 705 OFFCURVE",
"47 710 OFFCURVE",
"47 710 CURVE",
"42 635 LINE",
"107 623 LINE",
"109 607 OFFCURVE",
"116 562 OFFCURVE",
"116 542 CURVE SMOOTH",
"116 163 LINE SMOOTH",
"116 143 OFFCURVE",
"108 87 OFFCURVE",
"107 77 CURVE",
"41 65 LINE",
"46 -5 LINE",
"46 -5 OFFCURVE",
"166 0 OFFCURVE",
"196 0 CURVE SMOOTH",
"340 0 LINE",
"345 71 LINE",
"280 77 LINE",
"278 91 OFFCURVE",
"271 153 OFFCURVE",
"271 193 CURVE SMOOTH",
"271 279 LINE",
"289 278 OFFCURVE",
"304 277 OFFCURVE",
"315 277 CURVE SMOOTH",
"330 277 LINE",
"413 116 LINE SMOOTH",
"426 92 OFFCURVE",
"462 0 OFFCURVE",
"462 0 CURVE",
"653 0 LINE"
);
},
{
closed = 1;
nodes = (
"271 361 LINE",
"271 512 LINE SMOOTH",
"271 545 OFFCURVE",
"274 596 OFFCURVE",
"276 626 CURVE",
"308 628 LINE",
"398 628 OFFCURVE",
"429 580 OFFCURVE",
"429 497 CURVE SMOOTH",
"429 407 OFFCURVE",
"385 361 OFFCURVE",
"295 361 CURVE SMOOTH"
);
}
);
width = 676;
}
);
leftKerningGroup = B;
rightKerningGroup = R;
unicode = 0052;
},
{
glyphname = Racute;
lastChange = "2015-07-04 08:47:36 +0000";
layers = (
{
layerId = "A04BFA18-C442-4494-B826-EAC83DBBD8AC";
name = Regular;
paths = (
{
closed = 1;
nodes = (
"219 731 LINE",
"454 823 LINE",
"424 886 LINE",
"201 772 LINE"
);
},
{
closed = 1;
nodes = (
"629 54 LINE",
"557 61 LINE",
"541 83 OFFCURVE",
"517 116 OFFCURVE",
"508 131 CURVE SMOOTH",
"503 139 OFFCURVE",
"451 223 OFFCURVE",
"403 316 CURVE",
"488 344 OFFCURVE",
"548 411 OFFCURVE",
"548 508 CURVE SMOOTH",
"548 641 OFFCURVE",
"464 710 OFFCURVE",
"327 710 CURVE SMOOTH",
"272 710 OFFCURVE",
"214 705 OFFCURVE",
"159 705 CURVE SMOOTH",
"139 705 OFFCURVE",
"44 710 OFFCURVE",
"44 710 CURVE",
"39 656 LINE",
"116 644 LINE",
"118 631 OFFCURVE",
"125 585 OFFCURVE",
"125 568 CURVE SMOOTH",
"125 137 LINE SMOOTH",
"125 120 OFFCURVE",
"118 74 OFFCURVE",
"116 61 CURVE",
"37 45 LINE",
"42 -5 LINE",
"42 -5 OFFCURVE",
"152 0 OFFCURVE",
"177 0 CURVE SMOOTH",
"306 0 LINE",
"313 54 LINE",
"223 61 LINE",
"221 75 OFFCURVE",
"216 125 OFFCURVE",
"216 167 CURVE SMOOTH",
"216 303 LINE",
"244 302 OFFCURVE",
"276 301 OFFCURVE",
"304 301 CURVE SMOOTH",
"311 301 LINE",
"409 116 LINE SMOOTH",
"422 92 OFFCURVE",
"464 0 OFFCURVE",
"464 0 CURVE",
"622 0 LINE"
);
},
{
closed = 1;
nodes = (
"216 538 LINE SMOOTH",
"216 572 OFFCURVE",
"221 629 OFFCURVE",
"223 656 CURVE",
"247 658 OFFCURVE",
"271 660 OFFCURVE",
"285 660 CURVE SMOOTH",
"388 660 OFFCURVE",
"454 607 OFFCURVE",
"454 507 CURVE SMOOTH",
"454 402 OFFCURVE",
"387 351 OFFCURVE",
"284 351 CURVE SMOOTH",
"267 351 OFFCURVE",
"241 353 OFFCURVE",
"216 356 CURVE"
);
}
);
width = 641;
},
{
layerId = "6AAAC2AB-C0B6-4874-B22A-447CC2571A39";
name = Bold;
paths = (
{
closed = 1;
nodes = (
"230 731 LINE",
"475 810 LINE",
"441 886 LINE",
"205 783 LINE"
);
},
{
closed = 1;
nodes = (
"658 71 LINE",
"610 75 LINE",
"597 96 OFFCURVE",
"582 119 OFFCURVE",
"575 131 CURVE",
"571 139 OFFCURVE",
"515 221 OFFCURVE",
"469 314 CURVE",
"540 353 OFFCURVE",
"590 419 OFFCURVE",
"590 504 CURVE SMOOTH",
"590 631 OFFCURVE",
"495 710 OFFCURVE",
"356 710 CURVE SMOOTH",
"301 710 OFFCURVE",
"222 705 OFFCURVE",
"167 705 CURVE SMOOTH",
"137 705 OFFCURVE",
"47 710 OFFCURVE",
"47 710 CURVE",
"42 635 LINE",
"107 623 LINE",
"109 607 OFFCURVE",
"116 562 OFFCURVE",
"116 542 CURVE SMOOTH",
"116 163 LINE SMOOTH",
"116 143 OFFCURVE",
"108 87 OFFCURVE",
"107 77 CURVE",
"41 65 LINE",
"46 -5 LINE",
"46 -5 OFFCURVE",
"166 0 OFFCURVE",
"196 0 CURVE SMOOTH",
"340 0 LINE",
"345 71 LINE",
"280 77 LINE",
"278 91 OFFCURVE",
"271 153 OFFCURVE",
"271 193 CURVE SMOOTH",
"271 279 LINE",
"289 278 OFFCURVE",
"304 277 OFFCURVE",
"315 277 CURVE SMOOTH",
"330 277 LINE",
"413 116 LINE SMOOTH",
"426 92 OFFCURVE",
"462 0 OFFCURVE",
"462 0 CURVE",
"653 0 LINE"
);
},
{
closed = 1;
nodes = (
"271 361 LINE",
"271 512 LINE SMOOTH",
"271 545 OFFCURVE",
"274 596 OFFCURVE",
"276 626 CURVE",
"308 628 LINE",
"398 628 OFFCURVE",
"429 580 OFFCURVE",
"429 497 CURVE SMOOTH",
"429 407 OFFCURVE",
"385 361 OFFCURVE",
"295 361 CURVE SMOOTH"
);
}
);
width = 676;
}
);
unicode = 0154;
},
{
glyphname = Rcaron;
lastChange = "2015-07-04 08:47:36 +0000";
layers = (
{
layerId = "A04BFA18-C442-4494-B826-EAC83DBBD8AC";
name = Regular;
paths = (
{
closed = 1;
nodes = (
"271 736 LINE",
"337 736 LINE",
"477 826 LINE",
"454 862 LINE",
"304 794 LINE",
"154 862 LINE",
"131 826 LINE"
);
},
{
closed = 1;
nodes = (
"629 54 LINE",
"557 61 LINE",
"541 83 OFFCURVE",
"517 116 OFFCURVE",
"508 131 CURVE SMOOTH",
"503 139 OFFCURVE",
"451 223 OFFCURVE",
"403 316 CURVE",
"488 344 OFFCURVE",
"548 411 OFFCURVE",
"548 508 CURVE SMOOTH",
"548 641 OFFCURVE",
"464 710 OFFCURVE",
"327 710 CURVE SMOOTH",
"272 710 OFFCURVE",
"214 705 OFFCURVE",
"159 705 CURVE SMOOTH",
"139 705 OFFCURVE",
"44 710 OFFCURVE",
"44 710 CURVE",
"39 656 LINE",
"116 644 LINE",
"118 631 OFFCURVE",
"125 585 OFFCURVE",
"125 568 CURVE SMOOTH",
"125 137 LINE SMOOTH",
"125 120 OFFCURVE",
"118 74 OFFCURVE",
"116 61 CURVE",
"37 45 LINE",
"42 -5 LINE",
"42 -5 OFFCURVE",
"152 0 OFFCURVE",
"177 0 CURVE SMOOTH",
"306 0 LINE",
"313 54 LINE",
"223 61 LINE",
"221 75 OFFCURVE",
"216 125 OFFCURVE",
"216 167 CURVE SMOOTH",
"216 303 LINE",
"244 302 OFFCURVE",
"276 301 OFFCURVE",
"304 301 CURVE SMOOTH",
"311 301 LINE",
"409 116 LINE SMOOTH",
"422 92 OFFCURVE",
"464 0 OFFCURVE",
"464 0 CURVE",
"622 0 LINE"
);
},
{
closed = 1;
nodes = (
"216 538 LINE SMOOTH",
"216 572 OFFCURVE",
"221 629 OFFCURVE",
"223 656 CURVE",
"247 658 OFFCURVE",
"271 660 OFFCURVE",
"285 660 CURVE SMOOTH",
"388 660 OFFCURVE",
"454 607 OFFCURVE",
"454 507 CURVE SMOOTH",
"454 402 OFFCURVE",
"387 351 OFFCURVE",
"284 351 CURVE SMOOTH",
"267 351 OFFCURVE",
"241 353 OFFCURVE",
"216 356 CURVE"
);
}
);
width = 641;
},
{
layerId = "6AAAC2AB-C0B6-4874-B22A-447CC2571A39";
name = Bold;
paths = (
{
closed = 1;
nodes = (
"284 736 LINE",
"382 736 LINE",
"518 831 LINE",
"484 876 LINE",
"333 801 LINE",
"182 876 LINE",
"148 831 LINE"
);
},
{
closed = 1;
nodes = (
"658 71 LINE",
"610 75 LINE",
"597 96 OFFCURVE",
"582 119 OFFCURVE",
"575 131 CURVE",
"571 139 OFFCURVE",
"515 221 OFFCURVE",
"469 314 CURVE",
"540 353 OFFCURVE",
"590 419 OFFCURVE",
"590 504 CURVE SMOOTH",
"590 631 OFFCURVE",
"495 710 OFFCURVE",
"356 710 CURVE SMOOTH",
"301 710 OFFCURVE",
"222 705 OFFCURVE",
"167 705 CURVE SMOOTH",
"137 705 OFFCURVE",
"47 710 OFFCURVE",
"47 710 CURVE",
"42 635 LINE",
"107 623 LINE",
"109 607 OFFCURVE",
"116 562 OFFCURVE",
"116 542 CURVE SMOOTH",
"116 163 LINE SMOOTH",
"116 143 OFFCURVE",
"108 87 OFFCURVE",
"107 77 CURVE",
"41 65 LINE",
"46 -5 LINE",
"46 -5 OFFCURVE",
"166 0 OFFCURVE",
"196 0 CURVE SMOOTH",
"340 0 LINE",
"345 71 LINE",
"280 77 LINE",
"278 91 OFFCURVE",
"271 153 OFFCURVE",
"271 193 CURVE SMOOTH",
"271 279 LINE",
"289 278 OFFCURVE",
"304 277 OFFCURVE",
"315 277 CURVE SMOOTH",
"330 277 LINE",
"413 116 LINE SMOOTH",
"426 92 OFFCURVE",
"462 0 OFFCURVE",
"462 0 CURVE",
"653 0 LINE"
);
},
{
closed = 1;
nodes = (
"271 361 LINE",
"271 512 LINE SMOOTH",
"271 545 OFFCURVE",
"274 596 OFFCURVE",
"276 626 CURVE",
"308 628 LINE",
"398 628 OFFCURVE",
"429 580 OFFCURVE",
"429 497 CURVE SMOOTH",
"429 407 OFFCURVE",
"385 361 OFFCURVE",
"295 361 CURVE SMOOTH"
);
}
);
width = 676;
}
);
leftKerningGroup = B;
rightKerningGroup = R;
unicode = 0158;
},
{
glyphname = S;
lastChange = "2015-07-04 08:47:36 +0000";
layers = (
{
layerId = "A04BFA18-C442-4494-B826-EAC83DBBD8AC";
name = Regular;
paths = (
{
closed = 1;
nodes = (
"131 186 LINE",
"65 192 LINE",
"50 38 LINE",
"50 38 OFFCURVE",
"136 -15 OFFCURVE",
"270 -15 CURVE SMOOTH",
"402 -15 OFFCURVE",
"509 49 OFFCURVE",
"509 182 CURVE SMOOTH",
"509 409 OFFCURVE",
"163 397 OFFCURVE",
"163 554 CURVE SMOOTH",
"163 628 OFFCURVE",
"215 665 OFFCURVE",
"277 665 CURVE SMOOTH",
"322 665 OFFCURVE",
"354 661 OFFCURVE",
"396 643 CURVE",
"402 620 OFFCURVE",
"409 596 OFFCURVE",
"409 587 CURVE SMOOTH",
"409 543 LINE",
"468 537 LINE",
"482 688 LINE",
"418 704 OFFCURVE",
"345 720 OFFCURVE",
"280 720 CURVE SMOOTH",
"156 720 OFFCURVE",
"63 655 OFFCURVE",
"63 535 CURVE SMOOTH",
"63 319 OFFCURVE",
"404 334 OFFCURVE",
"404 170 CURVE SMOOTH",
"404 89 OFFCURVE",
"352 45 OFFCURVE",
"272 45 CURVE SMOOTH",
"223 45 OFFCURVE",
"177 58 OFFCURVE",
"142 72 CURVE",
"137 94 OFFCURVE",
"131 126 OFFCURVE",
"131 138 CURVE SMOOTH"
);
}
);
width = 556;
},
{
layerId = "6AAAC2AB-C0B6-4874-B22A-447CC2571A39";
name = Bold;
paths = (
{
closed = 1;
nodes = (
"417 591 OFFCURVE",
"427 562 OFFCURVE",
"427 556 CURVE",
"430 495 LINE",
"507 491 LINE",
"521 684 LINE",
"451 705 OFFCURVE",
"371 720 OFFCURVE",
"301 720 CURVE SMOOTH",
"165 720 OFFCURVE",
"66 644 OFFCURVE",
"66 521 CURVE SMOOTH",
"66 283 OFFCURVE",
"384 313 OFFCURVE",
"384 166 CURVE SMOOTH",
"384 109 OFFCURVE",
"337 82 OFFCURVE",
"280 82 CURVE SMOOTH",
"229 82 OFFCURVE",
"193 99 OFFCURVE",
"172 110 CURVE",
"165 127 OFFCURVE",
"158 145 OFFCURVE",
"158 151 CURVE",
"157 221 LINE",
"74 226 LINE",
"59 33 LINE",
"59 33 OFFCURVE",
"157 -15 OFFCURVE",
"292 -15 CURVE SMOOTH",
"436 -15 OFFCURVE",
"549 67 OFFCURVE",
"549 204 CURVE SMOOTH",
"549 434 OFFCURVE",
"231 412 OFFCURVE",
"231 546 CURVE SMOOTH",
"231 597 OFFCURVE",
"271 627 OFFCURVE",
"331 627 CURVE SMOOTH",
"367 627 OFFCURVE",
"390 616 OFFCURVE",
"412 604 CURVE"
);
}
);
width = 601;
}
);
leftKerningGroup = S;
rightKerningGroup = S;
unicode = 0053;
},
{
glyphname = Sacute;
lastChange = "2015-07-04 08:47:36 +0000";
layers = (
{
layerId = "A04BFA18-C442-4494-B826-EAC83DBBD8AC";
name = Regular;
paths = (
{
closed = 1;
nodes = (
"202 731 LINE",
"437 823 LINE",
"407 886 LINE",
"184 772 LINE"
);
},
{
closed = 1;
nodes = (
"131 186 LINE",
"65 192 LINE",
"50 38 LINE",
"50 38 OFFCURVE",
"136 -15 OFFCURVE",
"270 -15 CURVE SMOOTH",
"402 -15 OFFCURVE",
"509 49 OFFCURVE",
"509 182 CURVE SMOOTH",
"509 409 OFFCURVE",
"163 397 OFFCURVE",
"163 554 CURVE SMOOTH",
"163 628 OFFCURVE",
"215 665 OFFCURVE",
"277 665 CURVE SMOOTH",
"322 665 OFFCURVE",
"354 661 OFFCURVE",
"396 643 CURVE",
"402 620 OFFCURVE",
"409 596 OFFCURVE",
"409 587 CURVE SMOOTH",
"409 543 LINE",
"468 537 LINE",
"482 688 LINE",
"418 704 OFFCURVE",
"345 720 OFFCURVE",
"280 720 CURVE SMOOTH",
"156 720 OFFCURVE",
"63 655 OFFCURVE",
"63 535 CURVE SMOOTH",
"63 319 OFFCURVE",
"404 334 OFFCURVE",
"404 170 CURVE SMOOTH",
"404 89 OFFCURVE",
"352 45 OFFCURVE",
"272 45 CURVE SMOOTH",
"223 45 OFFCURVE",
"177 58 OFFCURVE",
"142 72 CURVE",
"137 94 OFFCURVE",
"131 126 OFFCURVE",
"131 138 CURVE SMOOTH"
);
}
);
width = 556;
},
{
layerId = "6AAAC2AB-C0B6-4874-B22A-447CC2571A39";
name = Bold;
paths = (
{
closed = 1;
nodes = (
"208 731 LINE",
"453 810 LINE",
"419 886 LINE",
"183 783 LINE"
);
},
{
closed = 1;
nodes = (
"417 591 OFFCURVE",
"427 562 OFFCURVE",
"427 556 CURVE",
"430 495 LINE",
"507 491 LINE",
"521 684 LINE",
"451 705 OFFCURVE",
"371 720 OFFCURVE",
"301 720 CURVE SMOOTH",
"165 720 OFFCURVE",
"66 644 OFFCURVE",
"66 521 CURVE SMOOTH",
"66 283 OFFCURVE",
"384 313 OFFCURVE",
"384 166 CURVE SMOOTH",
"384 109 OFFCURVE",
"337 82 OFFCURVE",
"280 82 CURVE SMOOTH",
"229 82 OFFCURVE",
"193 99 OFFCURVE",
"172 110 CURVE",
"165 127 OFFCURVE",
"158 145 OFFCURVE",
"158 151 CURVE",
"157 221 LINE",
"74 226 LINE",
"59 33 LINE",
"59 33 OFFCURVE",
"157 -15 OFFCURVE",
"292 -15 CURVE SMOOTH",
"436 -15 OFFCURVE",
"549 67 OFFCURVE",
"549 204 CURVE SMOOTH",
"549 434 OFFCURVE",
"231 412 OFFCURVE",
"231 546 CURVE SMOOTH",
"231 597 OFFCURVE",
"271 627 OFFCURVE",
"331 627 CURVE SMOOTH",
"367 627 OFFCURVE",
"390 616 OFFCURVE",
"412 604 CURVE"
);
}
);
width = 601;
}
);
unicode = 015A;
},
